<svg id="Layer_2" data-name="Layer 2" xmlns="http://www.w3.org/2000/svg" viewBox="0 0 900 900"><defs><style>.cls-1{fill:#e8bfcf;}.cls-2{fill:#b4b4b4;}</style></defs><title>1</title><path class="cls-1" d="M535.22,210.74c0,3.84-.07,7.69,0,11.53.11,4.6,1.36,5.36,5.37,3,3.3-1.95,6.39-4.27,9.56-6.43,7.72-5.25,15.32-10.68,23.17-15.72a74.09,74.09,0,0,1,26.62-11,38,38,0,0,1,18.27.68c11.65,3.59,18.85,11.65,22.55,23,2.84,8.75,3,17.74,1.63,26.73C639.05,265,628.6,284,613.86,300.92c-13,14.91-28.86,26.29-46.07,35.86-21.06,11.7-43.52,19.83-66.78,25.8-14,3.61-28.1,7.09-42.26,10.1a175,175,0,0,1-22.52,2.82,28,28,0,0,1-9.4-1.25c-5.42-1.49-7.82-6-5.88-11.27a74,74,0,0,1,5.44-11.23c5.1-8.89,9.64-18,12.39-27.93a246.36,246.36,0,0,0,6.71-34.91c1.71-13.53,2.18-27.14,2.78-40.75.76-17.35,2.24-34.64,7.15-51.43,2.91-10,6.77-19.52,12.77-28.07,5.31-7.57,11.78-13.92,20.21-18,10.25-4.95,20.33-3.46,28.58,4.38a48.81,48.81,0,0,1,6.49,7.84,66.07,66.07,0,0,1,8.47,18.86C534.69,191.27,535.53,198.29,535.22,210.74Z"/><path class="cls-1" d="M643.23,351.62c0-1,.07-2.09,0-3.12-.69-9.39,1-18.15,6.67-25.91a34.07,34.07,0,0,1,11.75-10.38c9.56-5,19.37-2.56,25.46,6.33,3.65,5.32,5.16,11.37,5.73,17.67.93,10.13-.06,20.18-1.61,30.19-1.49,9.54-3.06,19.08-4.43,28.64a97.06,97.06,0,0,0,.45,30.19,16.45,16.45,0,0,1,.31,2.61c0,2.79-1.19,4.85-3.93,5.32a35.38,35.38,0,0,1-9.79.51c-26.09-2.9-46.36-15.89-62-36.51-5.81-7.64-9-16.56-11-25.86a24.79,24.79,0,0,1,2.39-17.58,20.83,20.83,0,0,1,21.9-10.57,34.46,34.46,0,0,1,14.52,6.68l2.87,2.12Z"/><path class="cls-2" d="M427.49,206.89c0,23.35-2.35,43.3-5.55,63.18a212.4,212.4,0,0,1-16.34,54.77c-3.75,8.19-7.58,16.35-11.37,24.52-2.32,5-4.37,10.06-5.12,15.58a17.48,17.48,0,0,0,1.53,10.26,42,42,0,0,0,7.48,10.8c4.66,4.89,10.7,6.68,17.1,7.67,10.48,1.61,21,1.47,31.59,1.63,11.1.17,22.2.17,33.3.16a365,365,0,0,1,52.52,4.22,303,303,0,0,1,62.14,15.81c13.65,5.06,26.69,11.34,38.16,20.5a165.28,165.28,0,0,1,35.65,39.48c9.22,14.2,14.71,29.92,17.66,46.53,1.27,7.14,2.2,14.33,3.28,21.5a11.48,11.48,0,0,0,.19,1.31c1.2,5.06,1.35,5.28,6.23,6,16.47,2.44,28.62,11.19,36.17,26.07,3.89,7.66,4.83,16,4.23,24.4-1.06,14.79-5.32,28.48-14.83,40.17-2.08,2.54-4.37,4.93-6.68,7.27-6.23,6.28-14.28,8.78-22.61,10.67-.86.19-1.71.44-2.57.58a6.63,6.63,0,0,0-4.87,3.55c-1.4,2.36-2.94,4.63-4.43,6.94a33,33,0,0,1-17.05,13.41c-4.54,1.63-9.09,3.29-13.75,4.56-12.81,3.48-20.14,11.81-22.63,24.71a124,124,0,0,1-2.87,12.52c-4.14,13.61-13.38,21.22-27.58,22.07-17.24,1-34.28,3.63-51.39,5.8q-22.87,2.9-45.87,4.89a86.48,86.48,0,0,1-34.49-4,40.31,40.31,0,0,1-14.41-7.75,27.77,27.77,0,0,1-9.58-16.12c-1.48-8,1.78-15.7,8.9-19.62a35.68,35.68,0,0,1,10.77-3.89c8.1-1.42,16.3-2.27,24.47-3.31q19.77-2.52,39.55-5c4.79-.6,9.6-1.08,14.39-1.71A14.34,14.34,0,0,0,542.6,696c1.5-.63,1.91-1.7.82-2.83a16.17,16.17,0,0,0-5.12-4,65.78,65.78,0,0,0-12.53-4c-8.85-1.62-17.77-2.89-26.71-4-17.32-2.15-34.13-6.13-50.11-13.31-2.9-1.31-5.89-2.41-8.86-3.55a21,21,0,0,0-3.48-1c-3.61-.73-4.64-.33-5.56,3.25-3.42,13.21-9.55,25.26-15.86,37.2-6.94,13.12-11.55,27-15.21,41.33a122.94,122.94,0,0,1-5.13,15.28c-3.26,8.14-9.59,12.55-18.26,13-13.28.63-26.6.82-39.8-1.22a48.4,48.4,0,0,1-10.46-2.81c-7.9-3.17-10.15-9.46-6.44-17.1a35.11,35.11,0,0,1,7.3-10.11c2.78-2.66,5.66-5.22,8.48-7.83a16.37,16.37,0,0,0,1.89-1.83c1.1-1.37,1-2.41-.65-3.17a21.11,21.11,0,0,0-4.39-1.28c-2.25-.51-4.56-.77-6.77-1.4a22.07,22.07,0,0,1-5.14-2.14c-5.11-3-7.2-8-5.12-13.52a40,40,0,0,1,5.41-9.71c2.82-3.78,6.21-7.12,9.34-10.66,1.16-1.31,2.35-2.62,3.42-4a13.44,13.44,0,0,0,2.77-10.22c-1.17-9.85-4.62-18.7-11.24-26.23a90.89,90.89,0,0,0-16.46-14.64c-6.77-4.7-13.69-9.2-20.35-14-6-4.39-12-8.9-17.68-13.76-15.49-13.33-23.94-30.35-25.74-50.67-.38-4.27-.54-8.56-.61-12.84-.09-5.49-.2-11,.1-16.48a42.23,42.23,0,0,0-5.71-23.68,75.29,75.29,0,0,1-7.57-19.26c-3.46-14-2.2-27.71,2.25-41.23,1.34-4.07,3-8,4.56-12,.56-1.44,1.13-2.87,1.81-4.25a53.54,53.54,0,0,0,5.09-30.76,62.67,62.67,0,0,1-.38-9.88A56.82,56.82,0,0,0,236,354.68c-4.7-7.8-9.56-15.56-15-22.89-25.86-35.15-41.83-74.8-53.51-116.43a112.72,112.72,0,0,1-4-24.36c-.28-5-.15-9.91,1.65-14.63,2.37-6.2,7.37-9,13.83-7.78a29.57,29.57,0,0,1,6.29,1.86,76,76,0,0,1,9,4.71,192.65,192.65,0,0,1,29.79,23.37,284.41,284.41,0,0,1,69,99.5c4,9.62,7.92,19.31,12,28.92a45.71,45.71,0,0,0,3.81,7.27c1.65,2.52,2.84,2.62,5.6,1.29a8.87,8.87,0,0,0,4.9-7,35.06,35.06,0,0,0,.33-4.92c.37-13,.31-26,1.14-38.89,1.9-29.42,6.9-58.29,18.37-85.65a205.45,205.45,0,0,1,33.21-54.74,99,99,0,0,1,11.56-11.24,38.36,38.36,0,0,1,9-5.42c6.66-3,12.64-1.51,17.79,3.56a34,34,0,0,1,7,10.68,79.59,79.59,0,0,1,5.23,18A275.53,275.53,0,0,1,427.49,206.89Zm74.65,263.43.85.2c-.72,6.87-1.39,13.74-2.25,20.59a4.35,4.35,0,0,1-1.86,2.46c-3.14,2.22-6.43,4.23-9.58,6.43a84.21,84.21,0,0,0-15.43,13.33c-3.6,4.11-6.5,8.64-7.57,14.07-1.36,6.85.16,13,5.62,17.6s11.41,4.66,17.67,2.17a28.83,28.83,0,0,0,10.94-8.28,62.87,62.87,0,0,0,11.05-18.61c3.75-9.48,5.63-19.39,7-29.41.25-1.77.22-3.53,2.26-4.34,1.64-.66,2.81-2.38,5-2.27,0,1.48,0,2.8,0,4.11a28.75,28.75,0,0,0,3,12.4c4.16,8.23,14.83,12.2,23.35,5,.92-.78,1.78-1.64,2.68-2.45.58-.53,1.19-1,1.78-1.56-1.76,6.6-3.94,12.91-6,19.24-.43,1.28-1.46,1.52-2.46,1.91-3.48,1.35-7,2.58-10.43,4.08a47,47,0,0,0-13.37,8.33c-4.73,4.42-7.9,9.7-8.55,16.26-.79,7.94,3.86,14.59,11.53,16a23.8,23.8,0,0,0,8.16-.14c5.72-1,10.34-4.15,14.36-8.22a47.9,47.9,0,0,0,9.82-14.35c2.93-6.62,5.51-13.4,8.27-20.1.37-.88.72-2.16,1.42-2.45a63.55,63.55,0,0,1,9.4-3.19c-.63,2.47-1.15,4.37-1.6,6.29-2.8,11.9-5.23,23.83-3.67,36.18.82,6.47,2,12.84,5,18.69a29.52,29.52,0,0,0,5,7.29c4.56,4.68,11,4.62,15.54,0a36.44,36.44,0,0,0,4.93-6.56c2.29-3.75,4.3-7.67,6.43-11.51.52-.93,1.08-1.85,1.9-3.27.43,1.58.69,2.61,1,3.63,1.59,5.62,3.43,11.14,6.87,16,7.92,11.11,21.83,13.43,32.77,5.28,8.14-6.06,12.8-14.64,16.26-23.93.83-2.22.14-4.2-1.33-5a4.15,4.15,0,0,0-5.18.66,17,17,0,0,0-3.29,4.43,59.64,59.64,0,0,1-10,15,26.53,26.53,0,0,1-5.11,4.09,5.45,5.45,0,0,1-6.74-.58,12.23,12.23,0,0,1-3.19-3.7,39.53,39.53,0,0,1-3.24-8.24,79.3,79.3,0,0,1-2.07-24.85c.26-3.36,1-6.68,1.42-9.84a3.91,3.91,0,0,1,.72-.21c.86.1,1.72.23,2.59.32,7.61.87,14.43-.9,20.05-6.28,8.09-7.73,7.45-25.9-7.47-30.07A19.59,19.59,0,0,0,629,506.07a31.16,31.16,0,0,0-9.93,12.52,86.57,86.57,0,0,0-7.45,25.85,15.47,15.47,0,0,1-1.25,5.39c-5,9.15-10.21,18.2-15.4,27.26-.74,1.29-1.71,2.45-2.92,4.16A42,42,0,0,1,590,570.71c-.87-8.82.1-17.56,1.39-26.26A144.37,144.37,0,0,1,599.9,512a7,7,0,0,1,3.43-3.72c4.4-2.46,8.81-5,13-7.8A57,57,0,0,0,635,480c2.38-4.5,4.15-9.22,3.82-14.47-.53-8.47-7.76-13.69-16-11.46a28.59,28.59,0,0,0-10.89,6,62.48,62.48,0,0,0-13.57,16.46c-6.46,11-12.49,22.22-16.93,34.22a3.53,3.53,0,0,1-1.53,2c-2.7,1.1-5.49,2-8.83,3.15.55-1.81.91-3,1.3-4.25,3.5-10.87,7.09-21.71,10.47-32.62a85.73,85.73,0,0,0,2.69-11.53c.66-4.07-1.26-7-5.09-8.58a8.09,8.09,0,0,0-8.7,1.22c-.71-.68-1.34-1.28-2-1.89a27.91,27.91,0,0,0-11.19-6.74c-9.69-3.08-20.49-1.41-26.64,10.22-2,3.84-3.13,8.17-4.73,12.24a7.24,7.24,0,0,1-1.68,3,48.83,48.83,0,0,1-5.51,3.36c0-1.73,0-2.92,0-4.11.28-6.59.66-13.17.86-19.76a56.12,56.12,0,0,0-.31-8.89c-.9-6.91-6.75-9.95-13.05-7-.17.08-.42,0,0,0-3.53-2.69-6.43-5.48-9.82-7.37-9.56-5.32-20.32-2.47-26.2,6.73a36.54,36.54,0,0,0-3.6,7.38,48.43,48.43,0,0,0-1.75,26.61,6.77,6.77,0,0,1-.28,4.47c-2.67,5.78-5.29,11.59-8,17.37-.44.93-1.09,1.75-2,3.2a27.49,27.49,0,0,1-1.25-4c-.69-5-1.48-10-1.85-15-.88-12.23.39-24.36,2.19-36.45a67.93,67.93,0,0,0,.87-11.47c-.1-4.39-3.26-7.2-7.67-7.55s-6.83,1.43-8.13,5.95c-.24.84-.45,1.7-.62,2.56-.78,4-1.17,8.09-2.36,11.94a85,85,0,0,1-13.91,27.49,74,74,0,0,1-6,6,63.75,63.75,0,0,1-1.93-7,92.33,92.33,0,0,1,.85-32.77,52.21,52.21,0,0,0,1-6.83c.21-3.11-1.45-5.21-4.18-6.48-4.79-2.22-9.59-.41-11.75,4.47a27,27,0,0,0-1.8,5.28,120.85,120.85,0,0,0-2.4,13.28c-.73,7.67-.86,15.36,1.41,22.89a7.61,7.61,0,0,1,.15,3.55c-2.37,11.51-4.82,23-7.27,34.49-.25,1.13-.67,2.23-1.21,4a15.52,15.52,0,0,1-1.13-2.72c-.77-4.76-1.92-9.51-2.12-14.3-.64-15.53,1.18-30.93,2.92-46.34.78-6.87,1.26-13.78,1.5-20.69a28.8,28.8,0,0,0-2.41-13.19c-3.41-7.4-14.11-11.94-21.52-3.65a40.67,40.67,0,0,0-6.79,10c-2.62,5.77-4.48,11.89-6.65,17.87-.36,1-.63,2-.94,3a11.45,11.45,0,0,1-.54-4c-.13-6.82-.12-13.64-.51-20.44a17.34,17.34,0,0,0-2-7.18,7,7,0,0,0-12.24,0,12.9,12.9,0,0,0-1.55,4.3,83.13,83.13,0,0,0-1,8.5,5.26,5.26,0,0,1-2.25,4.09c-8.38,6.59-16.68,13.28-25,19.94-.85.67-1.73,1.3-2.64,2-.49-.29-.87-.48-1.21-.73-5.82-4.34-11.75-8.53-17.38-13.09a67.45,67.45,0,0,1-9.09-9,25.42,25.42,0,0,1-3.88-7.18c-1.76-4.57-.43-8.69,2.81-12.14,4.57-4.87,9.95-4.91,14.73-.25a28.5,28.5,0,0,1,6.57,10.55c.59,1.54,1.09,3.12,1.82,4.59a3.24,3.24,0,0,0,3.83,1.83c1.57-.43,2.33-1.59,2.25-3.54a11.79,11.79,0,0,0-.3-1.95,28.4,28.4,0,0,0-10.17-16.51,18.79,18.79,0,0,0-16.66-4.14c-11.61,2.58-19.55,11.72-18.29,24.06a27.5,27.5,0,0,0,5,12.76,57.72,57.72,0,0,0,12,12.59q6.82,5.45,13.64,10.92c.74.59,1.39,1.3,2.13,2-1.69,1.86-3.25,3.55-4.78,5.27a49.38,49.38,0,0,0-9.94,16.19c-3.07,8.69-.41,16.73,7.24,21.91a24.69,24.69,0,0,0,37.41-13.26,28.9,28.9,0,0,0,.21-15c-1.72-7.65-5.84-13.91-11.23-19.44-.89-.92-1.76-1.85-2.63-2.76,6.3-6.08,23.15-19.42,25.55-20.17,0,4-.11,8,0,11.93a117.41,117.41,0,0,0,4.91,31.48,66.26,66.26,0,0,0,4.14,10c1.57,3.08,4.24,4,7.52,3.18,3.11-.77,4.72-2.78,5-6.51.51-6.9.73-13.83,1.44-20.72,1.12-11.06,3.13-22,7.2-32.39a78.93,78.93,0,0,1,5.55-10.42,3.81,3.81,0,0,1,3-2.29c.15,1.67.42,3.2.4,4.73,0,3.62-.06,7.26-.4,10.86-1.14,11.92-2.51,23.82-3.61,35.74-1.07,11.67-.74,23.28,2.94,34.56,2,6,4.52,11.72,8.75,16.48,5.2,5.85,12.5,4.52,15.45-2.75a30.3,30.3,0,0,0,1.56-5.37c1.79-8.82,3.5-17.67,5.24-26.5.22-1.12.5-2.22.82-3.62.93.63,1.45,1,2,1.35,5.62,3.55,11.65,3.51,16.89-.58a35.83,35.83,0,0,0,6-6.46c1.77-2.28,3.16-4.86,4.71-7.3l.66.16c0,2.93-.09,5.86,0,8.78.27,6.89,1.55,13.58,5.06,19.59a31.7,31.7,0,0,0,6,7.7c4.8,4.28,11.34,3.67,15.57-1.19a25.06,25.06,0,0,0,3.5-5.54c1.67-3.46,3.1-7,4.65-10.55.34-.77.72-1.52,1.19-2.49l1.43,1.16c6.78,5.66,14,5.11,19.63-1.74a95.21,95.21,0,0,0,5.57-8.15C499.21,474.92,500.66,472.61,502.14,470.32Zm-162-162.13c.29,4.43.69,12.22,1.34,20A41,41,0,0,0,345.64,343c3.13,6.34,8.82,8.49,15.42,5.88a18.25,18.25,0,0,0,8.26-6.35,83.23,83.23,0,0,0,6.31-10,140.5,140.5,0,0,0,11.83-32.06c4.94-20.62,8.66-41.48,11.69-62.45a192,192,0,0,0,2.13-37.12,37,37,0,0,0-2.53-12.86,13.64,13.64,0,0,0-22.13-4.7,52.32,52.32,0,0,0-6.86,8.4,115.19,115.19,0,0,0-11.35,21.52C346.72,242.67,340.65,273.19,340.16,308.19Zm9.43,273.12c0-.13-.07-.27,0-.32.63-.76,1.28-1.51,1.93-2.25,6.44-7.37,10.74-15.72,12-25.55,1.66-12.75-4.15-23.55-15.42-28a39.43,39.43,0,0,0-17.8-2.56A78.68,78.68,0,0,0,310.74,527,35.23,35.23,0,0,0,300,532.68a19.73,19.73,0,0,0-7.67,15.39,57.82,57.82,0,0,0,1.84,15.33c2.41,10.1,6.46,19.58,10.88,28.92,8.92,18.81,19,36.94,32.43,53,3.75,4.46,7.64,8.76,12.82,11.72a14.27,14.27,0,0,0,12,1.48A30.39,30.39,0,0,0,375,651.06a49.28,49.28,0,0,0,13.05-25.79,40.8,40.8,0,0,0-.66-19.27c-3.62-12.38-11.27-20.77-24.22-23.39C358.79,581.73,354.24,581.73,349.59,581.31ZM288.16,342.65c-.44-2.82-.74-5.66-1.36-8.44-1.91-8.5-5.12-16.57-8.48-24.57-9-21.4-21-41-34.88-59.6-7.57-10.14-15.26-20.18-24.24-29.12a80.85,80.85,0,0,0-9.63-7.95,12.37,12.37,0,0,0-9.75-2c-5.45,1-8.65,4.89-8.46,10.43a35.16,35.16,0,0,0,.55,4.9c1.27,7.3,3.83,14.2,6.59,21,5.71,14.18,12.73,27.73,19.79,41.28a288.52,288.52,0,0,0,30.57,47.64c4.12,5.13,8.56,10,13.15,14.76a37.2,37.2,0,0,0,7.85,5.94c5.12,3,9.93,2,13.92-2.39A17.86,17.86,0,0,0,288.16,342.65ZM502.38,626.08l-.88-.2c-.19-.83-.44-1.65-.57-2.49-2.34-14.44-3.31-29-3.95-43.61-.31-7.26-3.15-12.64-9.63-16-1.17-.61-2.29-1.31-3.49-1.86-6.52-2.94-11.86-1.12-15.21,5.24a27.51,27.51,0,0,0-2,4.87,96.12,96.12,0,0,0-2.63,9.86q-4.09,21.86-7.94,43.75c-1.32,7.57-2.42,15.19-3.49,22.8-.48,3.39,1,5.14,4.44,5.57a8.77,8.77,0,0,0,9.71-5.67,67.08,67.08,0,0,0,2.5-9.53c1.82-8.81,3.49-17.66,5.29-26.48a34,34,0,0,1,1.42-4.2,3.77,3.77,0,0,1,1.11,2.25c.51,4.36.75,8.76,1.49,13.08,1.61,9.29,3.31,18.58,5.34,27.78a20.11,20.11,0,0,0,3.73,7.59,12.27,12.27,0,0,0,20.53-1.39,49.73,49.73,0,0,0,3.19-6.86c7.12-18.06,11.72-36.81,15.11-55.87a64.75,64.75,0,0,0,1-11.12,5.53,5.53,0,0,0-4.86-5.79,14.32,14.32,0,0,0-5.22.08,5.55,5.55,0,0,0-4.65,4.55c-.39,1.94-.87,3.86-1.22,5.8-2.16,11.66-4.18,23.36-7.84,34.68C503.31,624,502.81,625,502.38,626.08ZM455.76,568c-.23-4.39-.46-11.53-1.06-18.64a64.56,64.56,0,0,0-2.06-12c-1.43-5.07-7.12-7.39-12-5.32a5.59,5.59,0,0,0-3.81,4.92c-.14,1.87-.36,3.73-.38,5.59-.21,16.7-.51,33.41-2.24,50a109.44,109.44,0,0,1-2,12.34,16.75,16.75,0,0,1-2.52,5.66c-1.78,2.63-3.55,2.64-5.56.21a18.83,18.83,0,0,1-2.8-4.43,105.47,105.47,0,0,1-4.61-12,159.82,159.82,0,0,1-5.58-33.74c-.29-4.38-.57-8.77-1.12-13.12-.8-6.29-5-9.41-11.29-8.51-5.56.8-11.91,4.68-11.88,13.43a204.54,204.54,0,0,0,4.3,40.55A103.71,103.71,0,0,0,400,619.47a44.32,44.32,0,0,0,9.07,12.47c6.17,5.76,13.32,7.34,21.34,4.57,7.18-2.48,12.44-7.29,16.28-13.73a47.84,47.84,0,0,0,5.48-13.72C455.09,596.45,455.62,583.62,455.76,568Zm85.07,68.11.74-.08c1.84,2.94,2.16,6.37,2.86,9.65,2.06,9.78,3.9,19.6,6.11,29.34a54.55,54.55,0,0,0,3.62,9.86c1.42,3.18,4.21,4.66,7.62,5,1,.08,2,.06,3,.11,5.55.32,9.65-2.08,12-7a68.61,68.61,0,0,0,4-10.76c1.64-5.8,2.87-11.72,4.35-17.57,3-12.14,6.27-24.24,9.14-36.42a49.62,49.62,0,0,0,1.12-11.42c0-3.78-2.55-6.2-6.08-6.63a6.9,6.9,0,0,0-7.76,4.71,25,25,0,0,0-.95,3.49q-5.62,25.06-11.24,50.14c-.22,1-.59,2-.89,2.94l-.77,0a25.7,25.7,0,0,1-1.43-3.8c-1.38-6.66-2.76-13.32-4-20-1.64-9.3-2.91-18.66-4.73-27.92a66.63,66.63,0,0,0-4.11-13.15c-2-4.65-6.06-6.82-11.08-7-4-.13-6.7,1.7-8.16,5.43a54.76,54.76,0,0,0-1.62,5.34c-4.66,17.08-8.08,34.41-11.08,51.84-.89,5.19-1.68,10.41-2.14,15.65a7.25,7.25,0,0,0,6.45,8.13c4.63.63,8.44-1.84,9.47-6.18.23-1,.38-1.94.53-2.92,1.34-8.68,2.65-17.37,4-26C540.09,639.25,540.5,637.68,540.83,636.1Zm119-14-.47-.09c0-.88.06-1.77,0-2.64-.34-4.28-2.88-7-7.14-7.86-3.92-.75-6.7.78-8.67,4.81-1.21,2.47-2.27,5-3.59,7.42-1.84,3.37-3.74,6.71-5.83,9.93a22.87,22.87,0,0,1-7.25,7.1c-3.2,2-5.48,1.3-6.51-2.36a23.92,23.92,0,0,1-.84-8.11c.32-4.26,1.25-8.46,1.88-12.69.4-2.71.87-5.43,1.08-8.15a6.94,6.94,0,0,0-3-6.25c-5.74-4.35-13.56-2.54-16.08,4.14a112.19,112.19,0,0,0-4.6,16.11,35.87,35.87,0,0,0-.23,13.78c1.73,10,10.51,18.06,19.84,18,1.1,0,2.2.07,3.29.16,2.34.2,3,.8,2.62,3.12a23,23,0,0,1-2.12,6.52,52.11,52.11,0,0,1-9.36,12.68,15.92,15.92,0,0,1-2.25,1.93c-1.76,1.22-3.12,1.18-4.2-.66a23.66,23.66,0,0,1-2.47-6.36,44.45,44.45,0,0,1-.65-6.55,5.64,5.64,0,0,0-2.35-4.51,9.55,9.55,0,0,0-14.85,6,25.54,25.54,0,0,0,1.58,15.51c4.92,11.13,12.64,16,25.83,12a33.78,33.78,0,0,0,12.41-7.28A82.6,82.6,0,0,0,641.3,670a131.83,131.83,0,0,0,15.63-34.74C658.17,631,658.86,626.52,659.8,622.13Z"/><path class="cls-2" d="M297.09,465.09c6.88,6.53,11.54,13.91,12.38,23.2,1,10.62-7,16.28-16.84,12.21-7.85-3.24-10.84-10.06-7.76-18C287.46,475.87,291.76,470.37,297.09,465.09Z"/><path class="cls-2" d="M544.51,501.51c-1.75-2.27-1.65-4.55-1.65-6.66,0-7.36.54-14.68,3-21.71a24.67,24.67,0,0,1,5.09-9.12c3.09-3.29,5.61-3.79,9.75-2A17.1,17.1,0,0,1,567,467.1a2.82,2.82,0,0,1,.45,3c-1,3-1.89,6.07-2.92,9.07a7.6,7.6,0,0,1-1.4,2.56Q555.9,490,548.5,498.2A35.59,35.59,0,0,1,544.51,501.51Z"/><path class="cls-2" d="M484.58,482.17a28.48,28.48,0,0,1-1.17-4.17c-.87-7.77-1.41-15.55.36-23.28a33.71,33.71,0,0,1,5.46-12.26c2.19-3,3.66-3.37,7-1.55a17.61,17.61,0,0,1,7.61,8.44,8.14,8.14,0,0,1-.68,7.61c-5,7.5-10.23,14.82-15.45,22.17A26.35,26.35,0,0,1,484.58,482.17Z"/><path class="cls-2" d="M499.11,501.74c-.93,3.93-1.63,7.94-2.86,11.78-1.95,6-4.09,12-6.5,17.91a26.22,26.22,0,0,1-4.46,6.85c-2.61,3-5.86,2.8-8.33-.4a12.35,12.35,0,0,1-2-11.56,30,30,0,0,1,4.22-8.47c5.09-7.06,12.34-11.68,19.33-16.57Z"/><path class="cls-2" d="M547,529.64a4.49,4.49,0,0,1,0,1.14c-3,7.68-6.41,15.19-11.14,22a26,26,0,0,1-4.44,4.82c-1.78,1.53-3.13,1.34-4.43-.58a10.76,10.76,0,0,1-1.67-4.21,13.13,13.13,0,0,1,2.7-10.24,35.3,35.3,0,0,1,5.45-5.68C537.38,533.65,542,531.64,547,529.64Z"/><path class="cls-2" d="M632,533c2.06-6.42,3.84-12.65,7.55-18a17,17,0,0,1,4.22-4.07,3.4,3.4,0,0,1,5.17.92A10.9,10.9,0,0,1,650.7,516C652.58,526.5,643,535.42,632,533Z"/><path class="cls-2" d="M605.78,499.68a16.4,16.4,0,0,1,.64-1.7,247.09,247.09,0,0,1,17.28-28.77c1.78-2.5,3.71-4.91,7.15-6.35a24,24,0,0,1,.29,3.89c-.43,4.49-2.46,8.43-4.68,12.2-4.88,8.28-11.67,14.78-19.49,20.27A7.37,7.37,0,0,1,605.78,499.68Z"/><path class="cls-2" d="M371.35,621.15a66.37,66.37,0,0,1-1.69,8.35c-2.2,6.66-9.1,8.62-14.52,4.21a21,21,0,0,1-4-4.34c-4.2-6.17-8.33-12.39-12.32-18.7a33.14,33.14,0,0,1-3-6.59c-1.61-4.51-.51-6.88,4.08-8.38,9.24-3,18.34-.7,24.82,6.74C368.83,607.15,371,613.84,371.35,621.15Z"/><path class="cls-2" d="M327.74,539c9.9.27,16.23,5.83,17.23,15.62a28.87,28.87,0,0,1-3.35,16.86,19.91,19.91,0,0,1-10,8.75c-3.27,1.43-6,.4-7.74-2.74a23.53,23.53,0,0,1-1.09-2.4c-3.18-7.83-5.95-15.79-7-24.23-.12-1-.28-2-.35-2.94-.32-4,1-6.22,4.92-7.41C322.76,539.83,325.28,539.53,327.74,539Z"/></svg>