<?xml version="1.0" encoding="utf-8"?>
<!-- Generator: Adobe Illustrator 23.0.1, SVG Export Plug-In . SVG Version: 6.00 Build 0)  -->
<svg version="1.1" id="Layer_1" xmlns="http://www.w3.org/2000/svg" xmlns:xlink="http://www.w3.org/1999/xlink" x="0px" y="0px"
	 viewBox="0 0 1383 290" style="enable-background:new 0 0 1383 290;" xml:space="preserve">
<style type="text/css">
	.st0{fill:#D9EFF0;stroke:#00ACB4;stroke-width:2;stroke-miterlimit:10;}
	.st1{fill:#F6E5CF;stroke:#F29933;stroke-width:2;stroke-miterlimit:10;}
	.st2{fill:none;stroke:#FFFFFF;stroke-width:2;stroke-miterlimit:10;}
	.st3{fill:#E2ECD4;stroke:#89BE4B;stroke-width:2;stroke-miterlimit:10;}
	.st4{fill:#F2E1EA;stroke:#E9357F;stroke-width:2;stroke-miterlimit:10;}
	.st5{fill:#F6E5CF;stroke:#F29933;stroke-width:2.3;stroke-miterlimit:10;}
	.st6{fill:#F2E1EA;stroke:#E9357F;stroke-width:2.3;stroke-miterlimit:10;}
	.st7{fill:#D9EFF0;stroke:#00ACB4;stroke-width:2.3;stroke-miterlimit:10;}
	.st8{fill:#F2E1EA;stroke:#E9357F;stroke-width:2.0999999;stroke-miterlimit:10;}
	.st9{fill:#F6E5CF;stroke:#F29933;stroke-width:2.0999999;stroke-miterlimit:10;}
	.st10{fill:none;stroke:#FFFFFF;stroke-width:2.0999999;stroke-miterlimit:10;}
	.st11{fill:#D9EFF0;stroke:#00ACB4;stroke-width:2.0999999;stroke-miterlimit:10;}
	.st12{fill:none;stroke:#FFFFFF;stroke-width:2.3;stroke-miterlimit:10;}
	.st13{fill:#E2ECD4;stroke:#89BE4B;stroke-width:2.3;stroke-miterlimit:10;}
</style>
<path class="st0" d="M1345.9156494,22.9668159l0.5275879-5.7773094c0.041626-0.4566422,0.3892822-0.8142891,0.8428955-0.8815136
	c2.8743896-0.4260006,11.4394531,0.0826778,16.2554932,6.4249096c4.2692871,5.6221657,10.0251465,9.2155666,12.774292,9.6481285
	c0.5804443,0.0913277,0.8630371,0.7578278,0.5671387,1.3344383c-0.84375,1.6442032-2.3916016,4.6306496-3.5517578,6.699707
	c-0.2434082,0.4342499-0.736084,0.6311722-1.1466064,0.4538612c-2.6503906-1.1444511-7.9471436-4.3910065-12.6120605-10.9405689
	c-3.34375-4.6945457-9.6357422-6.9059563-12.5943604-6.0331478
	C1346.3863525,24.0699329,1345.8570557,23.607996,1345.9156494,22.9668159z"/>
<path class="st1" d="M1204.4891357,167.8681793c2.0723877,0.7786407,7.6964111,3.576828,4.5822754,10.2056427
	c-0.1055908,0.224823,0.2681885,0.3787079,0.8690186,0.3426971l9.0898438-0.5448761
	c0.6779785-0.0406342,1.3415527-0.2906952,1.4274902-0.5414276c0.6518555-1.9015961,2.4899902-9.1499634-5.7003174-12.9907684
	c-0.321167-0.1506042-1.0618896-0.110199-1.6252441,0.0826569l-8.2489014,2.8237457
	C1204.305542,167.4436188,1204.1176758,167.7286072,1204.4891357,167.8681793z"/>
<path class="st1" d="M1112.9498291,78.7490158c-2.0723877-0.778656-7.6962891-3.5768433-4.5822754-10.2056427
	c0.1055908-0.2248306-0.2681885-0.3787231-0.8690186-0.3427048l-9.0898438,0.5448761
	c-0.6779785,0.0406418-1.3414307,0.2907028-1.4274902,0.54142c-0.6518555,1.9016037-2.4899902,9.149971,5.7003174,12.9907761
	c0.321167,0.1506042,1.0618896,0.110199,1.6252441-0.0826492l8.2489014-2.8237457
	C1113.1334229,79.1735687,1113.3212891,78.8885803,1112.9498291,78.7490158z"/>
<path class="st2" d="M1248.3823242,232.7137451c-1.9616699,0.1751251-4.9521484,0.4326172-7.0715332,0.5718079
	c-0.3609619,0.0237122-0.6955566-0.1193542-0.9385986-0.3873291c-1.3955078-1.5387268-2.727417-3.1701355-3.4989014-5.0921021
	c-0.8424072-2.0986176-0.916748-4.629837,0.3388672-6.5106201c2.3326416-3.4942322,8.3936768-3.8711548,9.3487549-7.9624481
	c0.8499756-3.6406708-3.3293457-6.8569641-2.9960938-10.5806427c0.1953125-2.1817169,1.9173584-3.921936,3.7579346-5.1095428
	s3.9921875-1.4102173,5.6143799-2.8821564c1.1739502-1.0653076,1.9970703-3.2386627,2.0795898-4.7727814
	c0.0421143-0.7818146,0.8665771-1.2486115,1.5968018-0.9661255c3.3415527,1.2926331,6.769043,2.3761139,10.0943604,3.7081146
	c0.5805664,0.2325439,0.901001,0.895752,0.6831055,1.4820099c-0.7840576,2.110733-1.9516602,3.5820312-3.769043,4.8514099
	c-2.1070557,1.4716492-4.515625,2.8975983-5.4119873,5.3062897c-1.4193115,3.8137512,1.5753174,8.5306091-0.6027832,11.9678955
	c-1.9801025,3.1247559-6.9619141,3.0004578-9.133667,5.9951935c-1.1550293,1.5926819-1.2293701,3.7710419-0.6693115,5.6570435
	c0.2749023,0.9259186,0.9036865,2.0372009,1.4726562,2.9286652
	C1249.7497559,231.6592255,1249.2576904,232.6356049,1248.3823242,232.7137451z"/>
<path class="st1" d="M1315.470459,75.578598c0.713623,2.9325638,2.0991211,12.3986969-5.2435303,25.156723
	c-0.2490234,0.432724-0.1311035,0.9912338,0.2861328,1.2653122l6.3138428,4.1466751
	c0.4709473,0.3092651,1.1009521,0.1491394,1.3580322-0.3521271c1.9504395-3.8018494,8.9664307-18.6738815,6.7602539-31.9440536
	c-0.0865479-0.5203629-0.5979004-0.8670807-1.1170654-0.7739563l-7.602417,1.3635712
	C1315.6932373,74.5362473,1315.3425293,75.0529633,1315.470459,75.578598z"/>
<path class="st3" d="M1336.2462158,149.9994965c1.5734863,0.0819397,3.9710693,0.2143555,5.6654053,0.3424835
	c0.2885742,0.0218201,0.5374756,0.1727905,0.6998291,0.4123688c0.932373,1.3757172,1.8037109,2.817688,2.1986084,4.4267578
	c0.4311523,1.7569733,0.2053223,3.7701874-1.0007324,5.1186523c-2.2406006,2.505249-7.0836182,2.1220551-8.300293,5.2551575
	c-1.0827637,2.7879944,1.8657227,5.805542,1.1829834,8.7174225c-0.4000244,1.7060699-1.9598389,2.8907318-3.5511475,3.6243591
	c-1.5914307,0.7336273-3.3206787,0.6679382-4.7711182,1.6513214c-1.0496826,0.711731-1.9460449,2.3405609-2.18396,3.5463867
	c-0.1212158,0.6145172-0.8269043,0.8914948-1.3734131,0.5856323c-2.5012207-1.3996887-5.0941162-2.6433716-7.578125-4.0724182
	c-0.4337158-0.2494812-0.612915-0.8108215-0.3745117-1.2506714c0.8585205-1.5836182,1.9487305-2.6176453,3.5310059-3.4186401
	c1.8343506-0.9286346,3.9025879-1.7871399,4.8834229-3.5941315c1.5531006-2.8610687-0.288208-6.9338989,1.8236084-9.4114227
	c1.9197998-2.2522736,5.8516846-1.5934601,7.9086914-3.7211761c1.0938721-1.1315765,1.3978271-2.848587,1.1663818-4.4053955
	c-0.1136475-0.7643127-0.4866943-1.7152252-0.8370361-2.4853058
	C1335.0446777,150.6809387,1335.5441895,149.9629364,1336.2462158,149.9994965z"/>
<path class="st4" d="M1300.1621094,222.6013336l-2.3446045-5.3982391c-0.3188477-0.7341461-1.1193848-1.1389618-1.8944092-0.9390411
	c-1.2642822,0.3260803-3.1397705,0.9078979-4.3898926,1.7370605c-0.5887451,0.3904724-0.833374,1.12883-0.6417236,1.8087769
	l1.3845215,4.9134827c0.2161865,0.7671509,0.9368896,1.2760468,1.729248,1.1895447
	c1.1611328-0.1268005,2.9779053-0.4168243,5.1170654-1.0799103
	C1300.0596924,224.5424805,1300.5529785,223.5013885,1300.1621094,222.6013336z"/>
<path class="st0" d="M1197.3862305,92.0645599l-2.8134766-6.47789c-0.3826904-0.8809738-1.3433838-1.366745-2.2733154-1.1268539
	c-1.5170898,0.391304-3.7678223,1.0894775-5.2679443,2.0844803c-0.7064209,0.4685669-1,1.3545837-0.7700195,2.1705322
	l1.661377,5.8961716c0.2593994,0.9205933,1.1242676,1.5312653,2.0750732,1.4274521
	c1.3935547-0.1521454,3.5736084-0.5001907,6.140625-1.2958908
	C1197.2633057,94.3939285,1197.8553467,93.1446304,1197.3862305,92.0645599z"/>
<path class="st2" d="M1268.8791504,55.3087387l4.7070312,1.5868073c0.6401367,0.2158012,1.3917236-0.1345253,1.767334-0.8407402
	c0.6126709-1.1519356,1.4632568-2.9217682,1.7677002-4.3751793c0.1434326-0.6844368-0.1396484-1.3261414-0.6663818-1.6039314
	l-3.8061523-2.0073395c-0.5942383-0.3134117-1.3568115-0.0876083-1.8109131,0.561264
	c-0.6655273,0.9509926-1.6520996,2.4956322-2.6226807,4.5139427
	C1267.7897949,54.0278664,1268.0943604,55.0441666,1268.8791504,55.3087387z"/>
<path class="st0" d="M781.2443848,179.8080597l4.6287842,1.8022766c0.6295166,0.2451019,1.3964844-0.0701752,1.8042603-0.7583008
	c0.6651611-1.1224518,1.5965576-2.8511505,1.9677124-4.2889709c0.1748047-0.6770935-0.0783691-1.3311768-0.5917358-1.6329651
	l-3.7094727-2.1808014c-0.5791626-0.3404999-1.3513184-0.150116-1.8348389,0.4771118
	c-0.7087402,0.919281-1.765564,2.416748-2.828186,4.3881378
	C780.215332,178.4782867,780.4726562,179.5075531,781.2443848,179.8080597z"/>
<path class="st2" d="M1144.4572754,35.6345406c2.5214844-1.9375648,9.9069824-8.7976151,12.2965088-24.1217537
	c0.0810547-0.5197592,0.5465088-0.9006643,1.0700684-0.8503399l7.9222412,0.7613859
	c0.5909424,0.0567865,1.0026855,0.6040678,0.8830566,1.1854696c-0.9073486,4.4096403-4.9604492,21.2544403-15.5303955,30.6971283
	c-0.4145508,0.3702736-1.0632324,0.3175735-1.4282227-0.1015816l-5.3439941-6.1373787
	C1143.9522705,36.6376114,1144.0053711,35.9818306,1144.4572754,35.6345406z"/>
<path class="st0" d="M1341.0162354,228.2145081c-0.4128418,3.1530304-0.7844238,13.2261047,8.3616943,25.7515717
	c0.3103027,0.4248352,0.2504883,1.0232849-0.1553955,1.3579559l-6.1402588,5.0635376
	c-0.4578857,0.3776245-1.1359863,0.2817688-1.4625244-0.2139282c-2.4765625-3.7596741-11.5217285-18.5366669-10.7246094-32.6877747
	c0.0313721-0.5549011,0.5273438-0.9763947,1.0817871-0.9380798l8.1185303,0.5610504
	C1340.6640625,227.1481323,1341.09021,227.649353,1341.0162354,228.2145081z"/>
<path class="st0" d="M1141.9085693,191.606369c2.9536133,0.6206818,12.4587402,1.7068787,24.9787598-6.034668
	c0.4246826-0.2625732,0.9865723-0.162384,1.2736816,0.2460785l4.3438721,6.1798859
	c0.3239746,0.460907,0.1838379,1.0956268-0.309082,1.3684692c-3.7384033,2.0693359-18.3817139,9.5511322-31.7148438,7.7647247
	c-0.5228271-0.0700531-0.885498-0.5701752-0.8088379-1.0920563l1.1230469-7.6417084
	C1140.8737793,191.8618622,1141.3791504,191.4951172,1141.9085693,191.606369z"/>
<path class="st3" d="M1248.6572266,52.0804825c-0.6937256,1.4146004-1.7578125,3.5671806-2.541626,5.074791
	c-0.1335449,0.2567787-0.3701172,0.4263535-0.6542969,0.4814758c-1.6313477,0.3165169-3.2998047,0.551075-4.9345703,0.281723
	c-1.7850342-0.2941093-3.5474854-1.2930565-4.3133545-2.9320145c-1.4229736-3.0449638,0.8328857-7.3476028-1.5699463-9.6978302
	c-2.1380615-2.0913658-6.0715332-0.5662384-8.4807129-2.3385468c-1.4116211-1.0383987-1.8878174-2.9382362-1.9370117-4.6898956
	c-0.0490723-1.7516556,0.69104-3.315937,0.3568115-5.0361214c-0.2418213-1.244978-1.387207-2.7094383-2.4024658-3.4021378
	c-0.5174561-0.3530102-0.494873-1.1106815,0.0012207-1.493063c2.2701416-1.7498074,4.4328613-3.645195,6.7232666-5.3676109
	c0.3999023-0.3007183,0.9864502-0.2448807,1.2971191,0.147253c1.1187744,1.4118061,1.6411133,2.8207569,1.7557373,4.590498
	c0.1329346,2.0517559,0.109375,4.2909088,1.385498,5.9030857c2.0203857,2.5526199,6.4891357,2.4602165,7.9372559,5.3758354
	c1.3164062,2.6505318-0.8347168,6.0070839,0.3132324,8.7347984c0.6104736,1.4506683,2.0699463,2.4049988,3.5924072,2.804081
	c0.7474365,0.1959267,1.7684326,0.2266312,2.6142578,0.2071152
	C1248.5029297,50.7077026,1248.9667969,51.4492416,1248.6572266,52.0804825z"/>
<path class="st4" d="M1223.838623,127.7107925l3.3640137,3.4977188c0.2658691,0.2764587,0.6798096,0.3283539,1.0112305,0.1351929
	c2.1000977-1.2240143,7.4284668-6.0327072,7.2592773-12.6922073c-0.1499023-5.9034042,1.7315674-11.258728,3.3010254-12.9780502
	c0.3314209-0.3630142,0.1677246-0.9460449-0.3269043-1.1679993c-1.4105225-0.6329041-3.9822998-1.7745667-5.8214111-2.5196152
	c-0.3859863-0.1563721-0.8106689-0.0275497-0.9862061,0.3028717c-1.1329346,2.1326599-2.8956299,7.021431-2.5195312,13.7373886
	c0.2696533,4.8138123-2.6842041,9.5466614-5.0727539,10.5228882
	C1223.569458,126.744278,1223.46521,127.3226089,1223.838623,127.7107925z"/>
<path class="st0" d="M1286.1704102,125.3871536l-4.8101807,0.6431351c-0.380127,0.0508347-0.6668701,0.3539276-0.7071533,0.7353821
	c-0.2554932,2.4172516,0.4694824,9.5579529,5.9387207,13.361145c4.8483887,3.3713989,8.0531006,8.0563354,8.5108643,10.3388519
	c0.0966797,0.4819183,0.6635742,0.694809,1.1351318,0.4273071c1.3447266-0.7627869,3.786499-2.1609192,5.4752197-3.2029877
	c0.3543701-0.2187042,0.501709-0.6372833,0.3392334-0.9742737c-1.0493164-2.1750183-3.9481201-6.4882965-9.5854492-10.1579742
	c-4.0406494-2.6303101-6.1091309-7.8116608-5.4831543-10.3149796
	C1287.1088867,125.741951,1286.7042236,125.315773,1286.1704102,125.3871536z"/>
<path class="st4" d="M1181.5512695,245.0073547l3.5557861-4.9147034c0.2810059-0.3884583,0.7845459-0.5246887,1.2282715-0.3432312
	c2.8123779,1.1499023,10.2445068,6.1755829,11.1933594,14.4483948c0.8411865,7.3335571,4.1014404,13.635376,6.3432617,15.4906311
	c0.4733887,0.3917236,0.3720703,1.1419067-0.2016602,1.5026855c-1.6357422,1.0287476-4.6207275,2.8892212-6.7677002,4.1313477
	c-0.4505615,0.2606812-0.9986572,0.1750793-1.2733154-0.2033997c-1.7733154-2.4428406-4.805542-8.1878052-5.5080566-16.5664978
	c-0.503418-6.0056305-4.9830322-11.3504028-8.1094971-12.1433868
	C1181.3862305,246.2505493,1181.1566162,245.5527954,1181.5512695,245.0073547z"/>
<path class="st5" d="M667.6112061,200.9168243c-1.928894-0.397644-4.8705444-0.9944305-6.9602051-1.3743744
	c-0.355957-0.0647125-0.7047119,0.0392761-0.9766846,0.2777863c-1.5618896,1.3695679-3.071106,2.8384705-4.0567017,4.6599426
	c-1.0761719,1.9888916-1.4385986,4.4951324-0.4056396,6.5068054c1.9190063,3.7374268,7.897522,4.802948,8.3799438,8.9764709
	c0.4292603,3.7138367-4.0894775,6.4326324-4.1829834,10.1700287c-0.0547485,2.189743,1.4577026,4.114975,3.1508179,5.5046997
	c1.6931152,1.3897095,3.8053589,1.8562012,5.2491455,3.5034943c1.0449219,1.1922302,1.6148682,3.4452515,1.5219116,4.978775
	c-0.0474243,0.7815094,0.7185669,1.3392792,1.4761963,1.1419067c3.4671021-0.9032288,6.9957886-1.5888367,10.4512329-2.5330048
	c0.6033325-0.1648407,0.9972534-0.7871704,0.8477783-1.3944397c-0.5383301-2.1863708-1.5305786-3.7812042-3.1914062-5.249527
	c-1.9254761-1.7022858-4.1558228-3.3935699-4.7716675-5.8887482c-0.9751587-3.9507141,2.5377808-8.2953644,0.7657471-11.9585724
	c-1.6109009-3.3301544-6.5744019-3.774704-8.390564-6.9975281c-0.9658203-1.713974-0.7913818-3.8866119-0.0199585-5.6964569
	c0.3787231-0.8885345,1.130127-1.9208679,1.7970581-2.7416534
	C668.8494263,202.1203766,668.4719238,201.0942535,667.6112061,200.9168243z"/>
<path class="st3" d="M776.7491455,232.407074c1.2346191-0.9788055,3.1115723-2.4764709,4.4179688-3.5630035
	c0.2224731-0.1850586,0.3378296-0.4523773,0.3312378-0.7417145c-0.0377197-1.6614075-0.1634521-3.3415527-0.7744141-4.8816071
	c-0.6671143-1.6816101-2.0181274-3.1912079-3.7824707-3.5909424c-3.2779541-0.7426605-7.0022583,2.3768463-9.8098145,0.529068
	c-2.4983521-1.6442566-1.8448486-5.8122101-4.0891113-7.7892303c-1.3148804-1.1583405-3.272583-1.2195587-4.9945679-0.894928
	c-1.7220459,0.324646-3.0930786,1.3805542-4.8449707,1.4199524c-1.2679443,0.0285034-2.9425659-0.7791595-3.8353271-1.6238403
	c-0.4550171-0.4304657-1.1905518-0.2471771-1.4586182,0.3188934c-1.2268677,2.5904083-2.6187744,5.1068115-3.8145752,7.7111359
	c-0.2088013,0.4546967-0.0294189,1.015976,0.4197998,1.2361908c1.6174927,0.7928162,3.1052856,1.0034332,4.8589478,0.7389679
	c2.0330811-0.3065948,4.2159424-0.8058472,6.0626831,0.0980225c2.9240112,1.4311371,3.7843018,5.8173065,6.9412842,6.61203
	c2.869873,0.7224731,5.6920166-2.0935059,8.6015015-1.5520325c1.5473022,0.2879639,2.7902832,1.5109253,3.5040894,2.9136505
	c0.3504028,0.6886749,0.5976562,1.6797943,0.7584839,2.5104065
	C775.374939,232.5483398,776.1981812,232.8438568,776.7491455,232.407074z"/>
<path class="st6" d="M750.2106934,281.4893799l-4.2923584,2.2641296c-0.3392944,0.1789551-0.7485962,0.098175-1.0025635-0.18927
	c-1.609314-1.8216858-5.1577148-8.0605774-2.9055176-14.3299561c1.99646-5.5575867,1.8922729-11.2328186,0.9422607-13.3580933
	c-0.2006226-0.4487305,0.1379395-0.9508362,0.6773071-1.0061951c1.5378418-0.1578827,4.3380737-0.4340057,6.3181152-0.5637054
	c0.4155884-0.0272217,0.7782593,0.2284546,0.8411255,0.59729c0.4057617,2.3805695,0.5438232,7.5756073-1.9226685,13.8335419
	c-1.7679443,4.4855347-0.4500732,9.9066467,1.5110474,11.5836792
	C750.7697754,280.656311,750.6870728,281.2380981,750.2106934,281.4893799z"/>
<path class="st7" d="M597.8186646,272.3184204l5.7463379,1.9436646c0.4542236,0.1536255,0.9434204-0.0271912,1.1998901-0.432312
	c1.6251221-2.5671997,4.7680664-10.9704285,0.7459717-18.2616882c-3.5654907-6.4634399-4.5616455-13.4884033-3.8102417-16.2996826
	c0.1586304-0.5935669-0.3587646-1.1461487-1.0353394-1.1075897c-1.9293213,0.1099243-5.4400635,0.3240967-7.9095459,0.556427
	c-0.5182495,0.0487671-0.9152222,0.436203-0.9197388,0.9038544c-0.0289307,3.0184784,0.8302002,9.4575043,5.114563,16.6921997
	c3.0708618,5.1856079,2.5187988,12.1374512,0.4307861,14.5958862
	C596.963623,271.4010315,597.1809692,272.1026917,597.8186646,272.3184204z"/>
<path class="st7" d="M217.7293701,32.9033852l0.9125671-6.6088409c0.0721283-0.5223675,0.490509-0.9147758,1.0151367-0.9679375
	c3.3246002-0.3368721,13.1369171,0.7019234,18.3329926,8.2432518c4.6061554,6.6851234,11.027771,11.1185265,14.1629333,11.7613029
	c0.6619415,0.1357117,0.9512634,0.9163666,0.580719,1.5630608c-1.0565643,1.8440475-2.9930725,5.192688-4.4356232,7.5080109
	c-0.3027496,0.485939-0.8790588,0.6860237-1.3413696,0.4605446c-2.9838867-1.4553337-8.8963928-5.4659271-13.9079132-13.2374153
	c-3.5921326-5.5703888-10.7029114-8.4446373-14.1480103-7.5989532
	C218.2115784,34.1955948,217.6280823,33.6368484,217.7293701,32.9033852z"/>
<path class="st0" d="M78.5768814,165.1408691c0.5922089,2.1331787,1.6458054,8.3258209-5.5447922,9.7163696
	c-0.2438889,0.0471649-0.1479492,0.4398346,0.2352066,0.9039917l5.7969894,7.0226898
	c0.4323502,0.5237732,1.0254059,0.9124756,1.2786179,0.8341675c1.9205093-0.5939178,8.8597488-3.3804169,7.1360931-12.2608795
	c-0.0675888-0.3482361-0.5367661-0.9228821-1.024559-1.2643738l-7.1424637-5.0002289
	C78.8117218,164.7423859,78.470726,164.7585144,78.5768814,165.1408691z"/>
<path class="st1" d="M113.5645676,226.8348389c-1.9676514,0.0844269-4.9668274,0.2036743-7.0903854,0.2449493
	c-0.3616943,0.0070343-0.6893539-0.1513367-0.9197617-0.4302368c-1.3230515-1.6014709-2.5782776-3.2925873-3.2602463-5.2481079
	c-0.7446442-2.1352386-0.7021027-4.6671906,0.6389008-6.4880524c2.4913864-3.3828888,8.5633011-3.4797668,9.706192-7.522644
	c1.0170135-3.59758-3.0094147-7.0032501-2.5047455-10.7075958c0.2956848-2.1703949,2.0962601-3.8293152,3.9896317-4.9307404
	s4.0530167-1.2245178,5.7413635-2.6200409c1.2219238-1.0100098,2.1444397-3.1430664,2.2976379-4.6717529
	c0.0780716-0.7790375,0.9232788-1.2073059,1.6396713-0.8914337c3.2782898,1.4454346,6.6521301,2.6858826,9.9124451,4.1698761
	c0.5692139,0.2590942,0.8587189,0.9363708,0.6141205,1.5119629c-0.880661,2.0723114-2.1148834,3.4881744-3.9889069,4.672348
	c-2.1726685,1.372879-4.6445465,2.6861725-5.6510925,5.0509491c-1.5936966,3.7442169,1.1801529,8.594223-1.1542282,11.9273376
	c-2.1221466,3.0300903-7.0929794,2.6760712-9.4005814,5.5674133c-1.2272339,1.5377045-1.4020386,3.7103119-0.9296265,5.6201324
	c0.231926,0.9376221,0.808815,2.0767365,1.3360596,2.9934998
	C114.9791489,225.8445282,114.4425964,226.7971649,113.5645676,226.8348389z"/>
<path class="st4" d="M187.3692322,82.9595947c0.5775146,2.9623642,1.5248718,12.482338-6.3985901,24.8880157
	c-0.2687531,0.4207687-0.1767578,0.9841309,0.227478,1.2771683l6.1158142,4.4335556
	c0.456131,0.3306656,1.0928345,0.1997757,1.3728333-0.289093c2.1236725-3.7078247,9.8183899-18.2403183,8.2267761-31.5981522
	c-0.0624084-0.5237885-0.5571747-0.8937302-1.0801392-0.8246613l-7.6572876,1.0113602
	C187.639801,81.928627,187.2657318,82.4286194,187.3692322,82.9595947z"/>
<path class="st1" d="M216.4722595,121.6385956c1.4660187-0.5772629,3.7030334-1.4500046,5.2982025-2.0353088
	c0.271698-0.0996933,0.5608215-0.0654297,0.8078308,0.0853729c1.4184265,0.8658905,2.80896,1.8172836,3.8349457,3.1182022
	c1.120285,1.4204865,1.748764,3.3463821,1.2097321,5.0733109c-1.0014191,3.2083893-5.5680542,4.8659821-5.3774719,8.2216187
	c0.1696014,2.9860382,4.1032257,4.5110016,4.6881256,7.4440918c0.3426971,1.7185211-0.5861359,3.4429016-1.7306061,4.7698822
	s-2.7455902,1.9835968-3.6582642,3.4794922c-0.660553,1.0826569-0.8016357,2.9364929-0.5186157,4.1325378
	c0.1442261,0.6095276-0.3832092,1.1539307-1.0074005,1.1019897c-2.856369-0.2377167-5.7315216-0.2954865-8.5843506-0.5670624
	c-0.4980774-0.0474091-0.8937225-0.4840698-0.8589325-0.9831848c0.1252747-1.7969666,0.6892242-3.1897736,1.7974854-4.5742798
	c1.2848511-1.6051483,2.8115387-3.2433167,2.955719-5.2943115c0.2282562-3.2474213-3.134964-6.1914673-2.2392883-9.3212433
	c0.8142548-2.8452454,4.6658173-3.8745422,5.6565247-6.6632385c0.5268707-1.4831085,0.0921783-3.1717529-0.7634125-4.4928055
	c-0.4200439-0.6485596-1.1535492-1.3594894-1.7914886-1.9152222
	C215.6608734,122.7566223,215.8180847,121.8961868,216.4722595,121.6385956z"/>
<path class="st2" d="M175.7637177,228.1293488l-2.0930176-5.5006714c-0.2846527-0.7480621-1.0656738-1.1893768-1.8491058-1.0254364
	c-1.2778778,0.2674103-3.178299,0.7620697-4.4653625,1.5326843c-0.6061096,0.3628845-0.8845215,1.0891571-0.7245026,1.7772369
	l1.1563873,4.9721222c0.1805573,0.7763214,0.8770294,1.3179169,1.6725006,1.2680511
	c1.165863-0.0730743,2.9940033-0.2789917,5.1615448-0.8426666
	C175.5718689,230.0637054,176.1126862,229.0464783,175.7637177,228.1293488z"/>
<path class="st1" d="M47.2302589,110.0448532l-2.5116234-6.6007996c-0.3415718-0.8976898-1.2788048-1.4272614-2.2189178-1.2305298
	c-1.5334587,0.3208923-3.813961,0.9144821-5.3584442,1.8392181c-0.7273216,0.4354706-1.0614319,1.3069992-0.8693962,2.1326828
	l1.387661,5.9665527c0.2166595,0.9315796,1.0524406,1.5814972,2.0070038,1.5216675
	c1.3990288-0.0876999,3.592804-0.3347855,6.1938591-1.0112076C47.0000343,112.3660736,47.649025,111.1454163,47.2302589,110.0448532
	z"/>
<path class="st4" d="M141.7627411,60.5617447l4.6287994,1.8022842c0.6295013,0.2451057,1.3964539-0.0701714,1.8042297-0.7583046
	c0.6651611-1.1224442,1.5965424-2.8511429,1.9677277-4.2889633c0.1747894-0.6770935-0.0784149-1.3311768-0.5917511-1.6329689
	l-3.7094574-2.1808052c-0.5791626-0.3404961-1.3513336-0.1501122-1.8348846,0.4771156
	c-0.7086792,0.9192772-1.7655334,2.4167519-2.8281555,4.388134
	C140.7336731,59.2319832,140.9909668,60.2612495,141.7627411,60.5617447z"/>
<path class="st0" d="M246.5989075,187.5275421l4.6287842,1.8022919c0.6295166,0.2451019,1.3964691-0.0701752,1.804245-0.758316
	c0.6651611-1.1224365,1.5965424-2.8511353,1.9677277-4.2889557c0.1747894-0.6770935-0.0784149-1.3311768-0.5917511-1.6329651
	l-3.7094574-2.1808167c-0.5791626-0.3404846-1.3513489-0.150116-1.8348846,0.4771271
	c-0.7086945,0.9192657-1.7655334,2.416748-2.8281555,4.3881226
	C245.5698395,186.1977844,245.8271332,187.2270508,246.5989075,187.5275421z"/>
<path class="st0" d="M9.528512,55.141449c2.6081963-1.8191719,10.3022585-8.3311768,13.3962793-23.5287495
	c0.1049423-0.5154667,0.5874462-0.8744926,1.1081944-0.8000641l7.8787174,1.1260834
	c0.5876102,0.0839863,0.9736347,0.6496792,0.8273067,1.2249432c-1.1098156,4.3630829-5.9356785,21.0029526-16.9300919,29.9479179
	c-0.4311199,0.3507576-1.0767641,0.2681808-1.4220057-0.167366l-5.0551014-6.3773956
	C8.9777555,56.1201477,9.0610199,55.467514,9.528512,55.141449z"/>
<path class="st3" d="M231.0047607,233.8072968c-0.5579224,3.1306152-1.3937683,13.175827,7.1647339,26.1099396
	c0.2902832,0.4386902,0.2029724,1.0337524-0.2178802,1.3493347l-6.3673553,4.7748413
	c-0.4748993,0.3561096-1.1478577,0.2290649-1.4511566-0.281189c-2.300415-3.8699036-10.6541748-19.0484772-9.2050018-33.1477509
	c0.0568237-0.5528717,0.5717621-0.9510193,1.1238556-0.8871613l8.0839996,0.9349976
	C230.7021484,232.7257996,231.1047516,233.2461548,231.0047607,233.8072968z"/>
<path class="st4" d="M8.6390457,190.8562317c2.9218407,0.7562866,12.3667393,2.2798615,25.2305717-4.8758087
	c0.4363136-0.2427063,0.9930496-0.116684,1.2610054,0.3045807l4.054081,6.3737183
	c0.3023605,0.4753723,0.1330566,1.1029358-0.3719101,1.3527374c-3.8299141,1.8946533-18.8027611,8.6929016-32.0393181,6.2932434
	c-0.5190406-0.094101-0.8582597-0.6104126-0.757566-1.1282196l1.4743805-7.5817566
	C7.593554,191.0637054,8.1153355,190.7206726,8.6390457,190.8562317z"/>
<path class="st3" d="M113.7822113,56.382637c-0.7583008,1.3810883-1.9205933,3.4822807-2.7730713,4.9521255
	c-0.1452026,0.2503471-0.3894272,0.4088249-0.6757812,0.450779c-1.6442871,0.2409096-3.3217697,0.398243-4.9423752,0.0537529
	c-1.7695618-0.3761482-3.484024-1.4553452-4.1735077-3.1278992c-1.2809753-3.1073723,1.1709976-7.3013496-1.1207352-9.7599297
	c-2.0393219-2.1877823-6.0390549-0.8457603-8.3638992-2.7273331c-1.3621292-1.102417-1.7502289-3.0222054-1.7184677-4.7742615
	c0.0317612-1.7520599,0.8432312-3.280529,0.588768-5.0143013c-0.184166-1.2548103-1.2607956-2.7705574-2.2430344-3.5093613
	c-0.5005646-0.376503-0.4429932-1.1323223,0.0702057-1.4914112c2.3484497-1.6432056,4.5962982-3.4367943,6.9636688-5.0517082
	c0.4133224-0.2819481,0.9967117-0.1991081,1.289032,0.2069454c1.0524216,1.4619198,1.5091476,2.893465,1.5420074,4.6666107
	c0.0381012,2.0557022-0.0886459,4.2913895,1.1116409,5.9607201c1.9004669,2.643116,6.3687744,2.7569885,7.680809,5.7363129
	c1.192749,2.7084465-1.1110153,5.9621735-0.0900879,8.7399483c0.5429611,1.4772949,1.956749,2.4979362,3.4591904,2.966835
	c0.7376099,0.2302055,1.756134,0.3079834,2.6019592,0.3275108C113.6914139,55.0042038,114.1205902,55.7663536,113.7822113,56.382637
	z"/>
<path class="st2" d="M93.4296951,130.80867l3.1990814,3.6492004c0.2528534,0.2884369,0.6640244,0.359375,1.0039749,0.1817169
	c2.1542664-1.1258392,7.6988373-5.6835785,7.8371506-12.3437729c0.1226196-5.9040451,2.249115-11.1668549,3.8962631-12.8119354
	c0.3477783-0.3473358,0.2111053-0.9373093-0.2727585-1.1818466c-1.3797531-0.6973038-3.8961182-1.956398-5.6989212-2.7855072
	c-0.3783646-0.1740112-0.8085022-0.0649261-0.9990845,0.2570496c-1.2301025,2.0781174-3.2165451,6.8803558-3.15065,13.606514
	c0.047226,4.8211212-3.1218262,9.4126511-5.5529099,10.2776413C93.2054825,129.83078,93.0746536,130.4036713,93.4296951,130.80867z"
	/>
<path class="st0" d="M155.8023529,131.3632965l-4.8346558,0.4205322c-0.3821259,0.0332336-0.6825562,0.3227692-0.7404175,0.7019653
	c-0.366684,2.4028931,0.0280304,9.5694427,5.3160248,13.6209106c4.6876373,3.591507,7.6728363,8.4193115,8.0247955,10.7205048
	c0.0743103,0.4858704,0.6308289,0.7246857,1.1142273,0.4792328c1.378418-0.6999359,3.8821716-1.9839325,5.6171265-2.9469757
	c0.3641205-0.2021179,0.5306244-0.6134491,0.3837738-0.9575806c-0.9477997-2.2211151-3.6445312-6.6635437-9.1065063-10.5894012
	c-3.9149933-2.8139343-5.7422333-8.0852051-5.0014801-10.5569763
	C156.7234344,131.7610168,156.3389282,131.3166199,155.8023529,131.3632965z"/>
<path class="st8" d="M750.470459,45.1565857c-3.1104736,0.6063805-13.1064453,1.6011009-26.1324463-6.7185287
	c-0.4417725-0.2821846-1.0333252-0.1855965-1.3410034,0.2388458l-4.6552734,6.4216194
	c-0.347168,0.4789391-0.2097168,1.1474609,0.3035889,1.4414635c3.8931885,2.2298622,19.1523438,10.3093185,33.1780396,8.6381226
	c0.5499878-0.0655327,0.9384155-0.585041,0.8659058-1.1341476l-1.0619507-8.0401497
	C751.5529785,45.4406853,751.0279541,45.0478973,750.470459,45.1565857z"/>
<path class="st9" d="M709.8574829,75.7147522c0.6061401,1.5393143,1.522522,3.8881836,2.137085,5.563118
	c0.1046753,0.2852859,0.0686646,0.5888519-0.0896606,0.8482208c-0.9091797,1.489357-1.9081421,2.9494019-3.2741089,4.0266876
	c-1.4915161,1.1763-3.5136719,1.8362045-5.3269653,1.2702332c-3.3688354-1.051506-5.1092529-5.8464584-8.6326904-5.646347
	c-3.135376,0.1780701-4.7365723,4.3083801-7.8162842,4.9225311c-1.8044434,0.3598328-3.6150513-0.6154404-5.0084229-1.8171387
	c-1.3933105-1.2016983-2.0827637-2.8828735-3.6534424-3.8411865c-1.1367798-0.693573-3.083313-0.8417053-4.3391724-0.5445404
	c-0.6400146,0.1514435-1.2116089-0.4023743-1.1570435-1.0577774c0.2495728-2.9991837,0.3102417-6.0180893,0.5953979-9.0135574
	c0.0497437-0.5229797,0.5082397-0.9384232,1.0323486-0.901886c1.8867798,0.1315384,3.3492432,0.7236862,4.8029785,1.887352
	c1.6854248,1.3491135,3.4054565,2.9521332,5.559021,3.103508c3.40979,0.2396851,6.5010376-3.2917099,9.7872925-2.3512421
	c2.9874878,0.8549576,4.0682983,4.8991089,6.9963989,5.9393387c1.557251,0.5532227,3.3303833,0.0967941,4.7174683-0.8015747
	c0.6809692-0.4410477,1.4274292-1.2112274,2.0109863-1.8810577
	C708.6835327,74.8628082,709.5870361,75.0278702,709.8574829,75.7147522z"/>
<path class="st10" d="M607.4997559,22.462389l5.7756958-2.19767c0.7854614-0.2988777,1.2488403-1.1189537,1.0767212-1.941555
	c-0.2807617-1.3417759-0.8001709-3.3372135-1.609314-4.6886377c-0.3810425-0.6364079-1.1436157-0.9287529-1.8660889-0.7607241
	l-5.2207642,1.2142048c-0.8151245,0.1895781-1.3837891,0.9208851-1.3314209,1.7561302
	c0.0767212,1.2241478,0.2929077,3.1436996,0.8847656,5.4196243C605.468689,22.2609425,606.5367432,22.8288097,607.4997559,22.462389
	z"/>
<path class="st11" d="M601.5379028,80.465477c-3.2871094-0.5858231-13.8345947-1.4634552-27.4154053,7.5229721
	c-0.4606323,0.3048019-1.0854492,0.2131271-1.4168091-0.228775l-5.0136108-6.6857224
	c-0.3739014-0.4986343-0.2404785-1.205246,0.2952271-1.5237198c4.0634766-2.4154205,20.0009155-11.1868744,34.8051758-9.6652374
	c0.5805054,0.0596619,0.9985962,0.6003418,0.9315186,1.1800461l-0.9817505,8.4881973
	C602.6734619,80.1477509,602.1271362,80.5704803,601.5379028,80.465477z"/>
<path class="st11" d="M699.6465454,12.0113611l-0.4415283-5.0763903c-0.0349121-0.4012408-0.3389282-0.7166862-0.7370605-0.7774448
	c-2.5230713-0.3850226-10.0479126,0.0294275-14.302002,5.581831c-3.7710571,4.9220123-8.840271,8.0564785-11.2565308,8.4260311
	c-0.5101318,0.0780258-0.7609253,0.6623669-0.5031738,1.169939c0.7349243,1.4473419,2.0831299,4.0762806,3.0942993,5.8979797
	c0.2122192,0.3823357,0.644165,0.5571594,1.0054932,0.4029713c2.3321533-0.9951992,6.9967041-3.8267555,11.1188354-9.5618362
	c2.9546509-4.1107473,8.489502-6.0293436,11.0848389-5.2515564
	C699.2289429,12.978488,699.6955566,12.5747509,699.6465454,12.0113611z"/>
<path class="st2" d="M47.1609383,236.053299l3.7787743-4.7454071c0.2986755-0.3750763,0.807869-0.4879456,1.2428284-0.2861938
	c2.7563438,1.2784271,9.9485931,6.6416321,10.514801,14.9494171c0.5019264,7.364563,3.4680176,13.8100739,5.6218491,15.7667999
	c0.4547577,0.413147,0.3189697,1.1578674-0.2707443,1.4917908c-1.6815643,0.952179-4.7491112,2.6729431-6.951107,3.8146973
	c-0.4621506,0.239624-1.0056648,0.1288452-1.2626534-0.2619324c-1.6586838-2.5220642-4.4226952-8.4007874-4.7378235-16.8029785
	c-0.225872-6.0224609-4.4540482-11.568222-7.5406113-12.5046082
	C46.9387627,237.2875519,46.7415581,236.5799561,47.1609383,236.053299z"/>
<path class="st12" d="M837.8899536,35.7570534l-1.2164917-6.5596981c-0.0961914-0.5184822-0.5322266-0.8911724-1.0587158-0.9200706
	c-3.3366089-0.1831284-13.0905762,1.3072701-17.9331665,9.0802975
	c-4.2928467,6.8905182-10.5030518,11.6154747-13.6052246,12.4022102c-0.6549683,0.1661072-0.907959,0.9592781-0.5079956,1.5881882
	c1.1405029,1.7933426,3.2294922,5.0490685,4.7772827,7.295372c0.3248901,0.4714546,0.90979,0.6447372,1.3612061,0.3981667
	c2.9135742-1.5914497,8.6347656-5.8705559,13.2823486-13.8649826c3.3312988-5.7301865,10.3019409-8.9294472,13.7824097-8.2436066
	C837.4678955,37.070137,838.0249634,36.4850655,837.8899536,35.7570534z"/>
<path class="st5" d="M912.8887939,173.819458c2.3833008,0.8954468,8.8508301,4.1133728,5.2696533,11.7364807
	c-0.12146,0.2585602,0.3084106,0.4355316,0.9993286,0.3941193l10.4533691-0.6266174
	c0.7796021-0.0467224,1.5427246-0.3343048,1.6415405-0.6226349c0.7497559-2.1868286,2.8635864-10.5224609-6.5552979-14.9393768
	c-0.3693237-0.1732025-1.2211914-0.1267395-1.8690796,0.095047l-9.486145,3.2472992
	C912.6777344,173.3312225,912.4616089,173.6589508,912.8887939,173.819458z"/>
<path class="st13" d="M933.1811523,221.1551819c1.4527588-1.7375641,3.6751709-4.3787231,5.2854004-6.2153473
	c0.274231-0.3128204,0.6627197-0.4685822,1.0782471-0.4483032c2.3860474,0.1164398,4.7957153,0.3599854,6.9859619,1.2955475
	c2.3915405,1.0215454,4.5102539,3.0194397,5.0186768,5.5698242c0.9445801,4.7382812-3.6775513,9.9733887-1.1273193,14.0770264
	c2.2693481,3.6516418,8.2832031,2.868576,11.0402222,6.1675568c1.6153564,1.9328613,1.6300659,4.7483521,1.0991211,7.2107544
	s-2.0996094,4.3931122-2.2217407,6.9091339c-0.0884399,1.8209839,1.0095215,4.2576294,2.1899414,5.5722046
	c0.6015625,0.6699524,0.3106689,1.7200317-0.5128174,2.0841064c-3.7683716,1.6660767-7.4365234,3.5721436-11.2237549,5.1930542
	c-0.6611938,0.2829895-1.4610596,0.0042725-1.7606812-0.6495361c-1.0787964-2.3540039-1.3257446-4.4998779-0.880127-7.0099792
	c0.5166626-2.9100647,1.3157959-6.0282593,0.0859985-8.7158356c-1.9471436-4.2553558-8.2179565-5.6557922-9.2418823-10.2220764
	c-0.9307861-4.1511383,3.2214355-8.101181,2.5521851-12.3024139c-0.355957-2.2343292-2.0668335-4.0661926-4.0558472-5.144455
	c-0.9765015-0.5293579-2.3915405-0.9216614-3.5791016-1.1839142
	C932.9266968,223.1246185,932.5328369,221.930542,933.1811523,221.1551819z"/>
<path class="st13" d="M1015.6576538,213.3434143l-0.5462036,6.1926117c-0.0431519,0.4894714,0.255188,0.9329376,0.7206421,1.0903931
	c2.949585,0.9977264,12.078186,2.0958557,18.3667603-3.672699c5.574707-5.1136169,12.329834-7.8042755,15.3112793-7.7357635
	c0.6293945,0.0144653,1.0546875-0.6343994,0.8526611-1.2988739c-0.5760498-1.8947754-1.6381836-5.3392334-2.4666748-7.7423553
	c-0.1738281-0.504364-0.6556396-0.806015-1.1224365-0.697403c-3.0130615,0.7009888-9.2178955,3.1135559-15.3867188,9.1295471
	c-4.4217529,4.3121033-11.4784546,5.4432068-14.4316406,3.9582672
	C1016.364502,212.2700653,1015.7182617,212.6561432,1015.6576538,213.3434143z"/>
<path class="st6" d="M888.3807983,41.4671021c-0.5062256,3.4337349-1.0894165,14.420311,8.6710815,28.2512512
	c0.3310547,0.4691086,0.255249,1.1211624-0.1935425,1.479248l-6.7905273,5.4176483
	c-0.5064087,0.4040604-1.244812,0.2874756-1.5924072-0.2592621c-2.6363525-4.1467819-12.2468872-20.4330978-11.1271973-35.8626862
	c0.0438843-0.6050339,0.5926514-1.056263,1.1970825-1.0046616l8.8501587,0.7555504
	C888.0153198,40.2971077,888.4715576,40.8516388,888.3807983,41.4671021z"/>
<path class="st5" d="M841.4620361,149.2362823c1.7147827,0.5853577,4.3309326,1.4692535,6.194458,2.0570068
	c0.3173828,0.1001129,0.6477051,0.0454102,0.9234619-0.1409302c1.5835571-1.0699768,3.1304321-2.2366943,4.2400513-3.7855988
	c1.2116089-1.6912537,1.8314209-3.937027,1.1205444-5.8922729c-1.3206177-3.6325836-6.6546021-5.2944946-6.6137085-9.1594849
	c0.036377-3.4392853,4.4743652-5.3998184,4.9906616-8.8003311c0.3024902-1.992363-0.8560181-3.9240112-2.2411499-5.3876953
	c-1.3851929-1.4636917-3.2593384-2.1330261-4.387146-3.8030624c-0.8162842-1.2086792-1.0767212-3.3308334-0.8150635-4.719841
	c0.1333618-0.7078552-0.5014648-1.305275-1.2157593-1.2124786c-3.2686768,0.4246368-6.5685425,0.6435471-9.8313599,1.1068878
	c-0.5697021,0.0808945-1.0010376,0.6035004-0.9345703,1.1750259c0.2392578,2.0576706,0.9609985,3.6277618,2.3076172,5.159462
	c1.5611572,1.7757797,3.4019165,3.5766602,3.6763306,5.9251404c0.4345093,3.7184448-3.2728882,7.2789383-2.0778809,10.8268356
	c1.0863647,3.2253265,5.5655518,4.2034149,6.8516235,7.3544312c0.68396,1.6758118,0.2741699,3.6387482-0.6386108,5.2017365
	c-0.4481201,0.767334-1.2530518,1.6229401-1.9564209,2.2952118
	C840.4706421,147.9949646,840.6968994,148.9750824,841.4620361,149.2362823z"/>
<path class="st2" d="M1005.2885132,252.4150696l-2.6962891-6.2079773c-0.3666382-0.8442688-1.2872925-1.3097992-2.1785889-1.0799103
	c-1.4537964,0.375-3.6107178,1.0440826-5.0484009,1.9976349c-0.677002,0.4490356-0.958313,1.2981415-0.7379761,2.0800934
	l1.5922241,5.6504974c0.2485962,0.8822327,1.0774536,1.4674683,1.9886475,1.367981
	c1.3353882-0.145813,3.4246216-0.4793549,5.8847046-1.2419128
	C1005.1707153,254.6473846,1005.7380371,253.4501343,1005.2885132,252.4150696z"/>
<path class="st12" d="M866.1544189,189.9537048l2.942627,6.0950775c0.4001465,0.8289032,1.3386841,1.2572174,2.2200928,0.9918213
	c1.4376221-0.4328918,3.56604-1.1877747,4.9643555-2.1981049c0.6585083-0.4757843,0.9055786-1.3354645,0.6541138-2.1079712
	l-1.8171387-5.5822296c-0.2836914-0.8715668-1.1353149-1.4231567-2.041748-1.2872772
	c-1.3285522,0.1991577-3.40271,0.6160583-5.8303223,1.4764709
	C866.1827393,187.7184753,865.6638184,188.9374695,866.1544189,189.9537048z"/>
<path class="st0" d="M1078.4941406,134.3441925l1.8370361-5.5913696c0.2497559-0.7604141,1.0096436-1.2372894,1.7998047-1.1096649
	c1.2888184,0.208168,3.210083,0.614624,4.53125,1.3250275c0.6221924,0.334549,0.9338379,1.0471954,0.8057861,1.7419281
	l-0.9257812,5.0201721c-0.1445312,0.7838287-0.8153076,1.3569794-1.6121826,1.3438721
	c-1.1679688-0.0192108-3.0037842-0.1405487-5.1949463-0.6036377
	C1078.7750244,136.2676392,1078.1878662,135.2764435,1078.4941406,134.3441925z"/>
<path class="st13" d="M269.6079407,134.751236l2.4069519-6.3257599c0.3273315-0.8602829,1.2255249-1.3677979,2.1264648-1.1792603
	c1.469574,0.3075256,3.6550598,0.8763885,5.1351929,1.7625885c0.696991,0.4173279,1.0171814,1.252533,0.8331604,2.0438232
	l-1.329834,5.7179413c-0.2076416,0.8927612-1.008606,1.5156097-1.9234009,1.4582672
	c-1.3407288-0.0840454-3.4430847-0.3208466-5.9357605-0.9690704
	C269.8285522,136.9757385,269.206604,135.8059387,269.6079407,134.751236z"/>
<path class="st13" d="M954.7471313,66.0654297l-5.2218018,2.3160095c-0.710144,0.3149719-1.6079712-0.0065231-2.112915-0.7753983
	c-0.8236694-1.2541428-1.9853516-3.1906128-2.4880371-4.8226509c-0.2366943-0.7685547,0.0194702-1.5333824,0.5931396-1.9073105
	l4.1456299-2.7020683c0.6472778-0.4218826,1.5444336-0.2441444,2.1331787,0.4507446
	c0.862915,1.0184402,2.1564331,2.6826286,3.4817505,4.8909225
	C955.8587646,64.4832306,955.6177979,65.6792755,954.7471313,66.0654297z"/>
<path class="st2" d="M1107.7799072,231.041687c-1.6937256-2.0379639-6.4373779-8.9702911-5.5657959-21.8653107
	c0.029541-0.4373779-0.2788086-0.8324585-0.7137451-0.8876953l-6.5794678-0.8358307
	c-0.4907227-0.0623322-0.9257812,0.3069153-0.9353027,0.8014832c-0.0722656,3.7509918,0.1291504,18.1875305,6.9870605,27.8039246
	c0.2689209,0.3770905,0.8060303,0.4533844,1.1795654,0.1796875l5.4708252-4.0074921
	C1108.0062256,231.9497681,1108.0834961,231.4069672,1107.7799072,231.041687z"/>
<path class="st7" d="M971.1220703,130.6802673c-3.4032593,0.6815491-14.34552,1.8269958-28.6585083-7.2118912
	c-0.4854126-0.3065796-1.1327515-0.1974792-1.4673462,0.269104l-5.062561,7.0591812
	c-0.3775635,0.5264893-0.2233276,1.2579041,0.3405151,1.5770264c4.2764282,2.4203949,21.0338745,11.1837158,36.3858032,9.2748108
	c0.6019897-0.0748444,1.0244751-0.6459961,0.9420166-1.246994l-1.2081299-8.7998047
	C972.3092651,130.9853516,971.7320557,130.5581055,971.1220703,130.6802673z"/>
<path class="st7" d="M851.0959473,221.3889923c-2.9065552,1.8970947-11.519104,8.7431488-15.4048462,25.2192841
	c-0.1317749,0.5588379-0.6702271,0.9343109-1.2358398,0.8356323l-8.5576172-1.4930267
	c-0.6382446-0.1113586-1.0403442-0.7414703-0.8613892-1.364151c1.3572388-4.722702,7.1807251-22.7142029,19.4755859-32.103714
	c0.4821167-0.3681946,1.1837158-0.2564392,1.5457153,0.2303314l5.3008423,7.1272278
	C851.7296753,220.3397675,851.6168823,221.0489655,851.0959473,221.3889923z"/>
<path class="st13" d="M1011.5999146,67.9655304c0.944397,1.5463257,2.3910522,3.8984528,3.4483643,5.541748
	c0.1800537,0.279892,0.4690552,0.4489822,0.8002319,0.481987c1.9016724,0.1895142,3.8370972,0.28125,5.680542-0.2004776
	c2.0128784-0.526001,3.9251709-1.85672,4.628418-3.8146896c1.3067627-3.6376343-1.7325439-8.3254814,0.7696533-11.2714272
	c2.2266846-2.6214714,6.8927002-1.2920036,9.463501-3.5768585c1.5063477-1.3386993,1.8503418-3.5647011,1.7208252-5.5757332
	c-0.1293945-2.0110359-1.1427002-3.7238503-0.9423828-5.7290649c0.1450195-1.4512672,1.3013916-3.2496452,2.390625-4.1504784
	c0.5550537-0.4590797,0.4487305-1.3242912-0.15979-1.7095718c-2.7850342-1.763073-5.4625244-3.7042389-8.2678223-5.4338074
	c-0.4897461-0.3019638-1.1555176-0.1758461-1.4697266,0.3061295c-1.1314697,1.7352524-1.5802002,3.4040108-1.5238037,5.4426994
	c0.0651855,2.3635635,0.3294678,4.9251404-0.9608154,6.9065132c-2.0429688,3.1371765-7.1700439,3.5050697-8.519165,6.9972534
	c-1.2265015,3.1746826,1.5926514,6.7902489,0.5671997,10.0354614c-0.5453491,1.7258835-2.1153564,2.9733849-3.8164062,3.5917625
	c-0.835144,0.3035889-2.0010986,0.4469757-2.9717407,0.5142899
	C1011.6310425,66.3772049,1011.1784668,67.2755127,1011.5999146,67.9655304z"/>
<path class="st12" d="M1040.480957,154.5084686l-4.5197754,1.0954285c-0.3572998,0.0865784-0.7186279-0.08461-0.887085-0.4113464
	c-1.0673828-2.0705109-2.8988037-8.7005463,0.6662598-13.99646c3.1602783-4.6946411,4.3964844-9.9920044,4.0129395-12.1897583
	c-0.0809326-0.4640198,0.3515625-0.8509979,0.8656006-0.7757721c1.4659424,0.2145386,4.1325684,0.6156921,6.0026855,0.9602509
	c0.3924561,0.0723267,0.6694336,0.3950653,0.6412354,0.7525024c-0.182251,2.3070984-1.2741699,7.1662598-5.0356445,12.4012299
	c-2.6960449,3.7522736-2.7449951,9.098587-1.3167725,11.1173401
	C1041.1960449,153.8657532,1040.982666,154.3869019,1040.480957,154.5084686z"/>
<path class="st12" d="M328.3005066,21.4738197l-0.9125977-6.60884c-0.072113-0.5223665-0.4904785-0.9147758-1.0151367-0.9679356
	c-3.324585-0.3368731-13.1369019,0.7019224-18.3329773,8.2432489c-4.6061401,6.6851234-11.027771,11.1185265-14.1629333,11.7613029
	c-0.6619568,0.1357155-0.9512634,0.9163666-0.580719,1.5630608c1.0565796,1.8440514,2.9930725,5.192688,4.4356079,7.5080147
	c0.3027649,0.4859352,0.8790894,0.6860199,1.3413696,0.4605408c2.9839172-1.4553299,8.8964233-5.4659233,13.9079285-13.2374134
	c3.5921326-5.5703888,10.7029114-8.4446392,14.1480103-7.5989552
	C327.8182678,22.7660294,328.4017639,22.2072849,328.3005066,21.4738197z"/>
<path class="st5" d="M396.8497314,162.849411c2.3394165,1.0044556,8.6516113,4.517334,4.7225647,11.9671173
	c-0.1332703,0.2526703,0.2879639,0.449295,0.9800415,0.4397888l10.4711609-0.1436462
	c0.7809753-0.0107269,1.556488-0.2627869,1.6685486-0.5462494c0.849823-2.1499176,3.3460083-10.3791351-5.8591003-15.2259064
	c-0.3609619-0.1900635-1.2140503-0.1829529-1.87146,0.0086975l-9.625885,2.8061981
	C396.6614075,162.3519592,396.4303894,162.6693726,396.8497314,162.849411z"/>
<path class="st7" d="M425.5050659,254.4939575c-2.2627869,0.0970764-5.711853,0.2342072-8.1539307,0.2816772
	c-0.4159546,0.0080872-0.7927551-0.1740417-1.0577393-0.4947662c-1.5215149-1.8416901-2.9650269-3.7864838-3.7492676-6.0353241
	c-0.8563538-2.4555359-0.8074341-5.3672791,0.7347107-7.4612579c2.8651123-3.8903351,9.8478088-4.0017395,11.1621399-8.6510468
	c1.1695557-4.137207-3.4608459-8.0537415-2.8804626-12.3137512c0.3400269-2.4959412,2.4107056-4.4036865,4.5880737-5.6703339
	s4.6609802-1.4082031,6.6025696-3.0130615c1.4052124-1.1615143,2.466095-3.6145172,2.6422729-5.3725128
	c0.0897827-0.8958893,1.0617676-1.3883972,1.8856506-1.0251465c3.7700195,1.6622467,7.6499329,3.0887756,11.399292,4.7953644
	c0.6546021,0.2979584,0.9875183,1.076828,0.7062378,1.7387543c-1.0127563,2.3831635-2.4320984,4.0113983-4.5872498,5.3731995
	c-2.4985657,1.5788116-5.341217,3.0890961-6.4987488,5.8085785c-1.8327637,4.3058624,1.3571777,9.8833618-1.3273621,13.7164612
	c-2.4404602,3.4845886-8.1569214,3.0774689-10.8106689,6.4025269c-1.4113159,1.7683411-1.6123352,4.2668457-1.0690613,6.46315
	c0.2666931,1.0782623,0.9301453,2.3882446,1.5364685,3.4425201
	C427.1318359,253.3550873,426.514801,254.4506226,425.5050659,254.4939575z"/>
<path class="st13" d="M525.6870728,204.9585266l-0.8313599,6.1608124c-0.0657349,0.4869537,0.211853,0.9437256,0.6695557,1.122467
	c2.9003906,1.1327515,11.9685669,2.6508789,18.5166626-2.8213806c5.8046875-4.8509827,12.6767578-7.2271118,15.6517944-7.0211334
	c0.6281738,0.0435028,1.0828247-0.5850525,0.9117432-1.2581482c-0.4879761-1.9193268-1.3900757-5.4091187-2.1068115-7.8479156
	c-0.1504517-0.5118561-0.6177979-0.8354034-1.0891724-0.7484436c-3.0421753,0.5612335-9.3516235,2.6849518-15.7915039,8.4099426
	c-4.6159668,4.1035004-11.7172852,4.9078217-14.5988159,3.288208
	C526.442688,203.9189148,525.7792969,204.2747803,525.6870728,204.9585266z"/>
<path class="st13" d="M375.2128296,39.0276489c-0.6641541,3.4067192-1.7536011,14.3546906,7.3583679,28.6212158
	c0.309082,0.4838867,0.2032776,1.131752-0.2615662,1.4687424l-7.0332031,5.0985947
	c-0.5245667,0.3802643-1.2567444,0.229744-1.5787659-0.3324585c-2.4422302-4.2639923-11.2911377-20.976368-9.4607849-36.3378677
	c0.0717468-0.6023674,0.6407471-1.0277977,1.242157-0.9483643l8.8058777,1.1630669
	C374.9016724,37.8420372,375.3318481,38.4170303,375.2128296,39.0276489z"/>
<path class="st5" d="M333.4959412,96.912178c-1.6859131-0.6638489-4.2584839-1.667511-6.0929565-2.3406067
	c-0.312439-0.1146469-0.644928-0.0752411-0.9289856,0.098175c-1.6311951,0.9957809-3.2302856,2.0898819-4.4101868,3.5859375
	c-1.2883301,1.6335602-2.0110779,3.8483429-1.3912048,5.8343048c1.1516418,3.6896515,6.4032593,5.5958786,6.184082,9.4548645
	c-0.1950073,3.4339523-4.718689,5.187645-5.3913269,8.5607147c-0.394104,1.9762802,0.6740417,3.9593201,1.9902039,5.4853516
	c1.3161316,1.5260391,3.1574097,2.2811356,4.2070007,4.0014267c0.7596436,1.2450562,0.921875,3.3769684,0.596405,4.7524109
	c-0.165863,0.7009583,0.4407043,1.3270264,1.1585083,1.2672882c3.2848206-0.2733765,6.5912476-0.3398132,9.8720093-0.6521301
	c0.5727844-0.0545197,1.027771-0.5566711,0.9877625-1.130661c-0.1440735-2.0665131-0.7926025-3.6682281-2.0671082-5.2604218
	c-1.4775696-1.8459167-3.2332764-3.729805-3.3990479-6.0884552c-0.2625122-3.73452,3.6051941-7.1201782,2.5751648-10.7194366
	c-0.9364014-3.2720108-5.3656921-4.4557037-6.5050049-7.6627121c-0.605896-1.705574-0.1060181-3.647522,0.8779297-5.1667252
	c0.4830322-0.7458496,1.3265686-1.5634155,2.0601807-2.202507C334.4290161,98.1979065,334.24823,97.2084045,333.4959412,96.912178z"
	/>
<path class="st12" d="M492.8101196,248.3237915l-2.4069824-6.3257599c-0.3273315-0.8602905-1.2255249-1.3677979-2.1264648-1.1792603
	c-1.469574,0.3075256-3.6550293,0.8763885-5.1351624,1.7625885c-0.6970215,0.4173279-1.0172119,1.252533-0.8331909,2.0438232
	l1.3298645,5.7179413c0.2076111,0.8927612,1.0085754,1.5156097,1.9233704,1.4582672
	c1.3407288-0.0840454,3.4430847-0.3208466,5.935791-0.9690704
	C492.5894775,250.5482941,493.2114258,249.3784943,492.8101196,248.3237915z"/>
<path class="st7" d="M349.4207458,176.8103027l2.6582642,6.22435c0.3615112,0.8464966,1.2792969,1.3176422,2.1719666,1.0932007
	c1.4560547-0.3661041,3.6170349-1.0219879,5.0604858-1.9667358c0.6797791-0.4448853,0.9662476-1.2922516,0.7507019-2.075531
	l-1.5576477-5.660141c-0.2432251-0.883728-1.0684509-1.4740143-1.9802246-1.3800964
	c-1.3363037,0.1376495-3.4274902,0.4584045-5.8922424,1.2059021
	C349.5521545,174.5787506,348.9775391,175.7725067,349.4207458,176.8103027z"/>
<path class="st12" d="M440.3466492,53.9552612l-5.3231201,2.0726242c-0.723938,0.2818718-1.6059265-0.0806961-2.0748901-0.8720512
	c-0.7649231-1.2908096-1.8359985-3.2788124-2.2628784-4.9323082c-0.2010193-0.778656,0.0901794-1.5308495,0.6805115-1.8779106
	l4.2658691-2.5079269c0.6660461-0.391571,1.5540466-0.1726303,2.1101379,0.5486832
	c0.8149719,1.0571671,2.030365,2.7792625,3.2523804,5.0463524C441.5300598,52.426033,441.2341614,53.6096878,440.3466492,53.9552612
	z"/>
<path class="st6" d="M426.1483459,125.3548584c3.4310913-0.5238113,14.4145508-1.1631851,28.2952271,8.5264282
	c0.4707947,0.3286438,1.122467,0.249527,1.478241-0.2011261l5.382843-6.8181
	c0.4014587-0.5085068,0.2810974-1.2462616-0.267395-1.5910568c-4.1602173-2.6151047-20.4954834-12.1422348-35.9191284-10.9436569
	c-0.6048279,0.0470047-1.0532227,0.598053-0.9985352,1.2022095l0.8008118,8.8461838
	C424.9765015,124.9953232,425.5333557,125.4487381,426.1483459,125.3548584z"/>
<path class="st12" d="M304.8407288,213.1185455c3.3601074,0.8697205,14.2217407,2.6218414,29.0151367-5.607193
	c0.50177-0.2790985,1.1420288-0.1341858,1.4501648,0.3502808l4.6622009,7.3297729
	c0.3477173,0.5466766,0.1530151,1.2683716-0.4277039,1.5556488c-4.4043884,2.1788635-21.6231689,9.9968262-36.8452148,7.2372284
	c-0.5968933-0.1082001-0.9869995-0.7019653-0.8712158-1.2974396l1.6955566-8.7190247
	C303.6383972,213.3571472,304.2384644,212.9626465,304.8407288,213.1185455z"/>
<path class="st13" d="M489.7541199,67.8753128c0.8720398,1.5882492,2.2086792,4.0046234,3.1890259,5.6949387
	c0.1669617,0.2879028,0.4478455,0.4701538,0.7771301,0.5184021c1.8909302,0.2770462,3.8200378,0.4579773,5.6837463,0.0618134
	c2.0350037-0.4325714,4.0066223-1.673645,4.79953-3.597084c1.473114-3.5734787-1.3466492-8.396553,1.2888489-11.2239189
	c2.3452148-2.5159492,6.9449158-0.9726219,9.6184998-3.1364326c1.5664062-1.2677765,2.0127563-3.4755363,1.9761963-5.4904022
	c-0.036499-2.0148659-0.9696655-3.7726059-0.677063-5.7664413c0.211792-1.4430351,1.4498901-3.186142,2.5794678-4.0357666
	c0.5756836-0.4329834,0.5094604-1.3021736-0.0806885-1.7151222c-2.7007446-1.8896904-5.2857666-3.9523163-8.0082397-5.8094673
	c-0.4753113-0.3242416-1.1462097-0.2289734-1.4823914,0.2379875c-1.2102966,1.6812057-1.7355042,3.3274841-1.7733154,5.3666
	c-0.0437927,2.3640594,0.1019592,4.9350967-1.2783813,6.8548317c-2.1855164,3.0395813-7.3240967,3.170536-8.8329163,6.596756
	c-1.3716736,3.1147156,1.2776489,6.8564987,0.1035767,10.0509453c-0.6243896,1.6988869-2.2502441,2.8726234-3.9780579,3.4118614
	c-0.8482666,0.2647324-2.0195618,0.3541794-2.9922485,0.3766327
	C489.8585205,66.2901154,489.3649902,67.1665878,489.7541199,67.8753128z"/>
<path class="st12" d="M533.3936157,146.3529968l-2.8244629,3.6947479c-0.2232666,0.292038-0.6118774,0.3862762-0.9483032,0.2382355
	c-2.1322021-0.9381256-7.7265015-4.9400177-8.2865601-11.2994843c-0.49646-5.6374359-2.8677979-10.5330505-4.5484009-12.0002441
	c-0.3548584-0.3097839-0.262085-0.8826752,0.1848755-1.147583c1.2745361-0.7553635,3.5997314-2.120903,5.2703247-3.0294724
	c0.3505859-0.1906891,0.7688599-0.1139984,0.9718018,0.1816177c1.3096313,1.9080429,3.5175171,6.3722687,3.8864746,12.8079071
	c0.2645264,4.6128845,3.5895996,8.7996674,5.9697266,9.4705963
	C533.5452271,145.4035492,533.7070923,145.9429474,533.3936157,146.3529968z"/>
<path class="st3" d="M1158.9300537,144.342453l-2.824585,3.6947632c-0.2232666,0.292038-0.6118164,0.3862762-0.9482422,0.2382355
	c-2.1322021-0.9381409-7.7265625-4.940033-8.2866211-11.2994843c-0.4963379-5.6374512-2.8676758-10.5330582-4.5483398-12.0002518
	c-0.3548584-0.3097839-0.262085-0.8826752,0.1849365-1.1475754c1.2744141-0.7553711,3.5997314-2.1209106,5.2702637-3.0294724
	c0.3505859-0.1906891,0.7689209-0.114006,0.9718018,0.1816101c1.3096924,1.9080505,3.5174561,6.372261,3.8864746,12.8078995
	c0.2645264,4.6128998,3.5895996,8.7996674,5.9697266,9.4706116
	C1159.081543,143.3930206,1159.2435303,143.9324036,1158.9300537,144.342453z"/>
<path class="st7" d="M353.2055359,247.0575256l2.8970642-3.6381531c0.2290039-0.2875519,0.6193848-0.3740845,0.9528503-0.2194061
	c2.1131897,0.9801178,7.6272583,5.0919189,8.0613403,11.4612122c0.3847961,5.6461639,2.6588135,10.5877228,4.3100891,12.0879059
	c0.3486328,0.3167419,0.2445374,0.8876648-0.2075806,1.1436768c-1.2891846,0.730011-3.6409912,2.0492859-5.3291626,2.9246216
	c-0.3543396,0.1837158-0.7710266,0.0987549-0.9680481-0.2008057c-1.2716675-1.9335938-3.3907166-6.4406128-3.6323242-12.8822937
	c-0.1731873-4.6172333-3.4147644-8.8689728-5.7811279-9.5868683
	C353.0352173,248.0037842,352.8840332,247.4613037,353.2055359,247.0575256z"/>
<path class="st1" d="M745.470459,126.578598c0.713562,2.9325714,2.0991211,12.3986969-5.2435303,25.156723
	c-0.2490234,0.432724-0.1311646,0.9912415,0.2861938,1.2653198l6.3138428,4.1466675
	c0.4708862,0.3092651,1.1008911,0.1491394,1.3580322-0.3521271c1.9503174-3.8018494,8.9663696-18.6738892,6.7601929-31.9440536
	c-0.0865479-0.5203629-0.5978394-0.8670807-1.1170654-0.7739563l-7.602478,1.3635712
	C745.6931763,125.5362473,745.3425903,126.0529633,745.470459,126.578598z"/>
<path class="st0" d="M616.598877,160.5275421l4.6288452,1.8022919c0.6294556,0.2451019,1.3964233-0.0701752,1.8041992-0.758316
	c0.6651611-1.1224365,1.5965576-2.8511353,1.9677124-4.2889557c0.1748047-0.6770935-0.0783691-1.3311768-0.5917358-1.6329651
	l-3.7094116-2.1808167c-0.5792236-0.3404846-1.3513794-0.150116-1.8348999,0.4771271
	c-0.7086792,0.9192657-1.765564,2.416748-2.828186,4.3881226
	C615.5698242,159.1977844,615.8271484,160.2270508,616.598877,160.5275421z"/>
<path class="st2" d="M652.4296875,128.80867l3.1990967,3.6492004c0.2528687,0.2884369,0.6640015,0.359375,1.0039673,0.1817169
	c2.1542358-1.1258392,7.6988525-5.6835709,7.8371582-12.3437729c0.1226196-5.9040451,2.2490845-11.1668549,3.8962402-12.8119354
	c0.3477783-0.3473358,0.2111206-0.9373093-0.2727661-1.1818466c-1.3797607-0.6973038-3.8961182-1.956398-5.6989136-2.7855072
	c-0.3783569-0.1740112-0.8084717-0.0649261-0.9990845,0.2570496c-1.2301025,2.0781174-3.2165527,6.8803558-3.1506348,13.606514
	c0.0472412,4.8211212-3.1218262,9.4126511-5.5529175,10.2776413
	C652.2055054,127.8307724,652.074646,128.4036713,652.4296875,128.80867z"/>
</svg>
