<?xml version="1.0" encoding="utf-8"?>
<!-- Generator: Adobe Illustrator 23.0.1, SVG Export Plug-In . SVG Version: 6.00 Build 0)  -->
<svg version="1.1" id="Layer_1" xmlns="http://www.w3.org/2000/svg" xmlns:xlink="http://www.w3.org/1999/xlink" x="0px" y="0px"
	 viewBox="0 0 302 224" style="enable-background:new 0 0 302 224;" xml:space="preserve">
<style type="text/css">
	.st0{fill:none;stroke:#FFFFFF;stroke-width:1.26;stroke-miterlimit:10;}
	.st1{fill:#F6E5EE;}
	.st2{fill:rgb(254, 246, 214);stroke:rgb(252, 209, 52);stroke-width:1.05;stroke-miterlimit:10;}
	.st3{fill:none;stroke:#FFFFFF;stroke-width:1.05;stroke-linecap:round;stroke-miterlimit:10;}
	.st4{fill:none;stroke:#FFFFFF;stroke-width:1.05;stroke-miterlimit:10;}
	.st5{fill:#00B0B9;stroke:#FFFFFF;stroke-width:1.05;stroke-miterlimit:10;}
	.st6{fill:#FFFFFF;stroke:#FFFFFF;stroke-width:1.05;stroke-miterlimit:10;}
	.st7{fill:none;stroke:#FFFFFF;stroke-width:1.89;stroke-miterlimit:10;}
	.st8{fill:none;stroke:#FBF4D1;stroke-width:0.5;stroke-linecap:round;stroke-miterlimit:10;stroke-dasharray:3.5;}
</style>
<g>
	<g>
		<path class="st0" d="M236.7207031,90.8804398c0,0-5.3039246,22.8569565-5.3039246,32.4622879"/>
		<path class="st0" d="M239.5249939,95.7594833c-1.4863434-1.1807556-3.5567322-5.0443039-3.1634216-7.5061035l0.0024261-0.0144348
			c-1.476593-0.0466843-2.9528809,0.6245651-3.9129028,1.7429581c-0.1724548,0.2008896-0.5088501,0.1180115-0.5485992-0.1437454
			c-0.135025-0.8893127,0.0736389-1.832016,0.5918732-2.5691757c0.4711151-0.6701431,1.0349884-1.2313385,1.7816467-1.5912933
			c0.2676392-0.1290207,0.2285156-0.5205307-0.061142-0.5866318c-0.7057953-0.1610641-1.7253571-0.3318939-2.8393402-0.3192749
			c-0.2781525,0.0031509-0.4220581-0.3329163-0.2305298-0.5346451c0.42836-0.4511642,1.0380096-0.7408066,1.6565704-0.8642502
			c0.646225-0.1289673,1.3086243-0.1032715,1.9674835-0.0408936c0.2630157,0.0249023,0.4379578-0.2660446,0.2952423-0.4883804
			c-0.5783691-0.9010925-1.4114838-1.6380844-2.3749084-2.1053085c-0.2691193-0.1305084-0.242218-0.5332413,0.0511932-0.5912323
			c1.5037994-0.2972183,3.158905,0.1662979,4.2490997,1.2529755l0.0184174,0.0212631
			c0.3803101-1.9749298,2.2938538-3.5108795,4.2872772-3.5533295c0.2428436-0.0051727,0.406723,0.257431,0.2854156,0.4678726
			c-0.6567078,1.1391678-0.8703918,2.5316772-0.5679626,3.8128204l0.1366119-0.0466919
			c2.0209503-0.2559204,4.1331482,0.6323929,5.4155426,2.2047958c0.1941223,0.2380219-0.0136261,0.5746536-0.3140564,0.5107956
			c-1.4303741-0.3040237-2.9834747-0.0293961-4.2133179,0.7634964c-0.1623688,0.1046829-0.1849518,0.3349991-0.0526123,0.4757538
			c0.756424,0.8045883,2.9602509,3.311821,3.206543,5.4560547c0.0350647,0.3051987-0.3489838,0.471962-0.5505066,0.240097
			c-1.0635376-1.2236404-2.3912201-2.2176132-3.8673248-2.8886185l-0.0135345,0.0225754
			c0.8431091,2.6611252,0.4125214,4.0604935-1.2212677,6.8720779L239.5249939,95.7594833z"/>
	</g>
	<g>
		<path class="st0" d="M211.4938202,90.8804398c0,0-6.8052826,25.7802277-6.4535828,37.0342255"/>
		<path class="st0" d="M214.2980957,95.7594833c-1.4863434-1.1807556-3.5567322-5.0443039-3.1634064-7.5061035l0.0024261-0.0144348
			c-1.4766083-0.0466843-2.9528809,0.6245651-3.9129181,1.7429581c-0.1724396,0.2008896-0.5088501,0.1180115-0.548584-0.1437454
			c-0.135025-0.8893127,0.0736389-1.832016,0.5918732-2.5691757c0.4711151-0.6701431,1.0349884-1.2313385,1.7816467-1.5912933
			c0.2676239-0.1290207,0.2285156-0.5205307-0.0611572-0.5866318c-0.70578-0.1610641-1.7253418-0.3318939-2.8393402-0.3192749
			c-0.2781525,0.0031509-0.4220581-0.3329163-0.2305298-0.5346451c0.42836-0.4511642,1.0380249-0.7408066,1.6565704-0.8642502
			c0.646225-0.1289673,1.3086243-0.1032715,1.9674988-0.0408936c0.2630157,0.0249023,0.4379425-0.2660446,0.2952271-0.4883804
			c-0.5783691-0.9010925-1.4114685-1.6380844-2.3749084-2.1053085c-0.269104-0.1305084-0.242218-0.5332413,0.0511932-0.5912323
			c1.5038147-0.2972183,3.158905,0.1662979,4.249115,1.2529755l0.0184021,0.0212631
			c0.3803253-1.9749298,2.2938538-3.5108795,4.2872925-3.5533295c0.2428436-0.0051727,0.406723,0.257431,0.2854004,0.4678726
			c-0.6566925,1.1391678-0.8703766,2.5316772-0.5679474,3.8128204l0.1366119-0.0466919
			c2.0209351-0.2559204,4.1331482,0.6323929,5.4155426,2.2047958c0.1941071,0.2380219-0.0136414,0.5746536-0.3140717,0.5107956
			c-1.4303589-0.3040237-2.9834595-0.0293961-4.2133179,0.7634964c-0.1623688,0.1046829-0.1849365,0.3349991-0.0526123,0.4757538
			c0.756424,0.8045883,2.9602509,3.311821,3.2065582,5.4560547c0.0350494,0.3051987-0.3489838,0.471962-0.5505219,0.240097
			c-1.0635223-1.2236404-2.3912048-2.2176132-3.8673096-2.8886185l-0.0135498,0.0225754
			c0.8431091,2.6611252,0.4125366,4.0604935-1.2212677,6.8720779L214.2980957,95.7594833z"/>
	</g>
	<g>
		<path class="st0" d="M191.4711456,90.8804398c0,0,5.4802704,21.098526,5.4802704,30.7038498"/>
		<path class="st0" d="M188.6668549,95.7594833c1.4863434-1.1807556,3.5567322-5.0443039,3.1634064-7.5061035l-0.0024109-0.0144348
			c1.476593-0.0466843,2.9528809,0.6245651,3.9129028,1.7429581c0.1724396,0.2008896,0.5088501,0.1180115,0.5485992-0.1437454
			c0.135025-0.8893127-0.0736389-1.832016-0.5918732-2.5691757c-0.4711304-0.6701431-1.0349884-1.2313385-1.7816467-1.5912933
			c-0.2676392-0.1290207-0.2285156-0.5205307,0.061142-0.5866318c0.70578-0.1610641,1.7253571-0.3318939,2.8393402-0.3192749
			c0.2781525,0.0031509,0.4220581-0.3329163,0.2305298-0.5346451c-0.42836-0.4511642-1.0380249-0.7408066-1.6565704-0.8642502
			c-0.646225-0.1289673-1.3086243-0.1032715-1.9674835-0.0408936c-0.263031,0.0249023-0.4379578-0.2660446-0.2952423-0.4883804
			c0.5783691-0.9010925,1.4114838-1.6380844,2.3749084-2.1053085c0.269104-0.1305084,0.242218-0.5332413-0.0511932-0.5912323
			c-1.5037994-0.2972183-3.158905,0.1662979-4.2490997,1.2529755l-0.0184174,0.0212631
			c-0.3803101-1.9749298-2.2938538-3.5108795-4.2872772-3.5533295c-0.2428589-0.0051727-0.4067383,0.257431-0.2854156,0.4678726
			c0.6567078,1.1391678,0.8703918,2.5316772,0.5679626,3.8128204l-0.1366119-0.0466919
			c-2.0209503-0.2559204-4.1331482,0.6323929-5.4155426,2.2047958c-0.1941223,0.2380219,0.0136261,0.5746536,0.3140564,0.5107956
			c1.4303589-0.3040237,2.9834595-0.0293961,4.2133179,0.7634964c0.1623688,0.1046829,0.1849365,0.3349991,0.0526123,0.4757538
			c-0.756424,0.8045883-2.9602509,3.311821-3.2065582,5.4560547c-0.0350494,0.3051987,0.348999,0.471962,0.5505219,0.240097
			c1.0635376-1.2236404,2.3912048-2.2176132,3.8673096-2.8886185l0.0135498,0.0225754
			c-0.8431091,2.6611252-0.4125366,4.0604935,1.2212677,6.8720779L188.6668549,95.7594833z"/>
	</g>
</g>
<g>
	<g>
		<g>
			<path class="st1" d="M232.9413147,4.4426417c0.1716766-0.1018982,0.0441437-0.3636293-0.1418304-0.2913389l-25.7041016,9.9915333
				c-0.1520233,0.0590887-0.132019,0.2803164,0.0280609,0.3112068l6.6879883,1.2891722
				c0.0389557,0.0075617,0.0794678,0.0005121,0.1136932-0.019803L232.9413147,4.4426417z"/>
			<path class="st1" d="M234.1800385,3.8053615l-0.2269897,0.1832886c-0.0476837-0.0494752-0.122345-0.0736361-0.1971893-0.0292237
				l-19.7785797,11.7330322c-0.0622864,0.0369787-0.0926666,0.1107426-0.0743408,0.1809177l2.1769104,8.3310423
				c0.0329437,0.1261234,0.1934814,0.1641273,0.2794189,0.0660744l0.0552368-0.062933
				c0.0437164,0.0084591,0.0897217,0.0055103,0.1309967-0.0287113l7.3648071-6.1082516
				c0.1059418-0.0879288,0.0615845-0.2594891-0.073761-0.2849312l-1.5350189-0.2886467l0.1147919-0.130867l6.6327972,1.0082169
				c0.0765228,0.0115986,0.1506042-0.0323009,0.1771393-0.1050396l5.2086029-14.2818327
				C234.4913177,3.8327906,234.3082123,3.7018611,234.1800385,3.8053615z"/>
		</g>
		<path class="st1" d="M233.2009277,1.2195185l-27.084671,10.3375397c-0.1520081,0.0590878-0.132019,0.2802515,0.0281372,0.3110781
			l6.687912,1.2893c0.039032,0.0074987,0.0794678,0.0004492,0.1136932-0.0198669l0.0521698-0.0308895
			c-0.0623016,0.0370417-0.0926666,0.1107416-0.0743408,0.1808529l2.1768951,8.3310432
			c0.0329437,0.1261234,0.1935425,0.1641254,0.2794952,0.0661373l0.0551758-0.062933
			c0.0437012,0.0083942,0.0897827,0.0054474,0.1309967-0.0287113l7.3648682-6.1083803
			c0.1058655-0.0877991,0.0615234-0.2594242-0.0738373-0.2848024l-1.5350037-0.2886477l0.1148376-0.1308651l6.6327362,1.0081511
			c0.0765228,0.0115995,0.1506042-0.0323,0.1771393-0.1050386l5.2086029-14.2817688
			C233.5122528,1.2468836,233.3291016,1.1160182,233.2009277,1.2195185z"/>
		<path class="st1" d="M236.5578613,1.4992579c0,0-1.1945801,0.2736511-1.3805542,0.3459412l-25.7041779,9.9915352
			c-0.1520081,0.0591516-0.132019,0.2803154,0.0281982,0.3112059l6.687851,1.2891722
			c0.039093,0.0075626,0.0795288,0.0005131,0.1136932-0.0197392l10.04953-5.9616208l-9.9972992,5.9306035
			c-0.0623627,0.0370417-0.0926666,0.1108055-0.0743408,0.1809168l2.1769104,8.3311062
			c0.0329285,0.1261234,0.1934662,0.1640625,0.27948,0.0660744l0.0551758-0.062933
			c0.0437775,0.0083942,0.0897827,0.0054474,0.1309357-0.0287762l7.3648682-6.1082516
			c0.1059875-0.0879269,0.0615234-0.2594233-0.0737-0.2849302l-1.535141-0.2885838l0.1148376-0.130929l6.6327362,1.008215
			c0.0765228,0.0116634,0.1506042-0.032299,0.1771393-0.1049738l5.208725-14.2818336
			C236.8691254,1.5266871,236.6860352,1.3957576,236.5578613,1.4992579z"/>
		<g>
			<path class="st2" d="M207.2633514,13.0212126l6.687912,1.2892342c0.0390472,0.0075283,0.0794983,0.0004797,0.1137085-0.0198107
				l19.0162048-11.2808037c0.1716614-0.1018336,0.0442047-0.3636384-0.1418304-0.2913241l-25.7041168,9.9915695
				C207.0832062,12.7691708,207.1031952,12.9903393,207.2633514,13.0212126z"/>
			<path class="st2" d="M214.0428314,14.4405775l2.1768799,8.3310633c0.0329437,0.1261234,0.1934967,0.1641006,0.2794647,0.0661049
				l17.6016846-20.0641003c0.1220093-0.139081-0.0460205-0.3414073-0.2051392-0.2470124l-19.7785492,11.7330389
				C214.0548248,14.2966547,214.0245056,14.3704453,214.0428314,14.4405775z"/>
			<path class="st2" d="M218.2846832,15.4367428l-1.8604126,7.1432343
				c-0.0397949,0.1527691,0.1395721,0.2668743,0.2610779,0.1660938l7.3648376-6.1082993
				c0.105957-0.0878792,0.0615387-0.2594471-0.0737457-0.2848835l-5.5044098-1.034934
				C218.3880768,15.3021679,218.3062134,15.3540678,218.2846832,15.4367428z"/>
			<path class="st2" d="M218.6099243,15.0581665l15.7099762-12.6855946
				c0.1281891-0.1035049,0.3112946,0.0273905,0.2548523,0.1821716l-5.2086639,14.2817945
				c-0.0265198,0.0727139-0.1006165,0.1166477-0.1771393,0.1050167l-10.5013275-1.5962019
				C218.5478821,15.3241129,218.4999542,15.1469641,218.6099243,15.0581665z"/>
		</g>
	</g>
	<g>
		<path class="st1" d="M266.2582092,27.4302902l-29.6348114-1.2746258c-0.1463776-0.006279-0.225708,0.1690617-0.1243286,0.2748699
			l4.0414581,4.2185841c0.0349884,0.0365295,0.0850983,0.0545387,0.1354065,0.0489635l-0.0795898,0.0092278l0.6173401,6.2761612
			c0.0183411,0.1863632,0.2854462,0.1990509,0.3213348,0.0151863l3.8914948-1.4823952l4.7701111,3.6334724
			c0.0545959,0.0415916,0.1293945,0.0444145,0.1870117,0.0070496l15.5139771-11.0978012
			c0.1013794-0.072546,0.3721313-0.3047981,0.3721313-0.3047981
			C266.468811,27.7313061,266.4582825,27.4388771,266.2582092,27.4302902z"/>
		<path class="st1" d="M269.3699341,26.6221123l-29.6347961-1.2746258
			c-0.1463776-0.0062809-0.2257233,0.1690617-0.1243286,0.2748699l4.0414429,4.2185841
			c0.0349884,0.0365295,0.0851135,0.0545387,0.1354218,0.0489635l-0.0796051,0.0092278l0.6173553,6.2761612
			c0.0183258,0.1863632,0.2854462,0.1990509,0.3213348,0.0151863l3.8914795-1.4823952l4.7701111,3.6334724
			c0.0546112,0.0415916,0.1293945,0.0444145,0.1870117,0.0070496l15.5139771-11.0978012
			c0.1013794-0.0725479,0.3721313-0.3047981,0.3721313-0.3047981
			C269.5805359,26.9231281,269.5700378,26.6306992,269.3699341,26.6221123z"/>
		<path class="st1" d="M267.8344727,24.8914566l-29.6348114-1.2746239c-0.1463776-0.0062809-0.225708,0.1690617-0.1243286,0.274868
			l4.0414429,4.218586c0.0350037,0.0365295,0.0851135,0.0545387,0.1354218,0.0489616l-0.0795898,0.0092297l0.6173401,6.2761593
			c0.0183258,0.1863632,0.2854462,0.1990547,0.3213348,0.0151901l3.8914795-1.4823952l4.7701263,3.6334724
			c0.0545959,0.0415916,0.1293945,0.0444107,0.1869965,0.0070496l15.5139618-11.097805
			c0.1014099-0.072546,0.3721619-0.3047962,0.3721619-0.3047962
			C268.0450745,25.1924744,268.0345459,24.9000454,267.8344727,24.8914566z"/>
		<g>
			<path class="st2" d="M237.4195862,25.2140236l4.0414429,4.2185555c0.0351715,0.0367012,0.0854797,0.0548458,0.1359711,0.0490379
				l25.5933075-2.943943c0.1990051-0.0228901,0.1885376-0.3152943-0.0115967-0.3239021l-29.6347656-1.2746143
				C237.3975677,24.9328613,237.318222,25.1082211,237.4195862,25.2140236z"/>
			<path class="st2" d="M243.4401398,32.0597382l-0.9846497,3.722393c-0.0358734,0.183857-0.3029938,0.1712036-0.3213196-0.0152206
				l-0.6173248-6.2760754"/>
			<line class="st2" x1="242.2520447" y1="35.9124794" x2="267.0061035" y2="26.3761578"/>
			<path class="st2" d="M243.4916382,32.124733l7.625473,5.8085098c0.0545959,0.0415878,0.129425,0.0444031,0.1869965,0.0070419
				l15.5140076-11.0977955c0.1444092-0.1033001,0.0423279-0.3302345-0.1307678-0.2906895l-23.1314545,5.2847061
				C243.4202118,31.8657475,243.3812256,32.0406265,243.4916382,32.124733z"/>
		</g>
	</g>
	<g>
		<line class="st3" x1="275.0429382" y1="9.4721889" x2="271.9395752" y2="14.8951817"/>
		<line class="st3" x1="280.1309509" y1="18.5968781" x2="276.9179688" y2="20.4683342"/>
		<line class="st3" x1="264.4467468" y1="10.2512341" x2="264.4585571" y2="13.3370323"/>
		<line class="st3" x1="285.4114075" y1="27.2732277" x2="279.1632996" y2="27.2971401"/>
		<line class="st3" x1="279.506073" y1="36.105751" x2="276.8277893" y2="34.5730782"/>
	</g>
</g>
<g>
	<g>
		<path class="st4" d="M59.4114456,209.8698425l-17.2876244,11.5072479
			c-0.1206856,0.0803375-0.283638,0.0476227-0.3639717-0.0730591l-11.5072536-17.2876282
			c-0.0803318-0.1206818-0.0476189-0.2836304,0.0730648-0.3639679l17.2876244-11.5072479
			c0.1206856-0.0803375,0.283638-0.0476227,0.3639717,0.0730591l11.5072517,17.2876282
			C59.5648422,209.6265564,59.5321312,209.789505,59.4114456,209.8698425z"/>
		<g>
			<g>
				<path class="st5" d="M51.976532,188.1672211l-6.4565811,21.9514618
					c-0.0409088,0.1390839,0.0386772,0.2850037,0.1777611,0.3259125l16.183567,4.7600708
					c0.0744133,0.0218811,0.1546936,0.0097351,0.2193069-0.0331726l7.7885361-5.1730804
					c0.0514374-0.0341644,0.08918-0.0853577,0.1065979-0.1445923l4.435997-15.0818176
					c0.0409088-0.1390839-0.038681-0.2850037-0.1777649-0.3259125l-21.9515152-6.4566193
					C52.163353,187.9485626,52.0174408,188.0281372,51.976532,188.1672211z"/>
			</g>
			<path class="st5" d="M62.0420914,215.336731l0.6717339-5.8515015c0.0165329-0.1440277,0.1466942-0.2473755,0.2907257-0.2308502
				l7.0189476,0.8057709"/>
			<line class="st6" x1="70.0234985" y1="210.0601501" x2="62.0420914" y2="215.336731"/>
			<line class="st6" x1="62.0420914" y1="215.336731" x2="70.0234985" y2="210.0601501"/>
		</g>
		<g>
			<line class="st3" x1="23.7211571" y1="205.3763123" x2="25.4739399" y2="205.2562103"/>
			<line class="st3" x1="23.3007851" y1="200.5956268" x2="25.9524403" y2="201.8935394"/>
			<line class="st3" x1="27.6513119" y1="198.0905304" x2="28.4649467" y2="199.3004456"/>
		</g>
	</g>
	<g>
		<g>
			<path class="st1" d="M59.5081291,211.2661896l-17.2876244,11.5072479
				c-0.1206818,0.0803375-0.283638,0.0476227-0.3639679-0.0730591l-11.5072556-17.2876282
				c-0.0803318-0.1206818-0.0476189-0.2836304,0.0730648-0.3639679l17.2876225-11.5072479
				c0.1206856-0.0803375,0.283638-0.0476227,0.3639717,0.0730591l11.5072556,17.2876282
				C59.6615257,211.0229034,59.6288147,211.1858521,59.5081291,211.2661896z"/>
			<g>
				<g>
					<path class="st1" d="M52.0732155,189.5635681l-6.4565811,21.9514618
						c-0.0409088,0.1390839,0.0386772,0.2849884,0.1777611,0.3258972l16.183567,4.7600861
						c0.0744133,0.0218811,0.1546974,0.0097351,0.2193069-0.0331726l7.7885399-5.1730957
						c0.0514297-0.0341492,0.08918-0.0853577,0.1065979-0.144577l4.4359894-15.0818176
						c0.0409088-0.1390839-0.0386734-0.2850037-0.1777573-0.3259125l-21.951519-6.4566345
						C52.2600365,189.3448944,52.1141243,189.4244843,52.0732155,189.5635681z"/>
				</g>
				<path class="st1" d="M62.1387787,216.733078l0.67173-5.8515015c0.0165329-0.1440277,0.146698-0.2473755,0.2907257-0.2308502
					l7.0189514,0.8057556"/>
				<line class="st1" x1="70.1201859" y1="211.4564819" x2="62.1387787" y2="216.733078"/>
				<line class="st1" x1="62.1387787" y1="216.733078" x2="70.1201859" y2="211.4564819"/>
			</g>
		</g>
		<g>
			<path class="st1" d="M61.4462395,209.1393127l-17.2876244,11.5072479
				c-0.1206856,0.0803375-0.283638,0.0476227-0.3639717-0.0730591l-11.5072517-17.2876282
				c-0.0803337-0.1206818-0.0476227-0.2836456,0.0730629-0.3639679l17.2876244-11.5072632
				c0.1206856-0.0803223,0.283638-0.0476074,0.3639717,0.0730743l11.5072517,17.2876129
				C61.5996361,208.8960266,61.5669212,209.0589752,61.4462395,209.1393127z"/>
			<g>
				<g>
					<path class="st1" d="M54.0113258,187.4366913l-6.4565811,21.9514618
						c-0.0409088,0.1390839,0.0386772,0.2849884,0.1777611,0.3258972l16.183567,4.7600708
						c0.0744133,0.0218964,0.1546974,0.0097504,0.2193031-0.0331573l7.7885437-5.1730957
						c0.0514297-0.0341644,0.0891724-0.0853577,0.1065979-0.1445923l4.4359894-15.0818176
						c0.0409088-0.1390839-0.0386734-0.2849884-0.1777573-0.3258972l-21.951519-6.4566345
						C54.1981468,187.2180176,54.0522346,187.2976074,54.0113258,187.4366913z"/>
				</g>
				<path class="st1" d="M64.076889,214.6062012l0.67173-5.8515015c0.0165329-0.1440277,0.146698-0.2473907,0.2907257-0.2308502
					l7.0189514,0.8057556"/>
				<line class="st1" x1="72.0582962" y1="209.3296051" x2="64.076889" y2="214.6062012"/>
				<line class="st1" x1="64.076889" y1="214.6062012" x2="72.0582962" y2="209.3296051"/>
			</g>
		</g>
		<g>
			<path class="st2" d="M59.7326126,209.7663879l-17.2876244,11.5072479
				c-0.1206856,0.0803375-0.283638,0.0476227-0.3639717-0.0730591l-11.5072536-17.2876282
				c-0.0803318-0.1206818-0.0476189-0.2836456,0.0730648-0.3639679l17.2876244-11.5072632
				c0.1206818-0.0803223,0.283638-0.0476074,0.3639679,0.0730743l11.5072556,17.2876129
				C59.8860092,209.5231018,59.8532944,209.6860504,59.7326126,209.7663879z"/>
			<g>
				<g>
					<path class="st2" d="M52.297699,188.0637665l-6.4565811,21.9514618
						c-0.0409088,0.1390839,0.0386772,0.2849884,0.1777611,0.3258972l16.183567,4.7600708
						c0.0744133,0.0218964,0.1546936,0.0097504,0.2193069-0.0331573l7.7885361-5.1730957
						c0.0514374-0.0341492,0.08918-0.0853577,0.1065979-0.1445923l4.435997-15.0818176
						c0.0409088-0.1390839-0.038681-0.2849884-0.1777649-0.3258972l-21.9515152-6.4566345
						C52.48452,187.8450928,52.3386078,187.9246826,52.297699,188.0637665z"/>
				</g>
				<path class="st2" d="M62.3632584,215.2332764l0.6717339-5.8515015c0.0165329-0.1440277,0.1466942-0.2473755,0.2907257-0.2308502
					l7.0189476,0.8057556"/>
				<line class="st2" x1="70.3446655" y1="209.9566803" x2="62.3632584" y2="215.2332764"/>
				<line class="st2" x1="62.3632584" y1="215.2332764" x2="70.3446655" y2="209.9566803"/>
			</g>
		</g>
	</g>
</g>
<path class="st7" d="M303.2114563,148.3071747h-40.558136c-0.1739807,0-0.3150024-0.141037-0.3150024-0.3150024v-2.7481384
	c0-0.1739807-0.1410217-0.3150024-0.3150024-0.3150024h-3.3111572c-0.1739807,0-0.3150024-0.141037-0.3150024-0.3150024v-13.1640625
	c0-0.1739655-0.1410217-0.3150024-0.3150024-0.3150024h-11.7565002c-0.1739655,0-0.3150024,0.141037-0.3150024,0.3150024v17.1052246
	c0,0.1739655-0.1410217,0.3150024-0.3150024,0.3150024h-4.7187042c-0.1739807,0-0.3150024-0.141037-0.3150024-0.3150024v-10.3489532
	c0-0.1739655-0.141037-0.3150024-0.3150024-0.3150024h-3.0296478c-0.1739807,0-0.3150024-0.1410217-0.3150024-0.3149872v-6.4077911
	c0-0.1739655-0.141037-0.3150024-0.3150024-0.3150024h-2.1851196c-0.1739655,0-0.3149872-0.1410217-0.3149872-0.3150024v-6.6892929
	c0-0.1739731-0.141037-0.3150024-0.3150024-0.3150024h-9.504425c-0.1739655,0-0.3149872-0.1410294-0.3149872-0.3150024v-6.9708099
	c0-0.1739655-0.141037-0.3149948-0.3150024-0.3149948h-11.7565155c-0.1739655,0-0.3149872,0.1410294-0.3149872,0.3149948v25.7526932
	c0,0.1741028-0.1412354,0.3151855-0.3153229,0.3150024l-6.0210876-0.0060425
	c-0.1927185-0.0001831-0.3400879-0.1718445-0.3110962-0.362381l1.9977875-13.1283875
	c0.0212097-0.139328-0.0556488-0.2756805-0.1843719-0.3330536c-7.2563934-3.2343369-11.7972107-7.3367538-14.3534241-13.1217499
	c-0.0480499-0.1087418-0.1538239-0.1831818-0.272522-0.189949c-15.8447723-0.9040298-26.3343506,10.54953-27.546814,11.9402008
	c-0.0741425,0.0850449-0.0951843,0.2021561-0.0579834,0.3086777l5.3782043,15.3977356
	c0.0715179,0.2047729-0.0804901,0.418869-0.2973938,0.418869h-7.5285187c-0.1739655,0-0.3150024-0.1410217-0.3150024-0.3150024
	v-2.466629c0-0.1739655-0.1410217-0.3149872-0.3150024-0.3149872h-3.3111572c-0.1739655,0-0.3150024-0.141037-0.3150024-0.3150024
	v-19.8089523c0-0.0919571-0.0401764-0.1793213-0.1100006-0.2391663l-1.7757568-1.5220795
	c-0.0548706-0.0470352-0.1242371-0.0737686-0.1964874-0.0757217l-10.2145386-0.2760696
	c-0.0586395-0.0015793-0.1165619,0.013237-0.1672363,0.0428009l-3.1443329,1.8341904
	c-0.0967712,0.0564575-0.1562805,0.1600571-0.1562805,0.2720947v17.8023224c0,0.1739655-0.141037,0.3150024-0.3150024,0.3150024
	h-4.7187195c-0.1739655,0-0.3150024-0.141037-0.3150024-0.3150024v-3.3111572c0-0.1739807-0.1410217-0.3150024-0.3150024-0.3150024
	h-5.0002289c-0.1739655,0-0.3150024-0.141037-0.3150024-0.3150024v-16.2606888c0-0.1739731-0.1410217-0.3150024-0.3149872-0.3150024
	h-3.5926819c-0.1739655,0-0.3149948-0.1410294-0.3149948-0.3150024V96.2610321c0-0.1739731-0.1410294-0.3150024-0.3150024-0.3150024
	h-4.1556931c-0.1739731,0-0.3150024-0.1410294-0.3150024-0.3149948v-8.941391c0-0.1739731-0.1410294-0.3150024-0.3150024-0.3150024
	h-5.5632477c-0.1739731,0-0.3150024,0.1410294-0.3150024,0.3150024v9.5044098c0,0.1739731-0.1410294,0.3150024-0.3150024,0.3150024
	h-4.7187119c-0.1739731,0-0.3150024,0.1410294-0.3150024,0.3149948v38.3516541c0,0.1125793-0.0600815,0.2165985-0.1575851,0.2728577
	l-6.6893005,3.8592072c-0.2099991,0.1211548-0.4724121-0.0304108-0.4724121-0.2728577v-29.5428391
	c0-0.1739731-0.1410294-0.3150024-0.3150024-0.3150024h-2.466629c-0.1739655,0-0.3149948-0.1410294-0.3149948-0.3150024v-4.7187119
	c0-0.1739731-0.1410294-0.3150024-0.3150024-0.3150024h-7.2523193c-0.1739731,0-0.3150024,0.1410294-0.3150024,0.3150024v4.1556931
	c0,0.1739655-0.1410294,0.3150024-0.3150024,0.3150024h-2.185112c-0.1739731,0-0.3150024,0.1410294-0.3150024,0.3149948v34.27742
	c0,0.1739807-0.1410294,0.3150024-0.3149948,0.3150024h-5.0002365c-0.1739655,0-0.3149948-0.1410217-0.3149948-0.3150024v-4.7187195
	c0-0.1739655-0.1410294-0.3149872-0.3150024-0.3149872h-7.5338287c-0.1739731,0-0.3150024-0.141037-0.3150024-0.3150024V92.8828964
	c0-0.1739731-0.1410294-0.3150024-0.3150024-0.3150024H60.2465591c-0.1739693,0-0.3149986,0.1410294-0.3149986,0.3150024v12.3195267
	c0,0.1739655-0.1410294,0.3149948-0.3149986,0.3149948h-8.096859c-0.1739693,0-0.3149986,0.141037-0.3149986,0.3150024v34.2774277
	c0,0.1739655-0.1410294,7.520752-0.3149986,7.520752H-1.2114429"/>
<path class="st8" d="M79.0343781,179.6664886c11.5569687-3.7180939,21.9439621-11.0293121,22.5409851-22.7735138
	c1.4754181-29.0234146,22.6226578-23.736496,36.8157043-15.2661133c6.0085602,3.585907,11.7898407,7.7505951,18.4475708,9.9037323
	c6.6577301,2.1531525,14.6172943,1.9146881,19.8823395-2.6940918c7.5083008-6.5724487,7.12854-19.4703369,15.1989288-25.3389587
	c5.6131439-4.0817719,13.4259491-3.2374954,19.9863129-0.9725494c6.5603485,2.2649536,12.7939148,5.7779541,19.6860657,6.5942688
	s14.996048-2.1482086,17.0366516-8.7817688c2.1304321-6.9255829-3.0534515-13.7116928-7.3231354-19.5659409
	c-6.3618317-8.7228317-23.6375885-28.943222-6.3160553-59.1321945"/>
<path class="st8" d="M206.6083984,34.6836967c-13.9937134,7.7066727-24.6564941,21.2420082-28.8727722,36.6510887
	c-2.579483,9.4271774-2.8189697,19.3472443-5.0262146,28.8684616s-6.9650269,19.1956024-15.6270294,23.7227783
	c-10.0782623,5.2673798-22.2536621,2.2220383-33.3736725-0.1574478s-42.2217102-6.6618118-50.4298172,1.2086105
	c-8.428688,8.0819244,14.0384674,22.3000031,15.4643478,33.8899536c0.7725525,6.27948-8.06987,20.3186646-11.8450317,22.7029877"/>
</svg>
