<?xml version="1.0" encoding="utf-8"?>
<!-- Generator: Adobe Illustrator 23.0.1, SVG Export Plug-In . SVG Version: 6.00 Build 0)  -->
<svg version="1.1" xmlns="http://www.w3.org/2000/svg" xmlns:xlink="http://www.w3.org/1999/xlink" x="0px" y="0px"
	 viewBox="0 0 70 70" style="enable-background:new 0 0 70 70;" xml:space="preserve">
<style type="text/css">
	.st0{display:none;}
	.st1{display:inline;}
	.st2{fill:none;stroke:#DEF4F5;stroke-width:2.8;stroke-linecap:round;stroke-miterlimit:10;}
	.st3{fill:#00B1B9;stroke:#DEF4F5;stroke-width:2.8;stroke-miterlimit:10;}
	.st4{fill:none;stroke:#DEF4F5;stroke-width:2.8508682;stroke-linecap:round;stroke-miterlimit:10;}
	.st5{fill:none;stroke:#DEF4F5;stroke-width:2.3092031;stroke-linecap:round;stroke-miterlimit:10;}
	.st6{fill:#FFFFFF;}
</style>
<g id="Layer_1" class="st0">
	<g class="st1">
		<g>
			<circle class="st2" cx="35.262043" cy="-118.1806412" r="8.3111763"/>
			<circle class="st2" cx="20.5599785" cy="-112.2322388" r="8.3111763"/>
			<circle class="st2" cx="14.3702011" cy="-97.6301575" r="8.3111763"/>
			<circle class="st2" cx="20.3185997" cy="-82.928093" r="8.3111763"/>
			<circle class="st2" cx="34.920681" cy="-76.7383194" r="8.3111763"/>
			<circle class="st2" cx="49.6227455" cy="-82.6867142" r="8.3111763"/>
			<circle class="st2" cx="55.8125229" cy="-97.2887955" r="8.3111763"/>
			<circle class="st2" cx="49.8641243" cy="-111.99086" r="8.3111763"/>
		</g>
		<path class="st2" d="M5.9024386-53.7944832c0,0-1.9469135,24.0747528,27.7651672,22.9377041
			C33.6676064-30.8567791,31.1546059-53.2914505,5.9024386-53.7944832z"/>
		<path class="st2" d="M59.0625153-55.8288612c0,0,4.2129097,23.8390236-25.4991722,24.9760723
			C33.563343-30.8527889,33.9490814-53.3983955,59.0625153-55.8288612z"/>
		<path class="st2" d="M7.6189418-51.7623749c6.7895322,8.3003654,14.3600616,13.3893967,23.8111649,19.0891037"/>
		<path class="st2" d="M57.2447891-53.7520447c-5.8971214,8.8350105-12.9055786,14.5384369-21.722908,21.0080185"/>
		<path class="st2" d="M5.9024386-19.8237171c0,0-1.9469135,24.0747528,27.7651672,22.9377022
			C33.6676064,3.113986,31.1546059-19.3206863,5.9024386-19.8237171z"/>
		<path class="st2" d="M59.0625153-21.8580952c0,0,4.2129097,23.8390217-25.4991722,24.9760704
			C33.563343,3.117976,33.9490814-19.4276295,59.0625153-21.8580952z"/>
		<path class="st2" d="M7.6189418-17.7916107C14.408474-9.4912453,21.9790039-4.4022126,31.4301071,1.2974938"/>
		<path class="st2" d="M57.2447891-19.7812786c-5.8971214,8.8350105-12.9055786,14.538435-21.722908,21.0080166"/>
		<path class="st2" d="M7.6356406,15.8802509c0,0-1.9469132,24.0747509,27.7651691,22.9377041
			C35.4008102,38.817955,32.8878098,16.3832798,7.6356406,15.8802509z"/>
		<path class="st2" d="M60.7957191,13.8458719c0,0,4.2129097,23.8390236-25.4991722,24.9760742
			C35.2965469,38.8219452,35.6822853,16.2763386,60.7957191,13.8458719z"/>
		<path class="st2" d="M9.3521442,17.9123573C16.1416759,26.2127228,23.7122059,31.301754,33.163311,37.001461"/>
		<path class="st2" d="M58.977993,15.9226885C53.0808716,24.7577,46.0724144,30.4611244,37.255085,36.930706"/>
		<path class="st2" d="M36.7365189,66.4918137c-5.1996059-37.4371681-2.0798416-135.1897888-2.0798416-135.1897888"/>
		<circle class="st3" cx="36.0432396" cy="-97.8157654" r="20.1051464"/>
		<line class="st2" x1="29.803709" y1="-98.8556824" x2="36.0432396" y2="-82.9102249"/>
		<line class="st2" x1="34.6566772" y1="-103.7086487" x2="40.8962059" y2="-87.7631912"/>
		<line class="st2" x1="39.5096436" y1="-108.561615" x2="45.7491722" y2="-92.6161575"/>
		<line class="st2" x1="44.9006424" y1="-108.6490555" x2="27.5971947" y2="-89.7359772"/>
		<line class="st2" x1="47.9186859" y1="-102.4117661" x2="30.6152382" y2="-83.4986877"/>
	</g>
</g>
<g id="Layer_2" class="st0">
	<g class="st1">
		<path class="st4" d="M4.4548244-37.8948021c0,0-2.1891751,30.093441,31.2200871,28.6721287
			C35.6749115-9.2226734,32.8492126-37.2660141,4.4548244-37.8948021z"/>
		<path class="st4" d="M64.229805-40.4377747c0,0,4.7371368,29.7987766-28.6721306,31.220089
			C35.5576744-9.2176857,35.9914131-37.3996925,64.229805-40.4377747z"/>
		<path class="st5" d="M6.3849182-35.3546677c7.6343794,10.3754539,16.1469364,16.7367458,26.7740746,23.8613777"/>
		<path class="st5" d="M62.185894-37.8417549c-6.6309242,11.0437641-14.5114708,18.1730461-24.4259682,26.2600212"/>
		<path class="st4" d="M4.4548244,4.5686545c0,0-2.1891751,30.0934391,31.2200871,28.6721287
			C35.6749115,33.2407837,32.8492126,5.1974416,4.4548244,4.5686545z"/>
		<path class="st4" d="M64.229805,2.0256815c0,0,4.7371368,29.7987785-28.6721306,31.220089
			C35.5576744,33.2457695,35.9914131,5.0637646,64.229805,2.0256815z"/>
		<path class="st5" d="M6.3849182,7.1087871c7.6343794,10.3754559,16.1469364,16.7367477,26.7740746,23.8613796"/>
		<path class="st5" d="M62.185894,4.6217022c-6.6309242,11.0437632-14.5114708,18.1730442-24.4259682,26.2600212"/>
		<path class="st4" d="M38.6677017,66.5332108c-3.0331039-23.8315353-3.1100273-75.7509003-3.1100273-75.7509003"/>
	</g>
</g>
<g id="Layer_3" class="st0">
	<g class="st1">
		<path class="st4" d="M4.4548244,14.1051979c0,0-2.1891751,30.093441,31.2200871,28.6721268
			C35.6749115,42.7773247,32.8492126,14.7339849,4.4548244,14.1051979z"/>
		<path class="st4" d="M64.229805,11.5622253c0,0,4.7371368,29.7987785-28.6721306,31.220089
			C35.5576744,42.7823143,35.9914131,14.6003084,64.229805,11.5622253z"/>
		<path class="st5" d="M6.3849182,16.6453304c7.6343794,10.3754559,16.1469364,16.7367458,26.7740746,23.8613796"/>
		<path class="st5" d="M62.185894,14.158246c-6.6309242,11.0437632-14.5114708,18.1730461-24.4259682,26.2600212"/>
		<line class="st4" x1="36.4040146" y1="66.1841812" x2="35.5576744" y2="42.7823143"/>
	</g>
</g>
<g id="Layer_4">
	<g>
		<path class="st6" d="M11.1876497,11.0757294c0,0-6.9899106,16.7802811,12.9453802,15.0049877
			C24.1330299,26.0807171,25.9880943,9.7577076,11.1876497,11.0757294z"/>
		<path class="st6" d="M24.8327274,46.6812325c0,0-16.2538643,8.1393204,0,19.8174782
			C24.8327274,66.4987106,36.8999901,55.3513794,24.8327274,46.6812325z"/>
		<path class="st6" d="M56.8744774,17.3818779c0,0-17.8522873,3.4252739-5.3755264,19.0744896
			C51.498951,36.4563675,66.1375275,29.0002346,56.8744774,17.3818779z"/>
	</g>
</g>
</svg>
