<?xml version="1.0" encoding="utf-8"?>
<!-- Generator: Adobe Illustrator 23.0.1, SVG Export Plug-In . SVG Version: 6.00 Build 0)  -->
<svg version="1.1" xmlns="http://www.w3.org/2000/svg" xmlns:xlink="http://www.w3.org/1999/xlink" x="0px" y="0px"
	 viewBox="0 0 70 115" style="enable-background:new 0 0 70 115;" xml:space="preserve">
<style type="text/css">
	.st0{display:none;}
	.st1{display:inline;}
	.st2{fill:none;stroke:#DEF4F5;stroke-width:2.8;stroke-linecap:round;stroke-miterlimit:10;}
	.st3{fill:#00B1B9;stroke:#DEF4F5;stroke-width:2.8;stroke-miterlimit:10;}
	.st4{fill:none;stroke:#DEF4F5;stroke-width:2.8508682;stroke-linecap:round;stroke-miterlimit:10;}
	.st5{fill:none;stroke:#DEF4F5;stroke-width:2.3092031;stroke-linecap:round;stroke-miterlimit:10;}
	.st6{fill:#FFFFFF;}
</style>
<g id="Layer_1" class="st0">
	<g class="st1">
		<g>
			<circle class="st2" cx="35.262043" cy="-73.1806412" r="8.3111763"/>
			<circle class="st2" cx="20.5599785" cy="-67.2322388" r="8.3111763"/>
			<circle class="st2" cx="14.3702011" cy="-52.6301575" r="8.3111763"/>
			<circle class="st2" cx="20.3185997" cy="-37.928093" r="8.3111763"/>
			<circle class="st2" cx="34.920681" cy="-31.7383156" r="8.3111763"/>
			<circle class="st2" cx="49.6227455" cy="-37.6867142" r="8.3111763"/>
			<circle class="st2" cx="55.8125229" cy="-52.2887955" r="8.3111763"/>
			<circle class="st2" cx="49.8641243" cy="-66.99086" r="8.3111763"/>
		</g>
		<path class="st2" d="M5.9024386-8.7944813c0,0-1.9469135,24.0747509,27.7651672,22.9377022
			C33.6676064,14.1432209,31.1546059-8.2914524,5.9024386-8.7944813z"/>
		<path class="st2" d="M59.0625153-10.8288603c0,0,4.2129097,23.8390217-25.4991722,24.9760704
			C33.563343,14.1472111,33.9490814-8.3983936,59.0625153-10.8288603z"/>
		<path class="st2" d="M7.6189418-6.7623758C14.408474,1.5379893,21.9790039,6.6270223,31.4301071,12.3267288"/>
		<path class="st2" d="M57.2447891-8.7520437c-5.8971214,8.8350105-12.9055786,14.538435-21.722908,21.0080166"/>
		<path class="st2" d="M5.9024386,25.1762829c0,0-1.9469135,24.0747509,27.7651672,22.9377041
			C33.6676064,48.113987,31.1546059,25.6793137,5.9024386,25.1762829z"/>
		<path class="st2" d="M59.0625153,23.1419048c0,0,4.2129097,23.8390217-25.4991722,24.9760723
			C33.563343,48.1179771,33.9490814,25.5723705,59.0625153,23.1419048z"/>
		<path class="st2" d="M7.6189418,27.2083893c6.7895322,8.3003654,14.3600616,13.3893967,23.8111649,19.0891037"/>
		<path class="st2" d="M57.2447891,25.2187214c-5.8971214,8.8350086-12.9055786,14.538435-21.722908,21.0080166"/>
		<path class="st2" d="M7.6356406,60.8802528c0,0-1.9469132,24.074749,27.7651691,22.9377022
			C35.4008102,83.817955,32.8878098,61.3832817,7.6356406,60.8802528z"/>
		<path class="st2" d="M60.7957191,58.845871c0,0,4.2129097,23.8390198-25.4991722,24.9760742
			C35.2965469,83.8219452,35.6822853,61.2763405,60.7957191,58.845871z"/>
		<path class="st2" d="M9.3521442,62.9123573c6.7895317,8.3003654,14.3600616,13.3894005,23.8111668,19.0891075"/>
		<path class="st2" d="M58.977993,60.9226875c-5.8971214,8.8350105-12.9055786,14.5384407-21.722908,21.0080147"/>
		<path class="st2" d="M36.7365189,111.4918137c-5.1996059-37.4371719-2.0798416-135.1897736-2.0798416-135.1897736"/>
		<circle class="st3" cx="36.0432396" cy="-52.8157654" r="20.1051464"/>
		<line class="st2" x1="29.803709" y1="-53.8556862" x2="36.0432396" y2="-37.9102249"/>
		<line class="st2" x1="34.6566772" y1="-58.7086525" x2="40.8962059" y2="-42.7631912"/>
		<line class="st2" x1="39.5096436" y1="-63.5616188" x2="45.7491722" y2="-47.6161575"/>
		<line class="st2" x1="44.9006424" y1="-63.6490517" x2="27.5971947" y2="-44.735981"/>
		<line class="st2" x1="47.9186859" y1="-57.4117622" x2="30.6152382" y2="-38.4986916"/>
	</g>
</g>
<g id="Layer_2">
	<g>
		<path class="st4" d="M4.4548244,7.1051984c0,0-2.1891751,30.093441,31.2200871,28.6721268
			C35.6749115,35.7773247,32.8492126,7.7339854,4.4548244,7.1051984z"/>
		<path class="st4" d="M64.229805,4.5622249c0,0,4.7371368,29.7987785-28.6721306,31.220089
			C35.5576744,35.7823143,35.9914131,7.6003084,64.229805,4.5622249z"/>
		<path class="st5" d="M6.3849182,9.6453304c7.6343794,10.3754559,16.1469364,16.7367477,26.7740746,23.8613796"/>
		<path class="st5" d="M62.185894,7.1582456c-6.6309242,11.0437641-14.5114708,18.1730461-24.4259682,26.2600212"/>
		<path class="st4" d="M4.4548244,49.5686531c0,0-2.1891751,30.093441,31.2200871,28.6721306
			C35.6749115,78.2407837,32.8492126,50.1974411,4.4548244,49.5686531z"/>
		<path class="st4" d="M64.229805,47.0256805c0,0,4.7371368,29.7987747-28.6721306,31.2200928
			C35.5576744,78.2457733,35.9914131,50.0637665,64.229805,47.0256805z"/>
		<path class="st5" d="M6.3849182,52.1087875c7.6343794,10.3754578,16.1469364,16.7367477,26.7740746,23.8613815"/>
		<path class="st5" d="M62.185894,49.6217003c-6.6309242,11.043766-14.5114708,18.1730461-24.4259682,26.2600212"/>
		<path class="st4" d="M38.6677017,111.5332108c-3.0331039-23.8315353-3.1100273-75.7509003-3.1100273-75.7509003"/>
	</g>
</g>
<g id="Layer_3" class="st0">
	<g class="st1">
		<path class="st4" d="M4.4548244,59.1051979c0,0-2.1891751,30.093441,31.2200871,28.6721306
			C35.6749115,87.7773285,32.8492126,59.7339859,4.4548244,59.1051979z"/>
		<path class="st4" d="M64.229805,56.5622253c0,0,4.7371368,29.7987747-28.6721306,31.2200851
			C35.5576744,87.7823105,35.9914131,59.6003075,64.229805,56.5622253z"/>
		<path class="st5" d="M6.3849182,61.6453323c7.6343794,10.3754578,16.1469364,16.7367477,26.7740746,23.8613815"/>
		<path class="st5" d="M62.185894,59.1582451c-6.6309242,11.043766-14.5114708,18.1730461-24.4259682,26.2600212"/>
		<line class="st4" x1="36.4040146" y1="111.1841812" x2="35.5576744" y2="87.7823105"/>
	</g>
</g>
<g id="Layer_4" class="st0">
	<g class="st1">
		<path class="st6" d="M11.1876497,56.0757294c0,0-6.9899106,16.7802811,12.9453802,15.0049896
			C24.1330299,71.080719,25.9880943,54.7577057,11.1876497,56.0757294z"/>
		<path class="st6" d="M24.8327274,91.6812286c0,0-16.2538643,8.139328,0,19.817482
			C24.8327274,111.4987106,36.8999901,100.3513794,24.8327274,91.6812286z"/>
		<path class="st6" d="M56.8744774,62.3818779c0,0-17.8522873,3.4252739-5.3755264,19.0744896
			C51.498951,81.4563675,66.1375275,74.0002365,56.8744774,62.3818779z"/>
	</g>
</g>
</svg>
