<?xml version="1.0" encoding="utf-8"?>
<!-- Generator: Adobe Illustrator 23.0.1, SVG Export Plug-In . SVG Version: 6.00 Build 0)  -->
<svg version="1.1" xmlns="http://www.w3.org/2000/svg" xmlns:xlink="http://www.w3.org/1999/xlink" x="0px" y="0px"
	 viewBox="0 0 200 200" style="enable-background:new 0 0 200 200;" xml:space="preserve">
<style type="text/css">
	.st0{display:none;}
	.st1{display:inline;}
	.st2{fill:none;stroke:#DEF4F5;stroke-width:2.8;stroke-linecap:round;stroke-miterlimit:10;}
	.st3{fill:#00B1B9;stroke:#DEF4F5;stroke-width:2.8;stroke-miterlimit:10;}
	.st4{fill:none;stroke:#DEF4F5;stroke-width:2.8508682;stroke-linecap:round;stroke-miterlimit:10;}
	.st5{fill:none;stroke:#DEF4F5;stroke-width:2.3092031;stroke-linecap:round;stroke-miterlimit:10;}
</style>
<g id="Layer_1" class="st0">
	<g class="st1">
		<g>
			<circle class="st2" cx="100.2620392" cy="11.8193626" r="8.3111763"/>
			<circle class="st2" cx="85.5599747" cy="17.7677612" r="8.3111763"/>
			<circle class="st2" cx="79.3702011" cy="32.3698425" r="8.3111763"/>
			<circle class="st2" cx="85.3185959" cy="47.071907" r="8.3111763"/>
			<circle class="st2" cx="99.9206848" cy="53.2616844" r="8.3111763"/>
			<circle class="st2" cx="114.6227493" cy="47.3132858" r="8.3111763"/>
			<circle class="st2" cx="120.8125229" cy="32.7112045" r="8.3111763"/>
			<circle class="st2" cx="114.8641281" cy="18.00914" r="8.3111763"/>
		</g>
		<path class="st2" d="M70.9024353,76.2055206c0,0-1.946907,24.0747528,27.7651672,22.9376984
			C98.6676025,99.143219,96.1546097,76.7085495,70.9024353,76.2055206z"/>
		<path class="st2" d="M124.0625153,74.1711426c0,0,4.2129059,23.8390198-25.4991684,24.9760666
			C98.5633469,99.1472092,98.9490814,76.6016083,124.0625153,74.1711426z"/>
		<path class="st2" d="M72.6189423,78.2376251c6.7895355,8.3003616,14.3600616,13.3893967,23.8111649,19.0891037"/>
		<path class="st2" d="M122.2447891,76.2479553c-5.8971176,8.8350143-12.9055786,14.5384369-21.722908,21.0080185"/>
		<path class="st2" d="M70.9024353,110.1762848c0,0-1.946907,24.0747528,27.7651672,22.9376984
			C98.6676025,133.1139832,96.1546097,110.6793137,70.9024353,110.1762848z"/>
		<path class="st2" d="M124.0625153,108.1419067c0,0,4.2129059,23.8390198-25.4991684,24.9760742
			C98.5633469,133.117981,98.9490814,110.5723724,124.0625153,108.1419067z"/>
		<path class="st2" d="M72.6189423,112.2083893c6.7895355,8.3003616,14.3600616,13.3893967,23.8111649,19.0891113"/>
		<path class="st2" d="M122.2447891,110.2187195c-5.8971176,8.8350143-12.9055786,14.5384369-21.722908,21.0080109"/>
		<path class="st2" d="M72.635643,145.880249c0,0-1.9469147,24.0747528,27.7651672,22.9376984
			C100.4008102,168.8179474,97.8878098,146.3832855,72.635643,145.880249z"/>
		<path class="st2" d="M125.7957153,143.845871c0,0,4.2129059,23.8390198-25.4991684,24.9760742
			C100.2965469,168.8219452,100.6822815,146.2763367,125.7957153,143.845871z"/>
		<path class="st2" d="M74.3521423,147.9123535c6.7895355,8.3003693,14.3600616,13.3894043,23.8111649,19.0891113"/>
		<path class="st2" d="M123.9779892,145.9226837c-5.8971176,8.835022-12.9055786,14.5384369-21.7229004,21.0080261"/>
		<path class="st2" d="M101.7365189,196.4918213c-5.1996078-37.4371796-2.0798416-135.1897888-2.0798416-135.1897888"/>
		<circle class="st3" cx="101.0432358" cy="32.1842346" r="20.1051464"/>
		<line class="st2" x1="94.8037109" y1="31.1443138" x2="101.0432358" y2="47.0897751"/>
		<line class="st2" x1="99.6566772" y1="26.2913475" x2="105.8962021" y2="42.2368088"/>
		<line class="st2" x1="104.5096436" y1="21.4383812" x2="110.7491684" y2="37.3838425"/>
		<line class="st2" x1="109.9006424" y1="21.3509483" x2="92.5971985" y2="40.264019"/>
		<line class="st2" x1="112.9186859" y1="27.5882378" x2="95.6152344" y2="46.5013084"/>
	</g>
</g>
<g id="Layer_2">
	<g>
		<path class="st4" d="M69.4548264,92.1052017c0,0-2.1891785,30.0934372,31.2200851,28.6721268
			C100.6749115,120.7773285,97.8492126,92.7339859,69.4548264,92.1052017z"/>
		<path class="st4" d="M129.2297974,89.5622253c0,0,4.7371368,29.7987747-28.6721191,31.2200851
			C100.5576782,120.7823105,100.9914169,92.6003113,129.2297974,89.5622253z"/>
		<path class="st5" d="M71.3849182,94.6453323c7.6343765,10.3754578,16.1469345,16.7367477,26.7740784,23.8613815"/>
		<path class="st5" d="M127.1858902,92.1582489c-6.6309204,11.0437622-14.511467,18.1730423-24.4259644,26.2600174"/>
		<path class="st4" d="M69.4548264,134.5686493c0,0-2.1891785,30.0934448,31.2200851,28.6721344
			C100.6749115,163.2407837,97.8492126,135.1974487,69.4548264,134.5686493z"/>
		<path class="st4" d="M129.2297974,132.0256805c0,0,4.7371368,29.7987823-28.6721191,31.2200928
			C100.5576782,163.2457733,100.9914169,135.0637665,129.2297974,132.0256805z"/>
		<path class="st5" d="M71.3849182,137.1087799c7.6343765,10.3754578,16.1469345,16.7367554,26.7740784,23.8613892"/>
		<path class="st5" d="M127.1858902,134.6217041c-6.6309204,11.0437622-14.511467,18.1730499-24.4259644,26.260025"/>
		<path class="st4" d="M103.6677017,196.5332031c-3.0331039-23.8315277-3.1100235-75.7508926-3.1100235-75.7508926"/>
	</g>
</g>
</svg>
