<?xml version="1.0" encoding="utf-8"?>
<!-- Generator: Adobe Illustrator 23.0.1, SVG Export Plug-In . SVG Version: 6.00 Build 0)  -->
<svg version="1.1" xmlns="http://www.w3.org/2000/svg" xmlns:xlink="http://www.w3.org/1999/xlink" x="0px" y="0px"
	 viewBox="0 0 70 200" style="enable-background:new 0 0 70 200;" xml:space="preserve">
<style type="text/css">
	.st0{fill:none;stroke:#DEF4F5;stroke-width:2.8;stroke-linecap:round;stroke-miterlimit:10;}
	.st1{fill:#00B1B9;stroke:#DEF4F5;stroke-width:2.8;stroke-miterlimit:10;}
	.st2{display:none;}
	.st3{display:inline;}
	.st4{fill:none;stroke:#DEF4F5;stroke-width:2.8508682;stroke-linecap:round;stroke-miterlimit:10;}
	.st5{fill:none;stroke:#DEF4F5;stroke-width:2.3092031;stroke-linecap:round;stroke-miterlimit:10;}
	.st6{fill:#FFFFFF;}
</style>
<g id="Layer_1">
	<g>
		<g>
			<circle class="st0" cx="35.262043" cy="11.8193626" r="8.3111763"/>
			<circle class="st0" cx="20.5599785" cy="17.7677612" r="8.3111763"/>
			<circle class="st0" cx="14.3702011" cy="32.3698425" r="8.3111763"/>
			<circle class="st0" cx="20.3185997" cy="47.071907" r="8.3111763"/>
			<circle class="st0" cx="34.920681" cy="53.2616844" r="8.3111763"/>
			<circle class="st0" cx="49.6227455" cy="47.3132858" r="8.3111763"/>
			<circle class="st0" cx="55.8125229" cy="32.7112045" r="8.3111763"/>
			<circle class="st0" cx="49.8641243" cy="18.00914" r="8.3111763"/>
		</g>
		<path class="st0" d="M5.9024386,76.2055206c0,0-1.9469135,24.0747528,27.7651672,22.9376984
			C33.6676064,99.143219,31.1546059,76.7085495,5.9024386,76.2055206z"/>
		<path class="st0" d="M59.0625153,74.1711426c0,0,4.2129097,23.8390198-25.4991722,24.9760666
			C33.563343,99.1472092,33.9490814,76.6016083,59.0625153,74.1711426z"/>
		<path class="st0" d="M7.6189418,78.2376251c6.7895322,8.3003616,14.3600616,13.3893967,23.8111649,19.0891037"/>
		<path class="st0" d="M57.2447891,76.2479553c-5.8971214,8.8350143-12.9055786,14.5384369-21.722908,21.0080185"/>
		<path class="st0" d="M5.9024386,110.1762848c0,0-1.9469135,24.0747528,27.7651672,22.9376984
			C33.6676064,133.1139832,31.1546059,110.6793137,5.9024386,110.1762848z"/>
		<path class="st0" d="M59.0625153,108.1419067c0,0,4.2129097,23.8390198-25.4991722,24.9760742
			C33.563343,133.117981,33.9490814,110.5723724,59.0625153,108.1419067z"/>
		<path class="st0" d="M7.6189418,112.2083893c6.7895322,8.3003616,14.3600616,13.3893967,23.8111649,19.0891113"/>
		<path class="st0" d="M57.2447891,110.2187195c-5.8971214,8.8350143-12.9055786,14.5384369-21.722908,21.0080109"/>
		<path class="st0" d="M7.6356406,145.880249c0,0-1.9469132,24.0747528,27.7651691,22.9376984
			C35.4008102,168.8179474,32.8878098,146.3832855,7.6356406,145.880249z"/>
		<path class="st0" d="M60.7957191,143.845871c0,0,4.2129097,23.8390198-25.4991722,24.9760742
			C35.2965469,168.8219452,35.6822853,146.2763367,60.7957191,143.845871z"/>
		<path class="st0" d="M9.3521442,147.9123535c6.7895317,8.3003693,14.3600616,13.3894043,23.8111668,19.0891113"/>
		<path class="st0" d="M58.977993,145.9226837c-5.8971214,8.835022-12.9055786,14.5384369-21.722908,21.0080261"/>
		<path class="st0" d="M36.7365189,196.4918213c-5.1996059-37.4371796-2.0798416-135.1897888-2.0798416-135.1897888"/>
		<circle class="st1" cx="36.0432396" cy="32.1842346" r="20.1051464"/>
		<line class="st0" x1="29.803709" y1="31.1443138" x2="36.0432396" y2="47.0897751"/>
		<line class="st0" x1="34.6566772" y1="26.2913475" x2="40.8962059" y2="42.2368088"/>
		<line class="st0" x1="39.5096436" y1="21.4383812" x2="45.7491722" y2="37.3838425"/>
		<line class="st0" x1="44.9006424" y1="21.3509483" x2="27.5971947" y2="40.264019"/>
		<line class="st0" x1="47.9186859" y1="27.5882378" x2="30.6152382" y2="46.5013084"/>
	</g>
</g>
<g id="Layer_2" class="st2">
	<g class="st3">
		<path class="st4" d="M4.4548244,92.1052017c0,0-2.1891751,30.0934372,31.2200871,28.6721268
			C35.6749115,120.7773285,32.8492126,92.7339859,4.4548244,92.1052017z"/>
		<path class="st4" d="M64.229805,89.5622253c0,0,4.7371368,29.7987747-28.6721306,31.2200851
			C35.5576744,120.7823105,35.9914131,92.6003113,64.229805,89.5622253z"/>
		<path class="st5" d="M6.3849182,94.6453323c7.6343794,10.3754578,16.1469364,16.7367477,26.7740746,23.8613815"/>
		<path class="st5" d="M62.185894,92.1582489c-6.6309242,11.0437622-14.5114708,18.1730423-24.4259682,26.2600174"/>
		<path class="st4" d="M4.4548244,134.5686493c0,0-2.1891751,30.0934448,31.2200871,28.6721344
			C35.6749115,163.2407837,32.8492126,135.1974487,4.4548244,134.5686493z"/>
		<path class="st4" d="M64.229805,132.0256805c0,0,4.7371368,29.7987823-28.6721306,31.2200928
			C35.5576744,163.2457733,35.9914131,135.0637665,64.229805,132.0256805z"/>
		<path class="st5" d="M6.3849182,137.1087799c7.6343794,10.3754578,16.1469364,16.7367554,26.7740746,23.8613892"/>
		<path class="st5" d="M62.185894,134.6217041c-6.6309242,11.0437622-14.5114708,18.1730499-24.4259682,26.260025"/>
		<path class="st4" d="M38.6677017,196.5332031c-3.0331039-23.8315277-3.1100273-75.7508926-3.1100273-75.7508926"/>
	</g>
</g>
<g id="Layer_3" class="st2">
	<g class="st3">
		<path class="st4" d="M4.4548244,144.1051941c0,0-2.1891751,30.0934448,31.2200871,28.6721344
			C35.6749115,172.7773285,32.8492126,144.7339783,4.4548244,144.1051941z"/>
		<path class="st4" d="M64.229805,141.5622253c0,0,4.7371368,29.7987823-28.6721306,31.2200928
			C35.5576744,172.7823181,35.9914131,144.6003113,64.229805,141.5622253z"/>
		<path class="st5" d="M6.3849182,146.6453247c7.6343794,10.3754578,16.1469364,16.7367554,26.7740746,23.8613892"/>
		<path class="st5" d="M62.185894,144.1582489c-6.6309242,11.0437622-14.5114708,18.1730347-24.4259682,26.260025"/>
		<line class="st4" x1="36.4040146" y1="196.1841888" x2="35.5576744" y2="172.7823181"/>
	</g>
</g>
<g id="Layer_4" class="st2">
	<g class="st3">
		<path class="st6" d="M11.1876497,141.0757294c0,0-6.9899106,16.7802887,12.9453802,15.0049896
			C24.1330299,156.080719,25.9880943,139.7577057,11.1876497,141.0757294z"/>
		<path class="st6" d="M24.8327274,176.6812286c0,0-16.2538643,8.139328,0,19.8174896
			C24.8327274,196.4987183,36.8999901,185.3513794,24.8327274,176.6812286z"/>
		<path class="st6" d="M56.8744774,147.3818817c0,0-17.8522873,3.4252777-5.3755264,19.0744934
			C51.498951,166.4563751,66.1375275,159.0002289,56.8744774,147.3818817z"/>
	</g>
</g>
</svg>
