<?xml version="1.0" encoding="utf-8"?>
<!-- Generator: Adobe Illustrator 23.0.1, SVG Export Plug-In . SVG Version: 6.00 Build 0)  -->
<svg version="1.1" id="Layer_1" xmlns="http://www.w3.org/2000/svg" xmlns:xlink="http://www.w3.org/1999/xlink" x="0px" y="0px"
	 viewBox="0 0 164.3000031 107.4400024" style="enable-background:new 0 0 164.3000031 107.4400024;" xml:space="preserve">
<style type="text/css">
	.st0{fill:#FCEAD4;}
	.st1{fill:#00B1B9;}
	.st2{fill:none;stroke:#F79E33;stroke-width:2.0793161;stroke-miterlimit:10;}
	.st3{fill:none;stroke:#F79E33;stroke-width:1.92;stroke-miterlimit:10;}
	.st4{fill:none;stroke:#F79E33;stroke-width:2.4000001;stroke-miterlimit:10;}
	.st5{fill:none;stroke:#DEF4F5;stroke-width:0.9;stroke-linecap:round;stroke-miterlimit:10;stroke-dasharray:3.5999999;}
</style>
<g>
	<path class="st0" d="M29.4026222,2.1982512L3.467401,40.1935043c-0.1994209,0.2921524-0.1041181,0.6925354,0.2055407,0.8635139
		l38.2374687,21.1127701c0.3162117,0.1745987,0.7138824,0.0322533,0.847477-0.3033447l17.0726814-42.8886909
		c0.1118011-0.2808628-0.0028038-0.6010399-0.2674408-0.7471581L30.1881981,2.0112624
		C29.9172993,1.8616865,29.5770817,1.942668,29.4026222,2.1982512z"/>
	<polyline class="st0" points="51.7063026,38.5924149 67.6301727,32.8036995 72.7801437,40.03722 42.5061874,62.498745 	"/>
	<path class="st0" d="M67.471405,33.2041397l1.3734665-4.0130901c0.1557388-0.4550495,0.7567673-0.5510807,1.0465469-0.1672134
		l7.8791351,10.4374256c0.3137665,0.4156418-0.0146484,1.0062485-0.5332794,0.9590263l-4.5125961-0.4108849"/>
	<path class="st0" d="M24.1615334,8.923769c0,0-10.1190376-13.0174751-19.8304691-4.0686235
		s4.8909411,28.5585938,4.8909411,28.5585938l5.2399149-5.8563766l-3.3905334-0.4623451"/>
	<path class="st1" d="M21.1812172,13.2493935c0,0-7.8016548-9.7705536-12.8070803-5.5183263
		c-7.2457709,6.1554542,4.00739,19.2579193,4.00739,19.2579193"/>
</g>
<g>
	<path class="st0" d="M33.8883057,1.4820495L7.9530859,39.4773026C7.753665,39.769455,7.8489676,40.169838,8.1586266,40.3408165
		l38.2374725,21.1127739c0.3162117,0.1745949,0.7138824,0.0322495,0.8474731-0.3033485l17.0726814-42.8886909
		c0.1118011-0.2808628-0.0028-0.6010399-0.2674408-0.7471581L34.6738815,1.2950608
		C34.4029846,1.1454848,34.062767,1.2264663,33.8883057,1.4820495z"/>
	<polyline class="st0" points="56.1919861,37.8762131 72.1158524,32.0874977 77.2658234,39.3210182 46.9918709,61.7825432 	"/>
	<path class="st0" d="M71.9570847,32.4879379l1.3734741-4.0130901c0.1557388-0.4550495,0.7567673-0.5510807,1.0465469-0.1672134
		L82.2562408,38.74506c0.3137665,0.4156418-0.0146484,1.0062485-0.5332794,0.9590263l-4.5125961-0.410881"/>
	<path class="st0" d="M28.6472187,8.2075672c0,0-10.1190376-13.0174751-19.830471-4.0686235
		s4.0460367,27.3606796,4.0460367,27.3606796"/>
	<path class="st1" d="M25.6669025,12.5331917c0,0-7.8016548-9.7705536-12.8070803-5.5183263
		c-7.2457714,6.1554551,4.00739,19.2579193,4.00739,19.2579193"/>
</g>
<g>
	<path class="st2" d="M31.7686443,3.3653185L5.8334222,41.360569c-0.1994209,0.2921524-0.1041183,0.6925392,0.2055407,0.8635178
		l38.2374725,21.1127701c0.3162117,0.1745949,0.7138824,0.0322533,0.8474731-0.3033447l17.0726814-42.8886909
		c0.1118011-0.2808647-0.0028-0.6010399-0.2674408-0.74716L32.5542183,3.1783299
		C32.2833214,3.028754,31.9431019,3.1097353,31.7686443,3.3653185z"/>
	<polyline class="st3" points="54.0723228,39.7594795 69.9961929,33.9707642 75.1461639,41.2042885 44.8722076,63.6658134 	"/>
	<path class="st3" d="M69.8374252,34.3712044l1.3734665-4.0130882c0.1557388-0.4550495,0.7567673-0.5510788,1.0465469-0.1672115
		l7.8791351,10.4374256c0.3137665,0.4156418-0.0146484,1.0062485-0.5332794,0.9590263l-4.5125961-0.4108849"/>
	<path class="st4" d="M26.5275555,10.0908365c0,0-10.1190376-13.0174751-19.830471-4.0686235
		s4.0460362,27.3606796,4.0460362,27.3606796"/>
	<path class="st4" d="M23.5472393,14.416461c0,0-7.8016567-9.7705536-12.8070812-5.5183268
		c-7.2457709,6.1554546,4.00739,19.2579212,4.00739,19.2579212"/>
</g>
<path class="st5" d="M79.9968948,37.948864c0,0,45.8249359-22.218153,57.2117386,68.0430908"/>
<path class="st5" d="M75.398613,32.5391197c0,0,53.3717422-42.5203209,87.4531326,50.5272636"/>
<path class="st5" d="M77.1073151,35.7311287c0,0,50.4020615-34.176403,71.543869,58.1818123"/>
<g>
	<g>
		<path class="st1" d="M27.3457203,23.9284096l0.9237118,0.510128l-1.8442879,3.3395462l1.7111664,0.9450054l-0.4708824,0.8526516
			l-2.6348801-1.4551315L27.3457203,23.9284096z"/>
		<path class="st1" d="M32.313488,26.671896l0.7638474,0.4218388l-0.4914322,5.1993713l-1.0421486-0.5755329l0.1293163-1.0875988
			l-1.6283016-0.8992424l-0.8398457,0.6952057l-1.0184612-0.5624523L32.313488,26.671896z M31.9951725,28.0878754
			l-1.2286587,1.0214787l1.0244026,0.5657349L31.9951725,28.0878754z"/>
		<path class="st1" d="M33.8340263,31.7538013l2.4360542-0.5632095c0.1242523-0.0291786,0.2540588-0.0684204,0.389286-0.1172829
			c0.1351891-0.0489845,0.2376518-0.1366177,0.3074341-0.2629738c0.0784874-0.1421223,0.0887108-0.2819347,0.0308342-0.4195557
			c-0.0580025-0.1375847-0.1560631-0.244566-0.2941437-0.3208237c-0.1658096-0.091568-0.3235245-0.1116772-0.4728699-0.0602741
			c-0.1494675,0.0514393-0.2715378,0.1489201-0.3662376,0.2923222l-0.8521805-0.555603
			c0.1317596-0.2105007,0.2811966-0.3740215,0.4484673-0.4902706c0.1671944-0.116291,0.3454323-0.1917458,0.5345573-0.2264519
			c0.1891632-0.034584,0.3862038-0.0300789,0.5913582,0.0136433c0.2050323,0.0437584,0.4102211,0.1222363,0.6155624,0.2356358
			c0.189415,0.1046066,0.3523636,0.2294369,0.4887733,0.3742409c0.1362877,0.1448421,0.2367706,0.3034058,0.3014145,0.4755707
			c0.0645218,0.1722012,0.0877266,0.3563213,0.0697365,0.5523224c-0.0182343,0.1960716-0.0849838,0.3987446-0.200531,0.6079674
			c-0.0741119,0.1341991-0.1549988,0.2479095-0.2425079,0.341217c-0.0877075,0.093298-0.1805992,0.1707096-0.2789955,0.2322598
			c-0.0984802,0.0615063-0.2019081,0.1113873-0.3103981,0.1492748c-0.1086082,0.0379219-0.2219086,0.0706673-0.3400574,0.0981522
			l-1.8780098,0.3923187l1.85923,1.0267754l-0.4316368,0.7815895l-2.9250679-1.615387L33.8340263,31.7538013z"/>
		<path class="st1" d="M38.3264046,32.7279549c0.1373329-0.2486725,0.2994652-0.4887161,0.4866104-0.7203217
			c0.1869774-0.231493,0.3965645-0.4196892,0.6286087-0.5646763c0.2319527-0.1448307,0.4851532-0.2277889,0.7595139-0.2489166
			c0.2743988-0.0210075,0.5674477,0.0545063,0.8793373,0.2267513c0.3117332,0.1721573,0.5318794,0.3800564,0.6601601,0.6234436
			c0.128315,0.2435112,0.1928711,0.5019531,0.1938248,0.7754097c0.0007858,0.2735672-0.046875,0.5511894-0.1430664,0.8328171
			c-0.0964355,0.2817001-0.2131729,0.546814-0.3505058,0.7954865c-0.1373329,0.2486763-0.299633,0.4888306-0.4866104,0.7203255
			c-0.1872215,0.2315598-0.3967667,0.4196777-0.628685,0.5646286c-0.2319984,0.1449089-0.4851189,0.2279129-0.7595177,0.2489204
			c-0.2743187,0.0210495-0.567524-0.054554-0.8792572-0.2267113c-0.3118935-0.1722412-0.5318794-0.3800545-0.6602364-0.6234894
			c-0.1282806-0.2433853-0.1929169-0.5018692-0.1938286-0.7754059c-0.0009079-0.2735329,0.046711-0.551075,0.1431465-0.8327751
			C38.0721664,33.2418556,38.1890717,32.9766273,38.3264046,32.7279549z M39.21455,33.2184372
			c-0.0610771,0.1105919-0.1291847,0.2455254-0.2042885,0.4049187c-0.0751839,0.1593513-0.1303329,0.3221169-0.165329,0.4882545
			c-0.0351105,0.1659737-0.0355072,0.3230019-0.001091,0.4707184c0.0342941,0.1477547,0.1323318,0.2661972,0.2942581,0.3556213
			c0.1578064,0.0871506,0.3093948,0.1065636,0.4547768,0.0580368c0.1451759-0.0485344,0.27882-0.1319733,0.4007568-0.2499962
			c0.1218987-0.1181488,0.2302856-0.2515106,0.3251953-0.3999672c0.0948296-0.1485023,0.1728401-0.2779655,0.2339134-0.3885574
			c0.0609894-0.1104355,0.1290627-0.2454872,0.2042885-0.4049187c0.0751038-0.1593933,0.1302109-0.3220787,0.165287-0.4881744
			c0.034996-0.1661415,0.0343513-0.3235359-0.0018005-0.4724159c-0.036396-0.1488113-0.1335182-0.2668533-0.2913246-0.3540039
			c-0.1619263-0.0894241-0.3144302-0.1092415-0.4577065-0.0596542c-0.1434402,0.0497017-0.2760468,0.1335068-0.3978691,0.2516937
			c-0.1219788,0.118103-0.2303238,0.2513885-0.3251534,0.3998909C39.3535118,32.9784203,39.2755356,33.1080055,39.21455,33.2184372z
			"/>
		<path class="st1" d="M45.8675499,35.1771851l-1.6638718-0.9188843l-0.3741798,0.6356125
			c0.1082001,0.0186081,0.2412453,0.0714073,0.3992119,0.1586456c0.2131844,0.1177292,0.3910408,0.2573051,0.5338287,0.4184532
			c0.1427803,0.1613503,0.2450142,0.3375244,0.3068504,0.5288162c0.0616798,0.1912041,0.0807877,0.3922882,0.0569954,0.6032829
			c-0.0237427,0.2109146-0.0944443,0.4229851-0.2121735,0.6361694c-0.1308136,0.2368698-0.2880135,0.4256706-0.4713593,0.5665359
			c-0.1833496,0.1408691-0.3815613,0.2362022-0.5944366,0.2860184c-0.2129517,0.0497704-0.4356804,0.0543404-0.668129,0.0134277
			c-0.2324142-0.0407867-0.4632759-0.1244469-0.6921463-0.250843c-0.363224-0.200592-0.6180725-0.4572258-0.7646523-0.7700615
			c-0.1467056-0.3128014-0.1662674-0.6738625-0.0586128-1.0831451l1.0473061,0.3001823
			c-0.0591736,0.1631279-0.0630608,0.3193626-0.0115776,0.46875c0.0513153,0.1495018,0.1540565,0.2667236,0.3079834,0.3517303
			c0.1894951,0.1046486,0.3732147,0.1287804,0.5510712,0.0725479c0.1779022-0.0563087,0.316967-0.175209,0.4172859-0.3568649
			c0.0762558-0.1380806,0.1102715-0.2674408,0.1022415-0.3878708c-0.0082321-0.1204376-0.0440102-0.2329292-0.1073761-0.3373985
			c-0.063324-0.1045456-0.1468201-0.1982117-0.2503586-0.2812386c-0.1035805-0.082943-0.2125854-0.1560669-0.3270569-0.2192841
			c-0.1460838-0.080677-0.3006935-0.1479683-0.4640274-0.2020912c-0.1633301-0.0541191-0.3270988-0.0956612-0.4914207-0.124588
			l1.3259735-2.2890625l2.5342674,1.3995705L45.8675499,35.1771851z"/>
		<path class="st1" d="M46.2251816,37.0901108c0.1373329-0.2486763,0.2994652-0.4887161,0.4866104-0.7203255
			c0.1869774-0.2314911,0.3965645-0.4196854,0.6286087-0.5646744c0.2319527-0.1448288,0.4851532-0.227787,0.7595139-0.2489166
			c0.2743988-0.0210075,0.5674477,0.0545082,0.8793373,0.2267532c0.3117332,0.1721535,0.5318794,0.3800545,0.6601601,0.6234436
			c0.128315,0.2435112,0.1928711,0.5019531,0.1938248,0.7754059c0.0007858,0.273571-0.046875,0.5511932-0.1430664,0.8328209
			c-0.0964355,0.2817001-0.2131729,0.546814-0.3505058,0.7954865s-0.299633,0.4888306-0.4866104,0.7203217
			c-0.1872215,0.2315636-0.3967667,0.4196815-0.628685,0.5646324c-0.2319984,0.1449089-0.4851189,0.2279129-0.7595177,0.2489166
			c-0.2743187,0.0210495-0.567524-0.0545502-0.8792572-0.2267075c-0.3118935-0.172245-0.5318794-0.3800583-0.6602364-0.6234894
			c-0.1282806-0.2433891-0.1929169-0.501873-0.1938286-0.7754059c-0.0009079-0.2735329,0.046711-0.551075,0.1431465-0.8327751
			C45.9709435,37.6040115,46.0878487,37.3387833,46.2251816,37.0901108z M47.113327,37.5805931
			c-0.0610771,0.1105919-0.1291847,0.2455254-0.2042885,0.4049187c-0.0751839,0.1593513-0.1303329,0.322113-0.165329,0.4882545
			c-0.0351105,0.1659737-0.0355072,0.3230019-0.001091,0.4707184c0.0342941,0.1477509,0.1323318,0.2661972,0.2942581,0.3556213
			c0.1578064,0.0871506,0.3093948,0.1065636,0.4547768,0.0580368c0.1451759-0.0485382,0.27882-0.1319733,0.4007568-0.25
			c0.1218987-0.118145,0.2302856-0.2515106,0.3251953-0.3999672c0.0948296-0.1484985,0.1728401-0.2779617,0.2339134-0.3885536
			c0.0609894-0.1104355,0.1290627-0.245491,0.2042885-0.4049187c0.0751038-0.1593971,0.1302109-0.3220787,0.165287-0.4881783
			c0.034996-0.1661377,0.0343513-0.3235321-0.0018005-0.4724159c-0.036396-0.1488075-0.1335182-0.2668533-0.2913246-0.3540001
			c-0.1619263-0.0894279-0.3144302-0.1092415-0.4577065-0.0596542c-0.1434402,0.0496979-0.2760468,0.133503-0.3978691,0.2516937
			c-0.1219788,0.118103-0.2303238,0.2513885-0.3251534,0.3998871C47.2522888,37.3405724,47.1743126,37.4701576,47.113327,37.5805931
			z"/>
	</g>
	<g>
		<path class="st1" d="M21.9456692,26.4272537l0.3532467-0.6396408l1.4960861,0.2497272l0.002985-0.0054016l-1.0066509-1.1359768
			l0.3517227-0.6368828l1.9188461,1.0596962l-0.2334747,0.4227638l-1.4716415-0.8127251l-0.0030041,0.0054398l1.1932507,1.3168201
			l-0.1781044,0.322504l-1.7395592-0.3275928l-0.0030041,0.0054398l1.4716415,0.8127232l-0.2334938,0.4228001L21.9456692,26.4272537
			z"/>
		<path class="st1" d="M24.8316498,23.8016415l-1.4985104,0.1132507l0.2903652-0.5257816l0.9427395-0.0099144l-0.4802361-0.8275623
			l0.2768898-0.5013771l0.7022266,1.3286209l0.8184757,0.4520092l-0.2334728,0.4227638L24.8316498,23.8016415z"/>
	</g>
</g>
</svg>
