<?xml version="1.0" encoding="utf-8"?>
<!-- Generator: Adobe Illustrator 23.0.1, SVG Export Plug-In . SVG Version: 6.00 Build 0)  -->
<svg version="1.1" id="Layer_1" xmlns="http://www.w3.org/2000/svg" xmlns:xlink="http://www.w3.org/1999/xlink" x="0px" y="0px"
	 viewBox="0 0 1375.2675781 561.3059692" style="enable-background:new 0 0 1375.2675781 561.3059692;" xml:space="preserve">
<style type="text/css">
	.st0{fill:#F7E6EF;}
	.st1{fill:#F7E6EF;stroke:#EE3583;stroke-width:2;stroke-miterlimit:10;}
	.st2{fill:none;stroke:#FCF4D4;stroke-linecap:round;stroke-miterlimit:10;stroke-dasharray:10;}
	.st3{fill:none;stroke:#FFFFFF;stroke-width:2;stroke-miterlimit:10;}
	.st4{fill:none;stroke:#FFFFFF;stroke-width:2;stroke-linecap:round;stroke-miterlimit:10;}
	.st5{fill:#00B1B9;stroke:#FFFFFF;stroke-width:2;stroke-miterlimit:10;}
	.st6{fill:#FFFFFF;stroke:#FFFFFF;stroke-width:2;stroke-miterlimit:10;}
	.st7{fill:none;stroke:#FFFFFF;stroke-width:3.5999999;stroke-miterlimit:10;}
	.st8{fill:none;stroke:#FFFFFF;stroke-width:3;stroke-miterlimit:10;}
	.st9{clip-path:url(#SVGID_2_);fill:none;stroke:#FFFFFF;stroke-width:3;stroke-miterlimit:10;}
</style>
<g>
	<g>
		<g>
			<path class="st0" d="M1118.4119873,211.3834839c0.3270264-0.1940918,0.0841064-0.692627-0.2701416-0.5549316
				l-48.9602051,19.0314941c-0.2895508,0.1125488-0.2514648,0.5339355,0.0534668,0.5927734l12.7390137,2.4555664
				c0.0742188,0.0144043,0.1513672,0.0009766,0.2165527-0.0377197L1118.4119873,211.3834839z"/>
			<path class="st0" d="M1120.7714844,210.1696167l-0.432373,0.3491211
				c-0.0908203-0.0942383-0.2330322-0.1402588-0.3756104-0.0556641l-37.6734619,22.3486328
				c-0.1186523,0.0704346-0.1765137,0.2109375-0.1416016,0.3446045l4.1464844,15.8686523
				c0.0627441,0.2402344,0.3685303,0.3126221,0.5322266,0.1258545l0.1052246-0.119873
				c0.083252,0.0161133,0.1708984,0.010498,0.2495117-0.0546875l14.0281982-11.6347656
				c0.2017822-0.1674805,0.1173096-0.4942627-0.1405029-0.5427246l-2.9238281-0.5498047l0.2186279-0.2492676l12.6339111,1.9204102
				c0.145752,0.0220947,0.2868652-0.0615234,0.3374023-0.2000732l9.9211426-27.2034912
				C1121.3643799,210.2218628,1121.015625,209.9724731,1120.7714844,210.1696167z"/>
		</g>
		<path class="st0" d="M1118.9064941,205.2442017l-51.5898438,19.6905518
			c-0.2895508,0.1125488-0.2514648,0.5338135,0.0535889,0.5925293l12.7388916,2.4558105
			c0.0743408,0.0142822,0.1513672,0.0008545,0.2165527-0.0378418l0.0993652-0.0588379
			c-0.1186523,0.0705566-0.1765137,0.2109375-0.1416016,0.3444824l4.1464844,15.8686523
			c0.0627441,0.2402344,0.3686523,0.3126221,0.5323486,0.1259766l0.1051025-0.119873
			c0.083252,0.0159912,0.1710205,0.010376,0.2495117-0.0546875l14.0283203-11.6350098
			c0.2016602-0.1672363,0.1171875-0.4941406-0.140625-0.5424805l-2.9238281-0.5498047l0.21875-0.2492676l12.6337891,1.9202881
			c0.145752,0.0220947,0.2868652-0.0615234,0.3374023-0.2000732l9.9211426-27.2033691
			C1119.4995117,205.2963257,1119.1506348,205.0470581,1118.9064941,205.2442017z"/>
		<path class="st0" d="M1125.3006592,205.7770386c0,0-2.2753906,0.5212402-2.6296387,0.6589355l-48.9603271,19.0314941
			c-0.2895508,0.1126709-0.2514648,0.5339355,0.0537109,0.5927734l12.7387695,2.4555664
			c0.0744629,0.0144043,0.1514893,0.0009766,0.2165527-0.0375977l19.1419678-11.3554688l-19.0424805,11.2963867
			c-0.1187744,0.0705566-0.1765137,0.2110596-0.1416016,0.3446045l4.1464844,15.8687744
			c0.0627441,0.2402344,0.3685303,0.3125,0.5323486,0.1258545l0.1051025-0.119873
			c0.083374,0.0159912,0.1710205,0.010376,0.2493896-0.0548096l14.0283203-11.6347656
			c0.2019043-0.1674805,0.1171875-0.4941406-0.1403809-0.5427246l-2.9240723-0.5496826l0.21875-0.2493896l12.6337891,1.9204102
			c0.145752,0.0222168,0.2868652-0.0615234,0.3374023-0.1999512l9.9213867-27.2034912
			C1125.8935547,205.8292847,1125.5447998,205.579895,1125.3006592,205.7770386z"/>
		<g>
			<path class="st1" d="M1069.5015869,227.7236176l12.7388916,2.4556885c0.0743408,0.014328,0.1513672,0.0009003,0.2165527-0.037735
				l36.2213135-21.4872589c0.3270264-0.1939545,0.0842285-0.6926422-0.2701416-0.5549011l-48.9602051,19.0315704
				C1069.1584473,227.2435303,1069.1965332,227.6648102,1069.5015869,227.7236176z"/>
			<path class="st1" d="M1082.4147949,230.4271698l4.1464844,15.8686829
				c0.0627441,0.2402344,0.3685303,0.3125763,0.5323486,0.1259155l33.5269775-38.2173309
				c0.2324219-0.2649078-0.0876465-0.6502991-0.3907471-0.4704895l-37.6734619,22.3486328
				C1082.4376221,230.1530304,1082.3798828,230.2935791,1082.4147949,230.4271698z"/>
			<path class="st1" d="M1090.4945068,232.3246307l-3.5435791,13.6061554
				c-0.0758057,0.2909851,0.2658691,0.5083313,0.4973145,0.3163757l14.0281982-11.6348572
				c0.2017822-0.1673889,0.1173096-0.4941864-0.1403809-0.5426331l-10.4846191-1.9713135
				C1090.6915283,232.0682983,1090.5355225,232.1671448,1090.4945068,232.3246307z"/>
			<path class="st1" d="M1091.1141357,231.6035309l29.9237061-24.1630402
				c0.2441406-0.1971588,0.5928955,0.0521698,0.4854736,0.3470001l-9.9212646,27.2034149
				c-0.0505371,0.138504-0.1917725,0.2221832-0.3375244,0.2000275l-20.0024414-3.04039
				C1090.9958496,232.1100922,1090.9046631,231.7726593,1091.1141357,231.6035309z"/>
		</g>
	</g>
	<g>
		<path class="st0" d="M1181.8726807,255.1694794l-56.4472656-2.4278564
			c-0.2788086-0.0119629-0.4299316,0.3220215-0.2368164,0.5235596l7.697998,8.0353851
			c0.0666504,0.0695801,0.1621094,0.1038818,0.2579346,0.0932617l-0.1516113,0.0175781l1.1759033,11.9545898
			c0.0349121,0.3549805,0.5437012,0.3791504,0.6120605,0.0289307l7.4123535-2.8236084l9.0859375,6.9208984
			c0.1040039,0.0792236,0.24646,0.0845947,0.3562012,0.0134277l29.550415-21.1386719
			c0.1931152-0.1381836,0.7088623-0.5805511,0.7088623-0.5805511
			C1182.2738037,255.7428436,1182.2537842,255.1858368,1181.8726807,255.1694794z"/>
		<path class="st0" d="M1187.7998047,253.6300964l-56.4472656-2.4278564
			c-0.2788086-0.0119629-0.4299316,0.3220215-0.2368164,0.5235596l7.697998,8.0354004
			c0.0666504,0.0695801,0.1621094,0.1038818,0.2579346,0.0932617l-0.1516113,0.0175781l1.1759033,11.9545898
			c0.0349121,0.3549805,0.5437012,0.3791504,0.6120605,0.0289307l7.4123535-2.8236084l9.0859375,6.9208984
			c0.1040039,0.0792236,0.24646,0.0845947,0.3562012,0.0134277l29.550415-21.1386719
			c0.1931152-0.1381836,0.7088623-0.5805664,0.7088623-0.5805664
			C1188.2009277,254.2034607,1188.1809082,253.6464539,1187.7998047,253.6300964z"/>
		<path class="st0" d="M1184.8751221,250.3336029l-56.4472656-2.4278564
			c-0.2788086-0.0119629-0.4299316,0.3220215-0.2368164,0.5235596l7.697998,8.0354156
			c0.0666504,0.0695801,0.1621094,0.1038818,0.2579346,0.0932617l-0.1516113,0.0175781l1.1759033,11.9545898
			c0.0349121,0.3549805,0.5437012,0.3791504,0.6120605,0.0289307l7.4123535-2.8236084l9.0859375,6.9208984
			c0.1040039,0.0792236,0.24646,0.0845947,0.3562012,0.0134277l29.550415-21.1386871
			c0.1931152-0.1381836,0.7088623-0.5805664,0.7088623-0.5805664
			C1185.2762451,250.9069672,1185.2562256,250.3499603,1184.8751221,250.3336029z"/>
		<g>
			<path class="st1" d="M1126.9420166,250.9480133l7.697998,8.0353546c0.0668945,0.0699158,0.1627197,0.1044617,0.2589111,0.0933838
				l48.7492676-5.6074982c0.3790283-0.0435944,0.3590088-0.6005554-0.0220947-0.6169586l-56.4472656-2.4278259
				C1126.9000244,250.4124756,1126.7489014,250.7464905,1126.9420166,250.9480133z"/>
			<path class="st1" d="M1138.409668,263.9874573l-1.8754883,7.0903015
				c-0.0683594,0.3501892-0.5771484,0.3260803-0.6120605-0.0289917l-1.1757812-11.9544373"/>
			<line class="st1" x1="1136.1466064" y1="271.3260193" x2="1183.2972412" y2="253.1616058"/>
			<path class="st1" d="M1138.5078125,264.1112671l14.5246582,11.0638428
				c0.1040039,0.0791931,0.246582,0.0845642,0.3562012,0.0133972l29.5505371-21.1386566
				c0.2750244-0.1967621,0.0805664-0.6290131-0.2491455-0.5536957l-44.0598145,10.0661011
				C1138.3717041,263.617981,1138.2974854,263.9510803,1138.5078125,264.1112671z"/>
		</g>
	</g>
	<path class="st2" d="M1076.8068848,252.738739c-19.3614502,27.4807129-57.2531738,35.8356628-90.586792,31.4853516
		c-33.3336182-4.3503418-79.7867432-19.1069336-130.5111694-17.3578186
		c-40.000061,1.379303-59.8860474,33.991272-120.6672363,36.4225464
		c-46.9769287,1.8790588-60.1625366-36.3839111-94.8258667-40.5603333
		c-63.0059814-7.5913086-55.6639404,60.5640869-162.2676392,56.1434021
		c-57.1642456-2.3705139-79.1358643-25.9995728-129.1162109-27.2811279
		c-53.2922974-1.3664856-81.2053833,6.1622314-110.4019623,17.0180359"/>
	<g>
		<g>
			<path class="st3" d="M883.8328857,273.1399841c0,0-8.4189453,36.2808838-8.4189453,51.5274353"/>
			<path class="st3" d="M888.2841187,280.884491c-2.3592529-1.8742371-5.6456299-8.0068359-5.0213013-11.9144592
				l0.0038452-0.0229187c-2.343811-0.0740967-4.6870728,0.991394-6.2109375,2.7666016
				c-0.2737427,0.3188782-0.8077393,0.1873169-0.8707886-0.2281494c-0.2143555-1.4116211,0.1168823-2.907959,0.9394531-4.078064
				c0.7478027-1.0637207,1.6428833-1.9544983,2.8280029-2.5258789c0.4248657-0.2047729,0.3627319-0.8262329-0.0970459-0.9311523
				c-1.1203003-0.2556458-2.7386475-0.5267944-4.506897-0.5067749c-0.4414673,0.0050049-0.6699219-0.5284424-0.3659058-0.8486328
				c0.6799316-0.716156,1.647644-1.1759033,2.6294556-1.3718262c1.0257568-0.2047119,2.0772095-0.1639404,3.1230469-0.0649109
				c0.4174805,0.0395203,0.6951294-0.4223022,0.4686279-0.7752075c-0.9180908-1.4303284-2.2404785-2.6001587-3.7697144-3.3417664
				c-0.4271851-0.2071533-0.3844604-0.846405,0.0812378-0.9384766c2.3870239-0.4717712,5.0141602,0.2639771,6.7446289,1.9888611
				l0.0292358,0.0337524c0.6036377-3.1348267,3.6410522-5.5728302,6.8051758-5.640213
				c0.385498-0.0082092,0.6456299,0.4086304,0.453064,0.7426605c-1.0424194,1.808197-1.3815918,4.0185242-0.9015503,6.0520935
				l0.2168579-0.0741272c3.2078247-0.4062195,6.5605469,1.0038147,8.5961304,3.4996948
				c0.3081055,0.3778076-0.0216675,0.9121399-0.4985352,0.810791c-2.2703857-0.482605-4.7356567-0.0466919-6.6878052,1.2118835
				c-0.2577515,0.1661682-0.2935791,0.5317383-0.0834961,0.7551575c1.2006836,1.2771301,4.6987915,5.2568665,5.0897827,8.6604004
				c0.055603,0.4844666-0.5539551,0.7491455-0.8738403,0.3811035c-1.6881714-1.9422607-3.7955933-3.519989-6.1386108-4.585083
				l-0.0214844,0.0358276c1.3382568,4.223999,0.6547852,6.4452209-1.9385376,10.9080505L888.2841187,280.884491z"/>
		</g>
		<g>
			<path class="st3" d="M843.7901611,273.1399841c0,0-10.802002,40.92099-10.2437744,58.7844543"/>
			<path class="st3" d="M848.2414551,280.884491c-2.359314-1.8742371-5.6456299-8.0068359-5.0213013-11.9144592l0.0038452-0.0229187
				c-2.343811-0.0740967-4.6871338,0.991394-6.2109985,2.7666016c-0.2736816,0.3188782-0.8076782,0.1873169-0.8707275-0.2281494
				c-0.2143555-1.4116211,0.1168823-2.907959,0.9394531-4.078064c0.7478027-1.0637207,1.6428223-1.9544983,2.8280029-2.5258789
				c0.4248047-0.2047729,0.3627319-0.8262329-0.0970459-0.9311523c-1.1203003-0.2556458-2.7386475-0.5267944-4.506897-0.5067749
				c-0.4415283,0.0050049-0.6699219-0.5284424-0.3659058-0.8486328c0.6799316-0.716156,1.647644-1.1759033,2.6294556-1.3718262
				c1.0257568-0.2047119,2.0772095-0.1639404,3.1229858-0.0649109c0.4175415,0.0395203,0.6951904-0.4223022,0.4686279-0.7752075
				c-0.9180298-1.4303284-2.2404175-2.6001587-3.7696533-3.3417664c-0.4271851-0.2071533-0.3845215-0.846405,0.0812378-0.9384766
				c2.3869629-0.4717712,5.0140991,0.2639771,6.7446289,1.9888611l0.0292358,0.0337524
				c0.6036377-3.1348267,3.6409912-5.5728302,6.8051758-5.640213c0.385498-0.0082092,0.6456299,0.4086304,0.453064,0.7426605
				c-1.0424194,1.808197-1.3815918,4.0185242-0.9015503,6.0520935l0.2168579-0.0741272
				c3.2078247-0.4062195,6.5605469,1.0038147,8.5960693,3.4996948c0.3081665,0.3778076-0.0216064,0.9121399-0.4984741,0.810791
				c-2.2704468-0.482605-4.7356567-0.0466919-6.6878052,1.2118835c-0.2577515,0.1661682-0.2935791,0.5317383-0.0835571,0.7551575
				c1.2006836,1.2771301,4.6988525,5.2568665,5.0897827,8.6604004c0.0556641,0.4844666-0.5539551,0.7491455-0.8738403,0.3811035
				c-1.6881104-1.9422607-3.7955322-3.519989-6.1385498-4.585083l-0.0215454,0.0358276
				c1.3382568,4.223999,0.6548462,6.4452209-1.9384766,10.9080505L848.2414551,280.884491z"/>
		</g>
		<g>
			<path class="st3" d="M812.0081787,273.1399841c0,0,8.6988525,33.4897156,8.6988525,48.7362671"/>
			<path class="st3" d="M807.5569458,280.884491c2.3592529-1.8742371,5.6455688-8.0068359,5.0212402-11.9144592
				l-0.0038452-0.0229187c2.343811-0.0740967,4.6871338,0.991394,6.2109985,2.7666016
				c0.2736816,0.3188782,0.8076782,0.1873169,0.8707886-0.2281494c0.2142944-1.4116211-0.1168823-2.907959-0.9395142-4.078064
				c-0.7478027-1.0637207-1.6428223-1.9544983-2.8280029-2.5258789c-0.4248047-0.2047729-0.3627319-0.8262329,0.0970459-0.9311523
				c1.1203003-0.2556458,2.7387085-0.5267944,4.506897-0.5067749c0.4415283,0.0050049,0.6699829-0.5284424,0.3659668-0.8486328
				c-0.6799316-0.716156-1.6477051-1.1759033-2.6295166-1.3718262c-1.0257568-0.2047119-2.0771484-0.1639404-3.1229858-0.0649109
				c-0.4174805,0.0395203-0.6951294-0.4223022-0.4686279-0.7752075c0.9180298-1.4303284,2.2404175-2.6001587,3.7697144-3.3417664
				c0.427124-0.2071533,0.3844604-0.846405-0.0812988-0.9384766c-2.3869629-0.4717712-5.0140991,0.2639771-6.7445679,1.9888611
				l-0.0292358,0.0337524c-0.6036987-3.1348267-3.6410522-5.5728302-6.8052368-5.640213
				c-0.385437-0.0082092-0.6455688,0.4086304-0.4530029,0.7426605c1.0423584,1.808197,1.3815308,4.0185242,0.9014893,6.0520935
				l-0.2168579-0.0741272c-3.2078247-0.4062195-6.5605469,1.0038147-8.5960693,3.4996948
				c-0.3081055,0.3778076,0.0216064,0.9121399,0.4984741,0.810791c2.2704468-0.482605,4.7357178-0.0466919,6.6878662,1.2118835
				c0.2576904,0.1661682,0.2935181,0.5317383,0.0834961,0.7551575c-1.2006836,1.2771301-4.6988525,5.2568665-5.0897827,8.6604004
				c-0.0556641,0.4844666,0.5539551,0.7491455,0.8738403,0.3811035c1.6881714-1.9422607,3.7955933-3.519989,6.1386108-4.585083
				l0.0214844,0.0358276c-1.3382568,4.223999-0.6547852,6.4452209,1.9385376,10.9080505L807.5569458,280.884491z"/>
		</g>
	</g>
	<g>
		<line class="st4" x1="1198.6055908" y1="220.9635773" x2="1192.6943359" y2="231.2930756"/>
		<line class="st4" x1="1208.2969971" y1="238.3439331" x2="1202.177002" y2="241.9086151"/>
		<line class="st4" x1="1178.4222412" y1="222.447464" x2="1178.4448242" y2="228.3251801"/>
		<line class="st4" x1="1218.3549805" y1="254.8703156" x2="1206.4538574" y2="254.915863"/>
		<line class="st4" x1="1207.1066895" y1="271.6941528" x2="1202.005249" y2="268.7747803"/>
	</g>
	<g>
		<path class="st3" d="M202.942749,301.8236389l-32.9288025,21.9185791
			c-0.2298737,0.1530151-0.5402679,0.0906982-0.6932831-0.1391602l-21.9185791-32.9288025
			c-0.1530151-0.2298889-0.0906982-0.5402832,0.1391754-0.6932983l32.9288025-21.9185791
			c0.2298737-0.1530151,0.5402679-0.0906982,0.6932831,0.1391907l21.9185791,32.9288025
			C203.2349396,301.3602295,203.1726227,301.6706238,202.942749,301.8236389z"/>
		<g>
			<g>
				<path class="st5" d="M188.7810059,260.485321l-12.2982483,41.8123169
					c-0.0779266,0.2649231,0.0736694,0.5428467,0.3385925,0.6207581l30.8258514,9.066803
					c0.1417236,0.041687,0.2946472,0.0185547,0.4177246-0.0631714l14.8353119-9.8534851
					c0.0979614-0.065094,0.1698608-0.1625977,0.2030334-0.2754211l8.4495087-28.7272644
					c0.0779266-0.2649231-0.0736694-0.5428467-0.3385925-0.6207886l-41.8124084-12.2983398
					C189.1368561,260.0688171,188.8589325,260.2203979,188.7810059,260.485321z"/>
			</g>
			<path class="st5" d="M207.9535065,312.2367554l1.2794952-11.1456909c0.0314941-0.274353,0.2794189-0.4712219,0.5537567-0.4397278
				l13.3694305,1.53479"/>
			<line class="st6" x1="223.156189" y1="302.1861267" x2="207.9535065" y2="312.2367554"/>
			<line class="st6" x1="207.9535065" y1="312.2367554" x2="223.156189" y2="302.1861267"/>
		</g>
		<g>
			<line class="st4" x1="134.9612427" y1="293.2645264" x2="138.299881" y2="293.0357666"/>
			<line class="st4" x1="134.1605377" y1="284.1584778" x2="139.211319" y2="286.6306763"/>
			<line class="st4" x1="142.4472504" y1="279.3868408" x2="143.9970398" y2="281.6914673"/>
		</g>
	</g>
	<path class="st7" d="M1353.1063232,318.1051941v-9.0014343h-4.1151123v-2.9393005h-2.8216553
		c0,0-1.7635498-11.7572021-15.5195312-11.7572021c-13.7558594,0-16.6951904,12.6977539-16.6951904,12.6977539h-3.0568848v4.8204651
		h-7.4625244v-4.7028809c0,0-0.1175537-6.5840454-7.0543213-6.5840454s-7.4071045,6.7016296-7.4071045,6.7016296v7.994873h-5.822998
		v4.8204651h-7.171875l-9.6409912,3.4095764v15.7030334"/>
	<g>
		<g>
			<path class="st0" d="M203.1269073,304.4833374l-32.9288025,21.9185791
				c-0.2298737,0.1530151-0.5402679,0.0906982-0.6932831-0.1391602l-21.9185791-32.9288025
				c-0.1530151-0.2298889-0.0906982-0.5402832,0.1391754-0.6932983l32.9288025-21.9185791
				c0.2298737-0.1529846,0.5402679-0.0906982,0.6932831,0.1391907l21.9185791,32.9288025
				C203.4190979,304.019928,203.356781,304.3303223,203.1269073,304.4833374z"/>
			<g>
				<g>
					<path class="st0" d="M188.9651642,263.1450195l-12.2982483,41.8123169
						c-0.0779114,0.2649231,0.0736694,0.5428467,0.3385925,0.6207581l30.8258514,9.066803
						c0.1417389,0.041687,0.2946472,0.0185852,0.4177246-0.0631714l14.8353119-9.8534851
						c0.0979614-0.0650635,0.1698608-0.1625977,0.2030487-0.2754211l8.4495087-28.7272644
						c0.0779114-0.2649231-0.0736847-0.5428467-0.3385925-0.6207886l-41.8124237-12.2983398
						C189.3210144,262.7285156,189.0430908,262.8800964,188.9651642,263.1450195z"/>
				</g>
				<path class="st0" d="M208.1376648,314.8964539l1.2794952-11.1456909
					c0.0314941-0.274353,0.2794189-0.4712219,0.5537567-0.4397278l13.3694305,1.53479"/>
				<line class="st0" x1="223.3403473" y1="304.8458252" x2="208.1376648" y2="314.8964539"/>
				<line class="st0" x1="208.1376648" y1="314.8964539" x2="223.3403473" y2="304.8458252"/>
			</g>
		</g>
		<g>
			<path class="st0" d="M206.8185425,300.4321289L173.88974,322.3507385
				c-0.2298737,0.1529846-0.5402679,0.0906982-0.6932831-0.1391907l-21.9185791-32.9288025
				c-0.1530151-0.2298584-0.0906982-0.5402527,0.1391754-0.6932678l32.9288025-21.9185791
				c0.2298737-0.1530151,0.5402679-0.0906982,0.6932831,0.1391602l21.9185791,32.9288025
				C207.110733,299.96875,207.0484161,300.2791443,206.8185425,300.4321289z"/>
			<g>
				<g>
					<path class="st0" d="M192.6568146,259.0938416l-12.2982635,41.8122864
						c-0.0779114,0.2649231,0.0736694,0.5428467,0.3385925,0.6207581l30.8258514,9.0668335
						c0.1417389,0.041687,0.2946472,0.0185547,0.4177246-0.0632019l14.8353119-9.8534851
						c0.0979614-0.0650635,0.1698608-0.1625977,0.2030487-0.2754211l8.4495087-28.7272644
						c0.0779114-0.2649231-0.0736694-0.5428467-0.3385925-0.6207581l-41.8124237-12.2983398
						C193.0126648,258.6773071,192.734726,258.8289185,192.6568146,259.0938416z"/>
				</g>
				<path class="st0" d="M211.8292999,310.8452759l1.2794952-11.1457214
					c0.0314941-0.2743225,0.2794189-0.4711914,0.5537567-0.4396973l13.3694305,1.5347595"/>
				<line class="st0" x1="227.0319824" y1="300.7946167" x2="211.8292999" y2="310.8452759"/>
				<line class="st0" x1="211.8292999" y1="310.8452759" x2="227.0319824" y2="300.7946167"/>
			</g>
		</g>
		<g>
			<path class="st1" d="M203.5544891,301.6265869l-32.9288025,21.9185791
				c-0.2298737,0.1530151-0.5402679,0.0906982-0.6932831-0.1391907l-21.9185791-32.9288025
				c-0.1529999-0.2298584-0.0906982-0.5402527,0.1391754-0.6932678l32.9288025-21.9185791
				c0.2298737-0.1530151,0.5402679-0.0906982,0.6932831,0.1391602l21.9185791,32.9288025
				C203.8466797,301.1631775,203.7843628,301.4735718,203.5544891,301.6265869z"/>
			<g>
				<g>
					<path class="st1" d="M189.3927612,260.288269l-12.2982635,41.8122864
						c-0.0779114,0.2649231,0.0736847,0.5428467,0.3385925,0.6207581l30.8258514,9.0668335
						c0.1417389,0.041687,0.2946472,0.0185547,0.4177246-0.0632019l14.8353119-9.8534851
						c0.0979614-0.0650635,0.1698608-0.1625977,0.2030487-0.2754211l8.4495087-28.7272644
						c0.0779114-0.2649231-0.0736694-0.5428467-0.3385925-0.6207581l-41.8124237-12.2983398
						C189.7486115,259.8717346,189.4706726,260.0233459,189.3927612,260.288269z"/>
				</g>
				<path class="st1" d="M208.5652466,312.0397034l1.2794952-11.1457214
					c0.0314941-0.2743225,0.2794189-0.4711914,0.5537567-0.4396973l13.3694305,1.5347595"/>
				<line class="st1" x1="223.7679291" y1="301.9890442" x2="208.5652466" y2="312.0397034"/>
				<line class="st1" x1="208.5652466" y1="312.0397034" x2="223.7679291" y2="301.9890442"/>
			</g>
		</g>
	</g>
	<path class="st8" d="M149.1534271,366.5652771h166.661026c0.2761536,0,0.5-0.2238464,0.5-0.5v-21.4021606
		c0-0.2761536,0.2238464-0.5,0.5-0.5h19.1619568c0.2761536,0,0.5,0.2238464,0.5,0.5v21.4021606c0,0.2761536,0.2238464,0.5,0.5,0.5
		h9.0809937c0.276123,0,0.5-0.2238464,0.5-0.5v-81.8880615c0-0.276123,0.2238464-0.5,0.5-0.5h51.6451111
		c0.276123,0,0.5,0.223877,0.5,0.5v7.9608765c0,0.2761536,0.2238464,0.5,0.5,0.5h9.0809631c0.2761536,0,0.5,0.223877,0.5,0.5
		v10.2011108c0,0.276123,0.223877,0.5,0.5,0.5h14.6815186c0.2761536,0,0.5,0.2238464,0.5,0.5v58.3657532
		c0,0.2761536,0.223877,0.5,0.5,0.5h9.0809937c0.2761536,0,0.5-0.2238464,0.5-0.5v-32.6032715c0-0.276123,0.2238464-0.5,0.5-0.5
		h23.642395c0.2761536,0,0.5-0.2238464,0.5-0.5v-32.6032715c0-0.276123,0.2238464-0.5,0.5-0.5h6.8407593
		c0.2761536,0,0.5-0.2238464,0.5-0.5v-6.8407593c0-0.276123,0.2238464-0.5,0.5-0.5h6.8407593c0.2761536,0,0.5-0.2238464,0.5-0.5
		v-6.8707581c0-0.276123,0.223877-0.5,0.5-0.5h4.4101257c0.2761536,0,0.5-0.2238464,0.5-0.5v-26.7042999
		c0-0.2761383,0.2238464-0.5,0.5-0.5h15.0863647c0.2761536,0,0.5,0.2238617,0.5,0.5v25.8106232c0,0.2761536,0.223877,0.5,0.5,0.5
		h5.2558289c0.276123,0,0.5,0.2238464,0.5,0.5v23.5763855c0,0.2761536,0.2238464,0.5,0.5,0.5h5.2557983
		c0.2761536,0,0.5,0.223877,0.5,0.5v39.6627808c0,0.2761536,0.2238464,0.5,0.5,0.5h7.4900208c0.276123,0,0.5,0.2238464,0.5,0.5
		v12.405304c0,0.2761536,0.223877,0.5,0.5,0.5h8.383728c0.276123,0,0.5-0.2238464,0.5-0.5v-37.8753967
		c0-0.276123,0.223877-0.5,0.5-0.5h20.0016479c0.276123,0,0.5-0.2238464,0.5-0.5v-20.8953247c0-0.2761536,0.223877-0.5,0.5-0.5
		h26.7042847c0.2761841,0,0.5,0.2238464,0.5,0.5v53.5149231c0,0.2761536,0.223877,0.5,0.5,0.5h12.4053345
		c0.276123,0,0.5-0.2238464,0.5-0.5V296.873291c0-0.2761536,0.223877-0.5,0.5-0.5H602.71521c0.276123,0,0.5-0.223877,0.5-0.5
		v-19.5548096c0-0.2761536,0.2238159-0.5,0.5-0.5h24.0231934c0.2761841,0,0.5,0.2238464,0.5,0.5v71.3886719
		c0,0.276123,0.223877,0.5,0.5,0.5h11.9584961c0.276123,0,0.5,0.2238464,0.5,0.5v7.4900208c0,0.276123,0.223877,0.5,0.5,0.5
		h7.9368896c0.276123,0,0.5-0.223877,0.5-0.5v-54.4086304c0-0.276123,0.2238159-0.5,0.5-0.5h3.4683838
		c0.2761841,0,0.5-0.2238464,0.5-0.5v-6.5963135c0-0.2761536,0.223877-0.5,0.5-0.5h11.5116577c0.276123,0,0.5,0.2238464,0.5,0.5
		v7.4900208c0,0.276123,0.223877,0.5,0.5,0.5h3.9152832c0.276123,0,0.5,0.2238464,0.5,0.5v46.8934021
		c0,0.3848267,0.4165039,0.6253967,0.7498779,0.4331055l10.6179199-6.1257324
		c0.1547852-0.0892944,0.2501221-0.254425,0.2501221-0.4331055v-60.8756409c0-0.2761536,0.223877-0.5,0.5-0.5h7.4900513
		c0.276123,0,0.5-0.2238464,0.5-0.5V266.487915c0-0.2761536,0.2238159-0.5,0.5-0.5h8.8305664c0.276123,0,0.5,0.2238464,0.5,0.5
		v14.192688c0,0.276123,0.2238159,0.5,0.5,0.5h6.5963135c0.276123,0,0.5,0.2238464,0.5,0.5v32.9601135
		c0,0.276123,0.223877,0.5,0.5,0.5h5.7026367c0.2761841,0,0.5,0.2238464,0.5,0.5v25.8106079c0,0.2761536,0.223877,0.5,0.5,0.5
		h7.9368896c0.276123,0,0.5,0.2238464,0.5,0.5v5.2558289c0,0.276123,0.223877,0.5,0.5,0.5h7.4900513
		c0.276123,0,0.5-0.223877,0.5-0.5v-28.2576599c0-0.1778259,0.0944214-0.3422852,0.2480469-0.4318848l4.9910278-2.911438
		c0.0804443-0.0469055,0.1723633-0.0704346,0.2654419-0.0679321l16.213562,0.4382019
		c0.1146851,0.0031128,0.2247925,0.0455322,0.3118896,0.1202087l2.8186646,2.4159851
		c0.1108398,0.0950012,0.1746216,0.2336731,0.1746216,0.3796387v31.4427795c0,0.276123,0.2238159,0.5,0.5,0.5h5.2557983
		c0.276123,0,0.5,0.2238464,0.5,0.5v3.9152832c0,0.276123,0.2238159,0.5,0.5,0.5h11.9500122
		c0.3442993,0,0.5855713-0.3398438,0.4720459-0.6648865l-8.5368042-24.4408569
		c-0.059082-0.1690674-0.0256958-0.3549805,0.092041-0.4899597c1.9244995-2.2073975,18.574646-20.3876648,43.7250977-18.9526978
		c0.1883545,0.0107422,0.3562622,0.1289062,0.4325562,0.3015137c4.0574951,9.1825256,11.2651367,15.6943054,22.7832031,20.8281555
		c0.2043457,0.091095,0.3262939,0.3074951,0.2926636,0.5286865l-3.1710815,20.8386841
		c-0.0460205,0.3024292,0.1878662,0.5749207,0.4937744,0.5752258l9.557312,0.0095825
		c0.2763062,0.0002747,0.5004883-0.2236633,0.5004883-0.5v-40.8772888c0-0.2761536,0.223877-0.5,0.5-0.5h18.6611328
		c0.276123,0,0.5,0.2238464,0.5,0.5v11.0647888c0,0.276123,0.2238159,0.5,0.5,0.5h15.0863647c0.276123,0,0.5,0.2238464,0.5,0.5
		v10.6179199c0,0.2761536,0.223877,0.5,0.5,0.5h3.4684448c0.276123,0,0.5,0.2238464,0.5,0.5v10.1710815
		c0,0.2761536,0.2238159,0.5,0.5,0.5h4.80896c0.276123,0,0.5,0.223877,0.5,0.5v16.4269104c0,0.2761536,0.223877,0.5,0.5,0.5
		h7.4899902c0.2761841,0,0.5-0.2238464,0.5-0.5v-27.1511536c0-0.276123,0.223877-0.5,0.5-0.5h18.6611328
		c0.2761841,0,0.5,0.223877,0.5,0.5v20.8953552c0,0.276123,0.223877,0.5,0.5,0.5h5.2557983c0.2761841,0,0.5,0.2238464,0.5,0.5
		v4.3621216c0,0.276123,0.223877,0.5,0.5,0.5h9.2774048c0.2761841,0,0.5-0.223877,0.5-0.5v-25.8106384
		c0-0.276123,0.223877-0.5,0.5-0.5h4.809021c0.276123,0,0.5-0.2238464,0.5-0.5v-6.1494751c0-0.2761536,0.2238159-0.5,0.5-0.5
		h19.5548096c0.276123,0,0.5,0.2238464,0.5,0.5v13.2989807c0,0.2761536,0.2238159,0.5,0.5,0.5h10.1710815
		c0.276123,0,0.5,0.2238464,0.5,0.5v11.5116272c0,0.2761536,0.2238159,0.5,0.5,0.5h14.192688c0.276123,0,0.5-0.2238464,0.5-0.5
		v-48.4215698c0-0.146698,0.0643921-0.2859802,0.1761475-0.3809814l8.4544067-7.1862183
		c0.178894-0.1520691,0.4394531-0.1591797,0.6263428-0.0171204l10.6644897,8.1049805
		c0.1182251,0.0898438,0.1903687,0.2275696,0.1969604,0.375885l0.8609619,19.371582
		c0.0123291,0.276947,0.2476196,0.4910278,0.5244751,0.4771729l7.9215698-0.3960571
		c0.2811279-0.0140686,0.5184326,0.206604,0.5248413,0.4880066l0.4240723,18.6588135
		c0.0061646,0.271637,0.2281494,0.4886475,0.4998169,0.4886475h6.1607056c0.2762451,0,0.5-0.223877,0.5-0.5V310.278595
		c0-0.2761536,0.223877-0.5,0.5-0.5h24.4700928c0.2762451,0,0.5,0.2238464,0.5,0.5v63.7923279c0,0.276123,0.223877,0.5,0.5,0.5
		h5.2558594c0.276123,0,0.5-0.223877,0.5-0.5v-36.98172c0-0.2761536,0.223877-0.5,0.5-0.5h20.4299316
		c0.2769775,0,0.5010986,0.2250671,0.5,0.5019531l-0.1221924,31.1989136c-0.0010986,0.276886,0.2231445,0.5019531,0.5,0.5019531
		h291.5355225"/>
	<path class="st2" d="M245.0646362,311.281311c91.7815552-29.2744751,151.8902588,39.4930115,253.0591736,32.7484131
		c35.3356628-2.3557129,113.9336853-29.3865356,149.344574-28.9053955
		c71.9952393,0.9782104,134.4240723,46.9958191,203.3013306,26.0148621
		c43.7503052-13.3269348,68.9229736-28.9053955,114.6580811-28.9053955c36.6135254,0,64.5553589,11.5621643,102.1323853,11.5621643
		c34.9000244,0,43.3581543-16.3797302,56.196167-31.6127625"/>
	<g>
		<defs>
			<rect id="SVGID_1_" x="4.6337628" width="1366" height="561.3059692"/>
		</defs>
		<clipPath id="SVGID_2_">
			<use xlink:href="#SVGID_1_"  style="overflow:visible;"/>
		</clipPath>
		<path class="st9" d="M1379.4173584,313.7315063c-5.2706299-3.1910706-12.1044922-2.2724609-17.814209,0.0429382
			c-5.7098389,2.3154297-10.8656006,5.883606-16.663208,7.9694519c-9.9748535,3.5887146-22.5340576,3.8389893-33.0400391,5.2527771
			c-36.1351318,4.8627319-65.5177002,19.478241-88.2008057,41.1026917"/>
		<path class="st9" d="M-190.5403442,373.5378723c-0.4957733-4.2015686,4.6603699-8.4218445,12.1804352-9.9696045
			c9.7928009-2.0155334,22.6144867,0.7026062,25.3601227,6.4030762c0.0590363,0.1226196,0.2424469,0.2239075,0.4756927,0.2590332
			c12.078476,1.8182678,10.7019653-2.934021,10.9218292-6.2077332c0.227951-3.394165,4.1151123-6.6588745,9.8530579-8.275238
			c5.4444962-1.5337219,12.3641205-1.5296021,17.82724-0.0240479c0.4261398,0.1174622,0.473671,0.4272461,0.1035156,0.5881042
			c-7.496109,3.2574463-15.2161407,7.1701965-9.4215775,13.6409607c0.075325,0.084137,0.2186432,0.1549988,0.3835678,0.1902466
			c16.1226959,3.4461975,14.283638-5.9617615,23.3240738-7.5932007c8.2561035-1.4898987,16.1951294,5.0200806,18.41185,6.8543396
			c0.0576782,0.047699,0.1345596,0.0854187,0.2266388,0.1150818c11.951889,3.8531799,16.1807709-0.627594,20.176796-4.0558777
			c2.642643-2.2671814,7.3739128-4.5999146,12.1478348-3.6742554c6.3374672,1.2288208,6.1822052,7.1210022,17.0019684,5.4174805
			c0.0496578-0.007843,0.103241-0.0195312,0.1516056-0.0332336c8.0562077-2.2825623,8.277256-7.1729431,13.6262684-10.2846069
			c3.3187943-1.9306335,9.9898701-2.6915588,13.0925426-0.8171692c0.2899313,0.1751709,0.1912551,0.4389038-0.1924005,0.5554199
			c-5.8559189,1.7781677-8.0659161,6.2646179-4.3723764,9.2553101c3.8378496,3.1075439,13.1439943,3.8669434,18.6244106,1.5197449
			c4.177536-1.7891846,7.3252821-5.276001,11.8883028-6.7886658c4.5630226-1.5126343,10.5435562-2.1698914,15.4337101-0.9656677
			c4.2721481,1.0520325,6.9326134,3.2680054,10.1102295,5.0890808s7.9529991,3.3994751,12.4046555,2.5733948
			c4.3505554-0.8073425,6.1214256-3.4301453,7.7748756-5.6751099s4.7370605-4.7501221,9.3523407-4.6572266
			c8.2472534,0.1660156,7.8960114,7.4745178,15.2578201,9.4168701c5.1451492,1.3575134,11.4093246-0.7075195,14.3974304-3.2759399
			s4.1310883-5.6453552,7.3414917-8.1400452c2.3901901-1.8572998,6.7570953-3.3119507,10.7887421-3.2279358
			c1.0369034,0.0215759,1.3384781,1.4128418,0.4197998,1.8941345c-4.0801239,2.1376648-4.9585953,5.9556885-2.0501938,8.7026978
			c3.6126556,3.4122009,11.3740616,4.1786194,18.8491745,4.3740845c7.4509277,0.1948242,22.885025-0.1692505,22.885025-0.1692505
			s0.0934906-0.0107422,0.1409149-0.0107422"/>
	</g>
</g>
</svg>
