<?xml version="1.0" encoding="utf-8"?>
<!-- Generator: Adobe Illustrator 23.0.1, SVG Export Plug-In . SVG Version: 6.00 Build 0)  -->
<svg version="1.1" id="Layer_1" xmlns="http://www.w3.org/2000/svg" xmlns:xlink="http://www.w3.org/1999/xlink" x="0px" y="0px"
	 viewBox="0 0 1384.5699463 172.8999939" style="enable-background:new 0 0 1384.5699463 172.8999939;" xml:space="preserve">
<style type="text/css">
	.st0{fill:#F7E6EF;}
	.st1{fill:#F7E6EF;stroke:#EE3583;stroke-width:2;stroke-miterlimit:10;}
	.st2{fill:none;stroke:#FCF4D4;stroke-linecap:round;stroke-miterlimit:10;stroke-dasharray:10;}
	.st3{fill:none;stroke:#FFFFFF;stroke-width:2;stroke-miterlimit:10;}
	.st4{fill:none;stroke:#FFFFFF;stroke-width:2;stroke-linecap:round;stroke-miterlimit:10;}
	.st5{fill:#00B1B9;stroke:#FFFFFF;stroke-width:2;stroke-miterlimit:10;}
	.st6{fill:#FFFFFF;stroke:#FFFFFF;stroke-width:2;stroke-miterlimit:10;}
	.st7{fill:none;stroke:#FFFFFF;stroke-width:3.5999999;stroke-miterlimit:10;}
	.st8{fill:none;stroke:#FFFFFF;stroke-width:3;stroke-miterlimit:10;}
</style>
<g>
	<g>
		<path class="st0" d="M1116.8638916,7.2111349c0.3270264-0.1940918,0.0841064-0.692627-0.2701416-0.5549316l-48.9602051,19.0314941
			c-0.2895508,0.1125488-0.2514648,0.5339355,0.0534668,0.5927734l12.7390137,2.4555664
			c0.0742188,0.0144043,0.1513672,0.0009766,0.2165527-0.0377197L1116.8638916,7.2111349z"/>
		<path class="st0" d="M1119.2233887,5.9972677l-0.432373,0.3491211c-0.0908203-0.0942383-0.2330322-0.1402588-0.3756104-0.0556641
			l-37.6734619,22.3486328c-0.1186523,0.0704346-0.1765137,0.2109375-0.1416016,0.3446045l4.1464844,15.8686543
			c0.0627441,0.2402344,0.3685303,0.3126221,0.5322266,0.1258545l0.1052246-0.119873
			c0.083252,0.0161133,0.1708984,0.010498,0.2495117-0.0546875l14.0281982-11.6347656
			c0.2017822-0.1674805,0.1173096-0.4942627-0.1405029-0.5427246l-2.9238281-0.5498047l0.2186279-0.2492695l12.6339111,1.9204121
			c0.145752,0.0220947,0.2868652-0.0615234,0.3374023-0.2000732l9.9211426-27.2034912
			C1119.8162842,6.0495138,1119.4675293,5.8001242,1119.2233887,5.9972677z"/>
	</g>
	<path class="st0" d="M1117.3583984,1.0718524l-51.5898438,19.6905518
		c-0.2895508,0.1125488-0.2514648,0.5338135,0.0535889,0.5925293l12.7388916,2.4558105
		c0.0743408,0.0142822,0.1513672,0.0008545,0.2165527-0.0378418l0.0993652-0.0588379
		c-0.1186523,0.0705566-0.1765137,0.2109375-0.1416016,0.3444824l4.1464844,15.8686543
		c0.0627441,0.2402344,0.3686523,0.3126221,0.5323486,0.1259766l0.1051025-0.119873
		c0.083252,0.0159912,0.1710205,0.010376,0.2495117-0.0546875l14.0283203-11.6350117
		c0.2016602-0.1672363,0.1171875-0.4941406-0.140625-0.5424805l-2.9238281-0.5498047l0.21875-0.2492676l12.6337891,1.9202881
		c0.145752,0.0220947,0.2868652-0.0615234,0.3374023-0.2000732l9.9211426-27.2033691
		C1117.951416,1.1239765,1117.6025391,0.8747089,1117.3583984,1.0718524z"/>
	<path class="st0" d="M1123.7525635,1.6046894c0,0-2.2753906,0.5212402-2.6296387,0.6589355l-48.9603271,19.0314941
		c-0.2895508,0.1126709-0.2514648,0.5339355,0.0537109,0.5927734l12.7387695,2.4555664
		c0.0744629,0.0144043,0.1514893,0.0009766,0.2165527-0.0375977l19.1419678-11.3554678l-19.0424805,11.2963858
		c-0.1187744,0.0705566-0.1765137,0.2110596-0.1416016,0.3446045l4.1464844,15.8687763
		c0.0627441,0.2402344,0.3685303,0.3125,0.5323486,0.1258545l0.1051025-0.119873
		c0.083374,0.0159912,0.1710205,0.010376,0.2493896-0.0548096l14.0283203-11.6347675
		c0.2019043-0.1674805,0.1171875-0.4941406-0.1403809-0.5427246l-2.9240723-0.5496826l0.21875-0.2493896l12.6337891,1.9204102
		c0.145752,0.0222168,0.2868652-0.0615234,0.3374023-0.1999512l9.9213867-27.2034912
		C1124.345459,1.6569355,1123.9967041,1.4075458,1123.7525635,1.6046894z"/>
	<g>
		<path class="st1" d="M1067.9534912,23.5512695l12.7388916,2.4556847c0.0743408,0.0143394,0.1514893,0.0009136,0.2165527-0.037735
			l36.2214355-21.4872456c0.3269043-0.1939688,0.0841064-0.6926446-0.2701416-0.5549033l-48.9603271,19.0315609
			C1067.6103516,23.0711899,1067.6484375,23.4924641,1067.9534912,23.5512695z"/>
		<path class="st1" d="M1080.8668213,26.2548218l4.1463623,15.8686905c0.0628662,0.2402344,0.3686523,0.3125725,0.5323486,0.1259155
			l33.5270996-38.2173309c0.2322998-0.2649159-0.0876465-0.6502995-0.3907471-0.4705l-37.6734619,22.3486443
			C1080.8896484,25.9806824,1080.8319092,26.1212368,1080.8668213,26.2548218z"/>
		<path class="st1" d="M1088.9465332,28.1522808l-3.5437012,13.6061573
			c-0.0756836,0.2909889,0.2658691,0.5083313,0.4973145,0.3163719l14.0283203-11.6348553
			c0.2017822-0.1673889,0.1171875-0.4941864-0.1405029-0.542635l-10.4846191-1.9713039
			C1089.1434326,27.8959465,1088.9875488,27.9948025,1088.9465332,28.1522808z"/>
		<path class="st1" d="M1089.56604,27.431181l29.9238281-24.1630363c0.2441406-0.1971521,0.5928955,0.0521722,0.4853516,0.3469937
			l-9.9212646,27.2034187c-0.0505371,0.1385021-0.1916504,0.2221832-0.3374023,0.2000294l-20.0025635-3.0403824
			C1089.447876,27.937748,1089.3565674,27.6003208,1089.56604,27.431181z"/>
	</g>
</g>
<g>
	<path class="st0" d="M1180.324707,50.9971313l-56.4472656-2.4278564c-0.2788086-0.0119629-0.4299316,0.3220215-0.2368164,0.5235596
		l7.697998,8.0354004c0.0666504,0.0695801,0.1621094,0.1038818,0.2579346,0.0932617l-0.1516113,0.0175781l1.1759033,11.9545898
		c0.0349121,0.3549805,0.5437012,0.3791504,0.6120605,0.0289307l7.4123535-2.8236084l9.0859375,6.9208984
		c0.1040039,0.0792236,0.24646,0.0845947,0.3562012,0.0134277l29.550415-21.1386719
		c0.1931152-0.1381836,0.7088623-0.5805664,0.7088623-0.5805664
		C1180.7258301,51.5704956,1180.7058105,51.0134888,1180.324707,50.9971313z"/>
	<path class="st0" d="M1186.2518311,49.4577446l-56.4472656-2.4278564
		c-0.2788086-0.0119629-0.4299316,0.3220215-0.2368164,0.5235596l7.697998,8.0354004
		c0.0666504,0.0695801,0.1621094,0.1038818,0.2579346,0.0932617l-0.1516113,0.0175781l1.1759033,11.954586
		c0.0349121,0.3549805,0.5437012,0.3791504,0.6120605,0.0289307l7.4123535-2.8236084l9.0859375,6.9208984
		c0.1040039,0.0792236,0.24646,0.0845947,0.3562012,0.0134277l29.550415-21.1386681
		c0.1931152-0.1381836,0.7088623-0.5805664,0.7088623-0.5805664
		C1186.6529541,50.0311089,1186.6329346,49.474102,1186.2518311,49.4577446z"/>
	<path class="st0" d="M1183.3271484,46.1612587l-56.4472656-2.4278564
		c-0.2788086-0.0119629-0.4299316,0.3220215-0.2368164,0.5235596l7.697998,8.0354004
		c0.0666504,0.0695801,0.1621094,0.1038818,0.2579346,0.0932617l-0.1516113,0.0175781l1.1759033,11.9545937
		c0.0349121,0.3549805,0.5437012,0.3791504,0.6120605,0.0289307l7.4123535-2.8236122l9.0859375,6.9209023
		c0.1040039,0.0792236,0.24646,0.0845947,0.3562012,0.0134277l29.550415-21.1386757
		c0.1931152-0.1381836,0.7088623-0.5805664,0.7088623-0.5805664
		C1183.7282715,46.734623,1183.708252,46.1776161,1183.3271484,46.1612587z"/>
	<g>
		<path class="st1" d="M1125.3939209,46.7756691l7.697998,8.035347c0.0670166,0.0699081,0.1628418,0.1044693,0.2590332,0.0934029
			l48.7491455-5.6075058c0.3790283-0.043602,0.3591309-0.600563-0.0220947-0.6169586l-56.4471436-2.4278374
			C1125.3520508,46.2401237,1125.2009277,46.5741425,1125.3939209,46.7756691z"/>
		<path class="st1" d="M1136.8616943,59.8151245l-1.8754883,7.0902786
			c-0.0683594,0.3501968-0.5771484,0.3261032-0.6120605-0.0289917l-1.1759033-11.9544296"/>
		<line class="st1" x1="1134.5986328" y1="67.1536789" x2="1181.7492676" y2="48.9892616"/>
		<path class="st1" d="M1136.9598389,59.9389267l14.5246582,11.0638275c0.1040039,0.079216,0.246582,0.0845795,0.3562012,0.0134201
			l29.5505371-21.1386642c0.2750244-0.1967583,0.0805664-0.6290169-0.2491455-0.5536957l-44.0599365,10.0661087
			C1136.8237305,59.4456215,1136.7495117,59.7787209,1136.9598389,59.9389267z"/>
	</g>
</g>
<path class="st2" d="M1075.2589111,48.5663948c-19.3614502,27.4807091-57.2532349,35.8356743-90.586853,31.4853401
	c-33.3336182-4.3503418-79.7867432-19.1069298-130.5111694-17.357811
	c-40.000061,1.3793106-59.8860474,33.9912872-120.6672363,36.4225388
	c-46.9768677,1.8790741-60.1625366-36.3839111-94.8258057-40.5603294
	c-63.0060425-7.5913048-55.6640015,60.5640755-162.2676697,56.1433907
	c-57.1642761-2.3705063-79.1358948-25.9995651-129.1162415-27.2811127
	c-53.2922668-1.3664703-81.2053833,6.1622314-110.401947,17.0180359"/>
<g>
	<g>
		<path class="st3" d="M882.2848511,68.9676285c0,0-12.3897705,69.4342422-12.3897705,84.6807938"/>
		<path class="st3" d="M886.736084,76.7121429c-2.3592529-1.8742218-5.6455688-8.0068359-5.0213013-11.9144592l0.0038452-0.0229034
			c-2.343811-0.0741043-4.6870728,0.9913635-6.2109375,2.7665939c-0.2737427,0.3188782-0.8076782,0.1873245-0.8707886-0.2281647
			c-0.2143555-1.4116135,0.1168823-2.907959,0.9394531-4.0780602c0.7478638-1.0637207,1.6428833-1.9545021,2.828064-2.5258598
			c0.4248047-0.2047958,0.3626709-0.8262405-0.0971069-0.93116c-1.1203003-0.2556496-2.7386475-0.5268097-4.506897-0.5067825
			c-0.4414673,0.0050011-0.6699219-0.5284424-0.3659058-0.8486404c0.6799316-0.7161369,1.647644-1.1758919,2.6295166-1.37183
			c1.0257568-0.2047043,2.0771484-0.1639252,3.1229858-0.0649109c0.4174805,0.0395279,0.6951294-0.4222908,0.4686279-0.7752075
			c-0.9180298-1.4303093-2.2404785-2.6001358-3.7697144-3.3417587c-0.427124-0.2071533-0.3844604-0.8464127,0.0812988-0.9384651
			c2.3869629-0.4717751,5.0140991,0.2639656,6.7445679,1.9888458l0.0292358,0.0337563
			c0.6036987-3.1348152,3.6410522-5.5728264,6.8052368-5.6402092c0.385437-0.0082092,0.6455688,0.4086266,0.4530029,0.7426567
			c-1.0423584,1.808197-1.3815918,4.0185318-0.9014893,6.0521011l0.2167969-0.0741196
			c3.2078857-0.4062195,6.5605469,1.0038033,8.5961304,3.4996796c0.3081055,0.3778076-0.0216675,0.9121437-0.4985352,0.8107834
			c-2.2703857-0.4825783-4.7356567-0.0466652-6.6878052,1.2119026c-0.2576904,0.1661606-0.2935181,0.5317421-0.0834961,0.7551575
			c1.2006836,1.2771301,4.6987915,5.2568665,5.0897827,8.660408c0.055603,0.4844437-0.5539551,0.7491455-0.8738403,0.3811035
			c-1.6881714-1.9422836-3.7955933-3.5200119-6.1386108-4.5851059l-0.0214844,0.0358429
			c1.3382568,4.223999,0.6547852,6.4452209-1.9385376,10.9080429L886.736084,76.7121429z"/>
	</g>
	<g>
		<path class="st3" d="M842.2421875,68.9676285c0,0-12.3897705,69.4342422-12.3897705,84.6807938"/>
		<path class="st3" d="M846.6934204,76.7121429c-2.359314-1.8742218-5.6456299-8.0068359-5.0213013-11.9144592l0.0038452-0.0229034
			c-2.343811-0.0741043-4.6871338,0.9913635-6.2109375,2.7665939c-0.2737427,0.3188782-0.8077393,0.1873245-0.8707886-0.2281647
			c-0.2143555-1.4116135,0.1168823-2.907959,0.9394531-4.0780602c0.7478027-1.0637207,1.6428223-1.9545021,2.8280029-2.5258598
			c0.4248047-0.2047958,0.3627319-0.8262405-0.0970459-0.93116c-1.1203003-0.2556496-2.7386475-0.5268097-4.506897-0.5067825
			c-0.4415283,0.0050011-0.6699219-0.5284424-0.3659058-0.8486404c0.6799316-0.7161369,1.647644-1.1758919,2.6294556-1.37183
			c1.0257568-0.2047043,2.0772095-0.1639252,3.1229858-0.0649109c0.4175415,0.0395279,0.6951904-0.4222908,0.468689-0.7752075
			c-0.9180908-1.4303093-2.2404785-2.6001358-3.7697144-3.3417587c-0.4271851-0.2071533-0.3844604-0.8464127,0.0812378-0.9384651
			c2.3870239-0.4717751,5.0141602,0.2639656,6.7446289,1.9888458l0.0292358,0.0337563
			c0.6036377-3.1348152,3.6409912-5.5728264,6.8051758-5.6402092c0.385498-0.0082092,0.6456299,0.4086266,0.453064,0.7426567
			c-1.0424194,1.808197-1.3815918,4.0185318-0.9015503,6.0521011l0.2168579-0.0741196
			c3.2078247-0.4062195,6.5605469,1.0038033,8.5960693,3.4996796c0.3081665,0.3778076-0.0216064,0.9121437-0.4984741,0.8107834
			c-2.2704468-0.4825783-4.7356567-0.0466652-6.6878052,1.2119026c-0.2577515,0.1661606-0.2935791,0.5317421-0.0834961,0.7551575
			c1.2006836,1.2771301,4.6987915,5.2568665,5.0897217,8.660408c0.0556641,0.4844437-0.553894,0.7491455-0.8737793,0.3811035
			c-1.6881714-1.9422836-3.7955933-3.5200119-6.1386108-4.5851059l-0.0214844,0.0358429
			c1.3382568,4.223999,0.6547852,6.4452209-1.9385376,10.9080429L846.6934204,76.7121429z"/>
	</g>
	<g>
		<path class="st3" d="M810.460144,68.9676285c0,0,12.3897705,69.4342422,12.3897705,84.6807938"/>
		<path class="st3" d="M806.0089111,76.7121429c2.3592529-1.8742218,5.6455688-8.0068359,5.0213013-11.9144592l-0.0038452-0.0229034
			c2.343811-0.0741043,4.6870728,0.9913635,6.2109375,2.7665939c0.2737427,0.3188782,0.8076782,0.1873245,0.8707886-0.2281647
			c0.2142944-1.4116135-0.1168823-2.907959-0.9395142-4.0780602c-0.7478027-1.0637207-1.6428223-1.9545021-2.8280029-2.5258598
			c-0.4248047-0.2047958-0.3626709-0.8262405,0.0971069-0.93116c1.1203003-0.2556496,2.7386475-0.5268097,4.5068359-0.5067825
			c0.4415283,0.0050011,0.6699829-0.5284424,0.3659668-0.8486404c-0.6799316-0.7161369-1.647644-1.1758919-2.6295166-1.37183
			c-1.0257568-0.2047043-2.0771484-0.1639252-3.1229858-0.0649109c-0.4174805,0.0395279-0.6951294-0.4222908-0.4686279-0.7752075
			c0.9180298-1.4303093,2.2404785-2.6001358,3.7697144-3.3417587c0.427124-0.2071533,0.3844604-0.8464127-0.0812988-0.9384651
			c-2.3869629-0.4717751-5.0140991,0.2639656-6.7445679,1.9888458l-0.0292358,0.0337563
			c-0.6036987-3.1348152-3.6410522-5.5728264-6.8052368-5.6402092c-0.385437-0.0082092-0.6455688,0.4086266-0.4530029,0.7426567
			c1.0423584,1.808197,1.3815308,4.0185318,0.9014893,6.0521011l-0.2167969-0.0741196
			c-3.2078857-0.4062195-6.5606079,1.0038033-8.5961304,3.4996796c-0.3081055,0.3778076,0.0216675,0.9121437,0.4985352,0.8107834
			c2.2703857-0.4825783,4.7356567-0.0466652,6.6878052,1.2119026c0.2576904,0.1661606,0.2935181,0.5317421,0.0834961,0.7551575
			c-1.2006836,1.2771301-4.6987915,5.2568665-5.0897827,8.660408c-0.055603,0.4844437,0.5539551,0.7491455,0.8738403,0.3811035
			c1.6881714-1.9422836,3.7955933-3.5200119,6.1386108-4.5851059l0.0214844,0.0358429
			c-1.3382568,4.223999-0.6547852,6.4452209,1.9385376,10.9080429L806.0089111,76.7121429z"/>
	</g>
</g>
<g>
	<line class="st4" x1="1197.0574951" y1="16.7912254" x2="1191.1463623" y2="27.1207352"/>
	<line class="st4" x1="1206.7490234" y1="34.1715851" x2="1200.6290283" y2="37.7362633"/>
	<line class="st4" x1="1176.8742676" y1="18.2751198" x2="1176.8967285" y2="24.152832"/>
	<line class="st4" x1="1216.8070068" y1="50.6979637" x2="1204.9057617" y2="50.7435112"/>
	<line class="st4" x1="1205.5587158" y1="67.5218201" x2="1200.4571533" y2="64.6024399"/>
</g>
<g>
	<path class="st3" d="M201.3947296,97.6512985l-32.9288177,21.9185791
		c-0.2298737,0.1530151-0.5402527,0.0907059-0.6932678-0.1391678l-21.9185791-32.9288101
		c-0.1530151-0.2298737-0.0907135-0.5402679,0.1391602-0.6932755l32.9288177-21.9185829
		c0.2298737-0.1530113,0.5402527-0.0907021,0.6932678,0.1391716l21.9185791,32.9288101
		C201.6869049,97.1878967,201.6246033,97.4982834,201.3947296,97.6512985z"/>
	<g>
		<g>
			<path class="st5" d="M187.2329865,56.3129807l-12.2982483,41.8123016
				c-0.0779266,0.2649155,0.0736694,0.5428467,0.3385925,0.6207657l30.8258362,9.0668106
				c0.1417389,0.0416946,0.2946625,0.0185623,0.4177246-0.063179l14.8353119-9.8534927
				c0.0979767-0.0650711,0.1698608-0.16259,0.2030487-0.2754135l8.4495087-28.727272
				c0.0779266-0.2649231-0.0736694-0.5428467-0.3385925-0.6207733l-41.8124084-12.298336
				C187.5888367,55.8964691,187.3109131,56.0480614,187.2329865,56.3129807z"/>
		</g>
		<path class="st5" d="M206.4054871,108.064415l1.27948-11.1456985c0.0314941-0.2743454,0.2794189-0.4712067,0.553772-0.4397202
			l13.3694305,1.5347824"/>
		<line class="st6" x1="221.6081696" y1="98.0137787" x2="206.4054871" y2="108.064415"/>
		<line class="st6" x1="206.4054871" y1="108.064415" x2="221.6081696" y2="98.0137787"/>
	</g>
	<g>
		<line class="st4" x1="133.4132233" y1="89.092186" x2="136.7518616" y2="88.8634338"/>
		<line class="st4" x1="132.6125183" y1="79.9861298" x2="137.6632843" y2="82.4583359"/>
		<line class="st4" x1="140.899231" y1="75.2145081" x2="142.4490051" y2="77.5191193"/>
	</g>
</g>
<path class="st7" d="M1351.5582275,113.9328461v-9.0014496h-4.1149902v-2.9392929h-2.8217773
	c0,0-1.7635498-11.7571945-15.5194092-11.7571945c-13.7559814,0-16.6953125,12.6977692-16.6953125,12.6977692h-3.0567627v4.8204498
	h-7.4626465v-4.7028809c0,0-0.1175537-6.5840302-7.0543213-6.5840302c-6.9366455,0-7.4069824,6.7016068-7.4069824,6.7016068
	v7.9948883h-5.8231201v4.8204498h-7.171875l-9.6408691,3.409584v15.7030487"/>
<g>
	<g>
		<path class="st0" d="M201.5788879,100.310997l-32.9288177,21.9185791
			c-0.2298737,0.1530151-0.5402527,0.0907059-0.6932678-0.1391678l-21.9185791-32.9288101
			c-0.1530151-0.2298737-0.0907135-0.5402603,0.1391754-0.6932755l32.9288025-21.9185791
			c0.2298737-0.1530151,0.5402679-0.0907059,0.6932678,0.1391678l21.9185944,32.9288101
			C201.8710632,99.8475952,201.8087616,100.1579895,201.5788879,100.310997z"/>
		<g>
			<g>
				<path class="st0" d="M187.4171448,58.972683l-12.2982483,41.8122978
					c-0.0779266,0.2649231,0.0736694,0.5428467,0.3385925,0.6207733l30.8258362,9.0668106
					c0.1417389,0.041687,0.2946625,0.0185623,0.4177246-0.063179l14.8353271-9.8535004
					c0.0979614-0.0650711,0.1698456-0.1625824,0.2030334-0.2754135l8.4495087-28.727272
					c0.0779266-0.2649155-0.0736694-0.5428467-0.3385925-0.6207657l-41.8124084-12.2983437
					C187.772995,58.5561714,187.4950714,58.7077637,187.4171448,58.972683z"/>
			</g>
			<path class="st0" d="M206.5896454,110.7241211l1.27948-11.1457062c0.0314941-0.2743378,0.2794342-0.4712067,0.553772-0.4397125
				l13.3694305,1.5347748"/>
			<line class="st0" x1="221.7923279" y1="100.6734772" x2="206.5896454" y2="110.7241211"/>
			<line class="st0" x1="206.5896454" y1="110.7241211" x2="221.7923279" y2="100.6734772"/>
		</g>
	</g>
	<g>
		<path class="st0" d="M205.2705231,96.2597961l-32.9288025,21.9185791
			c-0.2298737,0.1530151-0.5402679,0.0907059-0.6932831-0.1391678l-21.9185791-32.9288101
			c-0.1530151-0.2298737-0.0906982-0.5402603,0.1391754-0.6932755l32.9288025-21.9185791
			c0.2298737-0.1530113,0.5402679-0.0907021,0.6932831,0.1391716l21.9185791,32.9288063
			C205.5626984,95.7963943,205.5003967,96.1067886,205.2705231,96.2597961z"/>
		<g>
			<g>
				<path class="st0" d="M191.1087799,54.9214859l-12.2982483,41.812294
					c-0.0779266,0.2649231,0.0736694,0.5428467,0.3385925,0.6207733l30.8258362,9.0668106
					c0.1417389,0.041687,0.2946625,0.0185623,0.4177399-0.063179l14.8353119-9.8535004
					c0.0979614-0.0650635,0.1698608-0.1625824,0.2030334-0.2754135l8.4495087-28.727272
					c0.0779266-0.2649155-0.0736694-0.5428467-0.3385925-0.6207657l-41.8124084-12.2983398
					C191.4646301,54.5049706,191.1867065,54.6565628,191.1087799,54.9214859z"/>
			</g>
			<path class="st0" d="M210.2812805,106.6729202l1.2794952-11.1457062
				c0.0314941-0.2743378,0.2794189-0.4712067,0.5537567-0.4397125l13.3694305,1.5347748"/>
			<line class="st0" x1="225.483963" y1="96.6222763" x2="210.2812805" y2="106.6729202"/>
			<line class="st0" x1="210.2812805" y1="106.6729202" x2="225.483963" y2="96.6222763"/>
		</g>
	</g>
	<g>
		<path class="st1" d="M202.0064697,97.4542313l-32.9288025,21.9185791
			c-0.2298737,0.1530075-0.5402679,0.0907059-0.6932831-0.1391678l-21.9185791-32.9288101
			c-0.1530151-0.2298737-0.0906982-0.5402679,0.1391754-0.6932755l32.9288025-21.9185829
			c0.2298737-0.1530113,0.5402679-0.0907021,0.6932831,0.1391716l21.9185791,32.9288101
			C202.2986603,96.9908295,202.2363434,97.3012161,202.0064697,97.4542313z"/>
		<g>
			<g>
				<path class="st1" d="M187.8447266,56.1159134L175.5464783,97.928215
					c-0.0779266,0.2649155,0.0736694,0.5428467,0.3385925,0.6207657l30.8258514,9.0668106
					c0.1417389,0.0416946,0.2946472,0.0185623,0.4177246-0.063179l14.8353119-9.8534927
					c0.0979614-0.0650711,0.1698608-0.16259,0.2030487-0.2754135l8.4494934-28.727272
					c0.0779266-0.2649231-0.0736694-0.5428467-0.3385925-0.6207733l-41.8124084-12.2983398
					C188.2005768,55.6994019,187.9226532,55.8509941,187.8447266,56.1159134z"/>
			</g>
			<path class="st1" d="M207.0172272,107.8673477l1.2794952-11.1456985
				c0.0314941-0.2743454,0.2794189-0.4712143,0.5537567-0.4397202l13.3694305,1.5347824"/>
			<line class="st1" x1="222.2199097" y1="97.8167114" x2="207.0172272" y2="107.8673477"/>
			<line class="st1" x1="207.0172272" y1="107.8673477" x2="222.2199097" y2="97.8167114"/>
		</g>
	</g>
</g>
<path class="st8" d="M147.6053925,162.3929443h166.661026c0.2761536,0,0.5-0.2238617,0.5-0.5v-21.4021759
	c0-0.2761536,0.223877-0.5,0.5-0.5h19.1619568c0.2761536,0,0.5,0.2238464,0.5,0.5v21.4021759c0,0.2761383,0.223877,0.5,0.5,0.5
	h9.0809937c0.276123,0,0.5-0.2238617,0.5-0.5V80.0048828c0-0.2761383,0.2238464-0.5,0.5-0.5H397.15448
	c0.2761536,0,0.5,0.2238617,0.5,0.5v7.9608765c0,0.2761383,0.2238464,0.5,0.5,0.5h9.0809937c0.276123,0,0.5,0.2238541,0.5,0.5
	v10.201088c0,0.2761383,0.2238464,0.5,0.5,0.5h14.6815186c0.276123,0,0.5,0.2238541,0.5,0.5v58.3657608
	c0,0.2761536,0.2238464,0.5,0.5,0.5h9.0809631c0.2761536,0,0.5-0.2238464,0.5-0.5v-32.6032562c0-0.2761459,0.223877-0.5,0.5-0.5
	h23.642395c0.2761536,0,0.5-0.2238617,0.5-0.5V92.3260803c0-0.2761383,0.223877-0.5,0.5-0.5h6.8407593
	c0.2761536,0,0.5-0.2238541,0.5-0.5V84.485321c0-0.2761459,0.223877-0.5,0.5-0.5h6.8407593c0.2761536,0,0.5-0.2238617,0.5-0.5
	V76.614563c0-0.2761459,0.223877-0.5,0.5-0.5h4.4101257c0.2761536,0,0.5-0.2238617,0.5-0.5V48.9102554
	c0-0.2761421,0.223877-0.5,0.5-0.5h15.0863647c0.2761536,0,0.5,0.2238579,0.5,0.5V74.720871c0,0.2761459,0.223877,0.5,0.5,0.5
	h5.2558289c0.2761536,0,0.5,0.2238617,0.5,0.5v23.5764008c0,0.2761459,0.2238464,0.5,0.5,0.5h5.2557983
	c0.2761536,0,0.5,0.2238617,0.5,0.5v39.6627655c0,0.2761536,0.223877,0.5,0.5,0.5h7.4900208c0.2761841,0,0.5,0.2238617,0.5,0.5
	v12.4053192c0,0.2761383,0.223877,0.5,0.5,0.5h8.383728c0.276123,0,0.5-0.2238617,0.5-0.5v-37.8753967
	c0-0.2761459,0.223877-0.5,0.5-0.5h20.0016479c0.276123,0,0.5-0.2238617,0.5-0.5v-20.89534c0-0.2761459,0.223877-0.5,0.5-0.5
	h26.7042847c0.2761841,0,0.5,0.2238541,0.5,0.5v53.5149231c0,0.2761383,0.223877,0.5,0.5,0.5h12.4053345
	c0.276123,0,0.5-0.2238617,0.5-0.5V92.7009277c0-0.2761383,0.223877-0.5,0.5-0.5h12.8521729c0.276123,0,0.5-0.2238541,0.5-0.5
	V72.1461258c0-0.2761459,0.2238159-0.5,0.5-0.5h24.0232544c0.276123,0,0.5,0.2238541,0.5,0.5V143.53479
	c0,0.2761383,0.2238159,0.5,0.5,0.5h11.9584351c0.276123,0,0.5,0.2238617,0.5,0.5v7.490036c0,0.2761383,0.223877,0.5,0.5,0.5
	h7.9368896c0.276123,0,0.5-0.2238617,0.5-0.5V97.6162109c0-0.2761383,0.2238159-0.5,0.5-0.5h3.4684448
	c0.276123,0,0.5-0.2238541,0.5-0.5v-6.596344c0-0.2761383,0.2238159-0.5,0.5-0.5h11.5115967c0.276123,0,0.5,0.2238617,0.5,0.5
	v7.4900284c0,0.2761459,0.223877,0.5,0.5,0.5h3.9152832c0.276123,0,0.5,0.2238617,0.5,0.5v46.8934097
	c0,0.3848267,0.4165039,0.6253967,0.7498779,0.4330902l10.6179199-6.1257324
	c0.1547852-0.0892944,0.2501221-0.2543945,0.2501221-0.4330902V78.4019318c0-0.2761383,0.223877-0.5,0.5-0.5h7.4900513
	c0.276123,0,0.5-0.2238541,0.5-0.5V62.3155632c0-0.2761421,0.223877-0.5,0.5-0.5h8.8305664c0.276123,0,0.5,0.2238579,0.5,0.5
	v14.1926842c0,0.2761459,0.2238159,0.5,0.5,0.5h6.5963135c0.2761841,0,0.5,0.2238617,0.5,0.5v32.9601135
	c0,0.2761459,0.223877,0.5,0.5,0.5h5.7026978c0.276123,0,0.5,0.2238617,0.5,0.5v25.8106155c0,0.2761536,0.2238159,0.5,0.5,0.5
	h7.9368286c0.2761841,0,0.5,0.2238617,0.5,0.5v5.2558136c0,0.2761383,0.223877,0.5,0.5,0.5h7.4900513
	c0.276123,0,0.5-0.2238617,0.5-0.5v-28.2576447c0-0.1778336,0.0944214-0.3422852,0.2480469-0.4318924l4.9910278-2.9114227
	c0.0804443-0.0469208,0.1723633-0.0704498,0.2654419-0.0679321l16.213562,0.4382095
	c0.1146851,0.0030975,0.2247925,0.0455322,0.3118896,0.1201859l2.8186646,2.4160004
	c0.1108398,0.0949936,0.1746216,0.2336655,0.1746216,0.379631v31.4427795c0,0.2761383,0.2238159,0.5,0.5,0.5h5.2557983
	c0.276123,0,0.5,0.2238464,0.5,0.5v3.9152679c0,0.2761536,0.223877,0.5,0.5,0.5h11.9500122
	c0.3442993,0,0.5855713-0.3398285,0.4720459-0.6648712l-8.5368042-24.4408493
	c-0.059082-0.169075-0.0256958-0.3549728,0.092041-0.4899673c1.9245605-2.2074051,18.574646-20.3876648,43.7250977-18.9526978
	c0.1884155,0.0107498,0.3563232,0.1289062,0.4325562,0.3015137c4.0574951,9.1825256,11.2651367,15.6943054,22.7832031,20.8281708
	c0.2043457,0.0910797,0.326355,0.3074951,0.2926636,0.528656l-3.1710815,20.8387146
	c-0.0460205,0.3024292,0.1878662,0.5749054,0.4937744,0.5752106l9.557312,0.0095825
	c0.2763062,0.0002747,0.5004883-0.2236633,0.5004883-0.5v-40.8772888c0-0.2761459,0.223877-0.5,0.5-0.5h18.6611328
	c0.276123,0,0.5,0.2238541,0.5,0.5v11.0647812c0,0.2761383,0.223877,0.5,0.5,0.5h15.0863647c0.276123,0,0.5,0.2238541,0.5,0.5
	v10.6179276c0,0.2761383,0.223877,0.5,0.5,0.5h3.4684448c0.276123,0,0.5,0.2238617,0.5,0.5v10.1710968
	c0,0.2761383,0.223877,0.5,0.5,0.5h4.80896c0.276123,0,0.5,0.2238617,0.5,0.5v16.4268951c0,0.2761536,0.223877,0.5,0.5,0.5
	h7.4900513c0.276123,0,0.5-0.2238464,0.5-0.5v-27.1511383c0-0.2761536,0.2238159-0.5,0.5-0.5h18.6610718
	c0.2761841,0,0.5,0.2238464,0.5,0.5v20.8953247c0,0.2761536,0.223877,0.5,0.5,0.5h5.2558594c0.276123,0,0.5,0.2238617,0.5,0.5
	v4.3621368c0,0.2761383,0.2238159,0.5,0.5,0.5h9.2774048c0.276123,0,0.5-0.2238617,0.5-0.5v-25.8106232
	c0-0.2761383,0.2238159-0.5,0.5-0.5h4.80896c0.276123,0,0.5-0.2238617,0.5-0.5v-6.149498c0-0.2761459,0.2238159-0.5,0.5-0.5
	h19.5548096c0.276123,0,0.5,0.2238541,0.5,0.5v13.2989883c0,0.2761536,0.2238159,0.5,0.5,0.5h10.1710815
	c0.276123,0,0.5,0.2238617,0.5,0.5v11.5116272c0,0.2761383,0.223877,0.5,0.5,0.5h14.192688c0.276123,0,0.5-0.2238617,0.5-0.5
	V104.050087c0-0.1466827,0.0643921-0.2859726,0.1761475-0.3809738l8.4544067-7.1862335
	c0.178894-0.1520462,0.4394531-0.1591644,0.6263428-0.0171051l10.6644897,8.1049957
	c0.1182251,0.0898361,0.1903687,0.2275543,0.1969604,0.3758774l0.8609619,19.371582
	c0.0123291,0.2769547,0.2476196,0.4910202,0.5244751,0.4771805l7.9215698-0.39608
	c0.2811279-0.0140533,0.5184326,0.2066116,0.5248413,0.4880142l0.4240723,18.6588135
	c0.0061646,0.271637,0.2281494,0.4886322,0.4998779,0.4886322h6.1607056c0.276123,0,0.5-0.2238617,0.5-0.5v-37.4285507
	c0-0.2761383,0.223877-0.5,0.5-0.5h24.4700928c0.276123,0,0.5,0.2238617,0.5,0.5v63.7923203c0,0.2761536,0.223877,0.5,0.5,0.5
	h5.2558594c0.276123,0,0.5-0.2238464,0.5-0.5v-36.9817047c0-0.2761383,0.2237549-0.5,0.5-0.5h20.4299316
	c0.2768555,0,0.5010986,0.2250519,0.5,0.5019684l-0.1221924,31.1988831c-0.0010986,0.2769165,0.2230225,0.5019684,0.5,0.5019684
	h305.5466309"/>
<path class="st8" d="M1377.8693848,109.559166c-5.2706299-3.1910858-12.1044922-2.2724686-17.8143311,0.0429459
	c-5.7097168,2.3154144-10.8656006,5.883606-16.663208,7.9694519c-9.9747314,3.5886917-22.5339355,3.8389664-33.039917,5.2527618
	c-36.1351318,4.8627472-65.5177002,19.4782562-88.2008057,41.1027069"/>
<path class="st8" d="M2.592649,165.0752869c4.1775365-1.7891846,12.5473595-7.1219177,17.1103821-8.6345825
	s10.5435562-2.1699066,15.4337101-0.965683c4.2721443,1.0520325,6.9326134,3.2680054,10.1102295,5.0890808
	c3.1776161,1.8210907,7.9529953,3.3994751,12.4046516,2.5733795c4.3505592-0.8073273,6.1214256-3.4301453,7.7748756-5.6750946
	c1.6534576-2.2449646,4.7370605-4.7501221,9.3523407-4.6572266c8.2472534,0.1660004,7.896019,7.4745026,15.2578201,9.4168701
	c5.1451492,1.3574982,11.4093246-0.7075043,14.3974304-3.2759247c2.9881058-2.5684357,4.1310883-5.6453705,7.3414993-8.1400452
	c2.3901825-1.8573151,6.7570877-3.3119507,10.7887344-3.2279663c1.0369034,0.0216064,1.3384781,1.4128418,0.4197998,1.894165
	c-4.0801163,2.1376495-4.9585953,5.9556732-2.0501938,8.7026978c3.6126633,3.4122009,11.3740692,4.1786194,18.8491821,4.3740845
	c7.4509277,0.1948242,22.885025-0.1692505,22.885025-0.1692505s0.0934753-0.0107422,0.1409149-0.0107422"/>
<path class="st2" d="M243.5166016,107.1089783c91.7815552-29.2744827,151.8902893,39.4929962,253.0591736,32.7484131
	c35.3357239-2.3557129,113.9337463-29.3865356,149.344574-28.9054031
	c71.9952393,0.9782104,134.4241333,46.9958115,203.3013306,26.0148544
	c43.7503052-13.3269424,68.9229736-28.9053955,114.6580811-28.9053955c36.6135254,0,64.5554199,11.5621567,102.1324463,11.5621567
	c34.8999023,0,43.3580322-16.3797226,56.196167-31.6127548"/>
</svg>
