<svg xmlns="http://www.w3.org/2000/svg" viewBox="0 0 112.2 20.8">
  <g>
    <path d="M2.8,17.9h8.8v2.5H0V0.5h2.8C2.8,0.5,2.8,17.9,2.8,17.9z"/>
    <path d="M18.2,20.3h-3.1l8.6-19.8h2.5l8.5,19.8h-3.1l-2-4.9h-9.4L18.2,20.3z M21.2,13h7.4l-3.7-9.3L21.2,13z"/>
    <path d="M52.6,20.3H39.7v-2.6l7.9-7.8c0.6-0.6,1.1-1.3,1.5-1.9c0.4-0.7,0.6-1.4,0.6-2.3c0-0.5-0.1-1-0.3-1.4
      c-0.2-0.4-0.4-0.8-0.8-1.1s-0.7-0.5-1.1-0.7s-0.9-0.2-1.4-0.2c-1,0-1.8,0.3-2.5,1c-0.7,0.6-1.1,1.5-1.2,2.5l-2.7-0.4
      c0.1-0.7,0.4-1.4,0.7-2.1c0.4-0.6,0.8-1.2,1.4-1.7s1.2-0.8,1.9-1.1c0.7-0.3,1.5-0.4,2.4-0.4c0.8,0,1.6,0.1,2.4,0.4
      c0.8,0.2,1.4,0.6,2,1.1s1,1.1,1.4,1.8s0.5,1.5,0.5,2.4c0,0.6-0.1,1.2-0.3,1.8c-0.2,0.5-0.4,1.1-0.7,1.5c-0.3,0.5-0.6,0.9-1,1.4
      c-0.4,0.4-0.8,0.9-1.2,1.3l-6.4,6.3h9.7L52.6,20.3L52.6,20.3z"/>
    <path d="M66.1,0c1.2,0,2.2,0.3,3,0.8s1.5,1.3,2.1,2.2c0.5,0.9,1,2,1.2,3.3c0.3,1.3,0.4,2.6,0.4,4.1s-0.1,2.8-0.4,4.1
      c-0.3,1.3-0.7,2.4-1.2,3.3c-0.6,0.9-1.3,1.7-2.1,2.2s-1.9,0.8-3,0.8S63.9,20.5,63,20c-0.9-0.5-1.6-1.3-2.1-2.2
      c-0.6-0.9-1-2-1.2-3.3c-0.3-1.3-0.4-2.6-0.4-4.1c0-1.4,0.1-2.8,0.4-4.1s0.7-2.4,1.2-3.3c0.5-0.9,1.3-1.7,2.1-2.2
      C63.9,0.3,64.9,0,66.1,0z M66.1,2.3c-0.8,0-1.5,0.3-2,0.8s-0.9,1.2-1.2,2s-0.5,1.7-0.6,2.6c-0.1,1-0.2,1.8-0.2,2.7s0.1,1.7,0.2,2.7
      c0.1,1,0.3,1.8,0.6,2.6s0.7,1.5,1.2,2s1.2,0.8,2,0.8s1.5-0.3,2-0.8s0.9-1.2,1.2-2c0.3-0.8,0.5-1.7,0.6-2.6c0.1-1,0.2-1.8,0.2-2.7
      S70,8.7,69.9,7.7c-0.1-1-0.3-1.8-0.6-2.6s-0.7-1.5-1.2-2C67.5,2.5,66.9,2.3,66.1,2.3z"/>
    <path d="M91.2,2.9H83l-0.2,5.2C83.2,8,83.6,7.9,84,7.8c0.5-0.1,0.9-0.1,1.3-0.1c1,0,1.8,0.1,2.6,0.4s1.5,0.7,2.1,1.2s1,1.2,1.4,2
      c0.3,0.8,0.5,1.6,0.5,2.6s-0.2,2-0.5,2.8c-0.4,0.8-0.8,1.6-1.5,2.1c-0.6,0.6-1.3,1-2.2,1.4s-1.8,0.5-2.7,0.5
      c-1.5,0-2.9-0.4-3.9-1.1c-1.1-0.7-1.9-1.7-2.4-2.9l2.5-1c0.3,0.8,0.8,1.4,1.5,1.9s1.5,0.7,2.4,0.7c0.6,0,1.1-0.1,1.6-0.3
      c0.5-0.2,0.9-0.5,1.3-0.9c0.4-0.4,0.7-0.8,0.9-1.3s0.3-1.1,0.3-1.7c0-0.7-0.1-1.4-0.4-1.9c-0.3-0.5-0.6-1-1-1.4s-0.9-0.6-1.5-0.8
      s-1.1-0.3-1.8-0.3S83,9.8,82.2,10s-1.5,0.5-2.1,0.8l0.3-10.5h10.8V2.9z"/>
    <path d="M105.5,0c1.2,0,2.2,0.3,3,0.8s1.5,1.3,2.1,2.2c0.5,0.9,1,2,1.2,3.3c0.3,1.3,0.4,2.6,0.4,4.1s-0.1,2.8-0.4,4.1
      c-0.3,1.3-0.7,2.4-1.2,3.3c-0.6,0.9-1.3,1.7-2.1,2.2s-1.9,0.8-3,0.8s-2.2-0.3-3.1-0.8c-0.9-0.5-1.6-1.3-2.1-2.2
      c-0.6-0.9-1-2-1.2-3.3c-0.3-1.3-0.4-2.6-0.4-4.1c0-1.4,0.1-2.8,0.4-4.1c0.3-1.3,0.7-2.4,1.2-3.3s1.3-1.7,2.1-2.2
      C103.3,0.3,104.4,0,105.5,0z M105.5,2.3c-0.8,0-1.5,0.3-2,0.8s-0.9,1.2-1.2,2s-0.5,1.7-0.6,2.6c-0.1,1-0.2,1.8-0.2,2.7
      s0.1,1.7,0.2,2.7c0.1,1,0.3,1.8,0.6,2.6s0.7,1.5,1.2,2s1.2,0.8,2,0.8s1.5-0.3,2-0.8s0.9-1.2,1.2-2c0.3-0.8,0.5-1.7,0.6-2.6
      c0.1-1,0.2-1.8,0.2-2.7s-0.1-1.7-0.2-2.7c-0.1-1-0.3-1.8-0.6-2.6s-0.7-1.5-1.2-2C107,2.5,106.3,2.3,105.5,2.3z"/>
  </g>
</svg>
