<?xml version="1.0" encoding="utf-8"?>
<!-- Generator: Adobe Illustrator 22.0.1, SVG Export Plug-In . SVG Version: 6.00 Build 0)  -->
<svg version="1.1" id="Layer_1" width="24" height="24" xmlns="http://www.w3.org/2000/svg" xmlns:xlink="http://www.w3.org/1999/xlink" x="0px" y="0px"
	 viewBox="0 0 54.7 59" style="enable-background:new 0 0 54.7 59;" xml:space="preserve">
<style type="text/css">
	.st0{fill:none;stroke:rgb(237, 59, 136); /* @strawberry */;stroke-width:0.978;stroke-linecap:round;stroke-linejoin:round;stroke-miterlimit:10;}
</style>
<g>
	<path class="st0" d="M34.8,2.5C31.2,12.6,22.9,17.7,20.5,19L2.3,28.3c-1.6,0.8-2.3,2.8-1.5,4.5l5.6,11c0.8,1.6,2.8,2.3,4.5,1.5
		l21-10.7c4-1.4,11-3,18.9-0.7C63,37.4,39-9.5,34.8,2.5z"/>
	<line class="st0" x1="20.5" y1="19" x2="29.2" y2="35.9"/>
	<path class="st0" d="M53.6,33.5c-1.8,0.9-7.1-5.9-11.9-15.2s-6.8-16.9-5-17.8"/>
	<path class="st0" d="M13.7,43.9l6.3,6.8l3.3-1.7l6.8,9.6c0,0,3.2,0.3,4.5-2.3c-2.8-5.6-8.4-13.7-8.4-13.7l1-5.7"/>
</g>
<path class="st0" d="M39.4,13.5c0,0,7.5,2.5,5.6,10.8"/>
</svg>
