<?xml version="1.0" encoding="utf-8"?>
<!-- Generator: Adobe Illustrator 23.0.1, SVG Export Plug-In . SVG Version: 6.00 Build 0)  -->
<svg version="1.1" id="Layer_1" xmlns="http://www.w3.org/2000/svg" xmlns:xlink="http://www.w3.org/1999/xlink" x="0px" y="0px"
	 viewBox="0 0 116.63 144.77" style="enable-background:new 0 0 116.63 144.77;" xml:space="preserve">
<style type="text/css">
	.st0{fill:#FDF6D3;}
	.st1{fill:none;stroke:#FCD111;stroke-width:3;stroke-miterlimit:10;}
	.st2{fill:none;stroke:rgb(237, 59, 136);stroke-width:1.5224;stroke-linecap:round;stroke-miterlimit:10;}
	.st3{fill:none;stroke:rgb(237, 59, 136);stroke-width:1.5;stroke-linecap:round;stroke-miterlimit:10;}
	.st4{fill:none;stroke:#FCD111;stroke-width:3;stroke-linecap:round;stroke-miterlimit:10;}
</style>
<g>
	<path class="st0" d="M91.82,64.55c0-21.39-17.45-38.73-38.98-38.73c-21.53,0-38.98,17.34-38.98,38.73
		c0,10.91,4.54,20.75,11.84,27.79l-0.05,0.02c0,0,0.26,0.21,0.7,0.6c0.19,0.18,0.38,0.35,0.58,0.52c3.27,3,11.8,11.65,13.22,21.52
		l1.51,18.72c0.05,1,0.88,1.79,1.89,1.79h0.3c0.04,4.85,3.98,8.76,8.83,8.76s8.79-3.92,8.83-8.76h0.62c1.01,0,1.84-0.79,1.89-1.79
		L65.53,115c1.42-9.86,9.95-18.52,13.22-21.52c0.19-0.17,0.39-0.35,0.58-0.52c0.44-0.39,0.7-0.6,0.7-0.6l-0.05-0.02
		C87.28,85.3,91.82,75.46,91.82,64.55z"/>
	<path class="st0" d="M104.08,64.55c0-21.39-17.45-38.73-38.98-38.73c-21.53,0-38.98,17.34-38.98,38.73
		c0,10.91,4.54,20.75,11.84,27.79l-0.05,0.02c0,0,0.26,0.21,0.7,0.6c0.19,0.18,0.38,0.35,0.58,0.52c3.27,3,11.8,11.65,13.22,21.52
		l1.51,18.72c0.05,1,0.88,1.79,1.89,1.79h0.3c0.04,4.85,3.98,8.76,8.83,8.76s8.79-3.92,8.83-8.76h0.62c1.01,0,1.84-0.79,1.89-1.79
		L77.79,115c1.42-9.86,9.95-18.52,13.22-21.52c0.19-0.17,0.39-0.35,0.58-0.52c0.44-0.39,0.7-0.6,0.7-0.6l-0.05-0.02
		C99.54,85.3,104.08,75.46,104.08,64.55z"/>
	<path class="st1" d="M98.25,64.53c0-21.39-17.45-38.73-38.98-38.73S20.29,43.14,20.29,64.53c0,10.91,4.54,20.75,11.84,27.79
		l-0.05,0.02c0,0,0.26,0.21,0.7,0.6c0.19,0.18,0.38,0.35,0.58,0.52c3.27,3,11.8,11.65,13.22,21.52l1.51,18.72
		c0.05,1,0.88,1.79,1.89,1.79h8.34h1.9h8.34c1.01,0,1.84-0.79,1.89-1.79l1.51-18.72c1.42-9.86,9.95-18.52,13.22-21.52
		c0.19-0.17,0.39-0.35,0.58-0.52c0.44-0.39,0.7-0.6,0.7-0.6l-0.05-0.02C93.71,85.29,98.25,75.44,98.25,64.53z"/>
	<path class="st2" d="M43.74,110.66c-1.18-0.17-2.27,0.23-2.49,0.93c-0.21,0.7,0.41,1.41,1.21,1.73c0.8,0.32,1.72,0.32,2.61,0.33
		c8.42,0.02,16.85,0.04,25.27,0.06c1.17,0,2.38,0.01,3.45,0.38c1.07,0.37,1.99,1.21,1.92,2.15c-0.06,0.92-1.04,1.67-2.12,1.97
		c-1.08,0.3-2.26,0.21-3.41,0.2c-9.06-0.04-27.33-1.95-27.33,1.96c0,3,20.95,1.5,28.11,1.56c0.97,0.01,1.97,0.02,2.85,0.35
		c0.88,0.33,1.6,1.07,1.46,1.84c-0.23,1.3-2.35,1.62-3.97,1.62c-7.89,0.01-15.77,0.02-23.66,0.03c-1.19,0-2.58,0.09-3.23,0.89
		c-0.73,0.9,0.06,2.19,1.25,2.69c1.19,0.49,28.77,2.73,29.26-0.87"/>
	<path class="st3" d="M57.8,107.73c1.13-8.47-0.05-17.24-3.39-25.11c-1.47-3.45-3.34-6.75-4.43-10.34
		c-0.78-2.54-1.14-5.32-0.31-7.85c0.83-2.53,2.88-4.95,5.54-5.07c4.39-0.21,6.48,8.32,3.54,8.93c-4.07,0.84-1.49-8.93,2.48-9.08
		c2.43-0.09,3.68,1.62,4.82,3.78c1.14,2.16,1.22,4.73,0.8,7.13c-0.43,2.4-1.34,4.68-2.13,6.98c-3.52,10.32-4.61,21.46-3.15,32.27"/>
	<g>
		<line class="st4" x1="19.2" y1="1.5" x2="31.06" y2="22.05"/>
		<line class="st4" x1="58.87" y1="2.24" x2="58.87" y2="16.37"/>
		<line class="st4" x1="1.5" y1="37.76" x2="11.65" y2="43.62"/>
		<line class="st4" x1="97.43" y1="1.5" x2="85.57" y2="22.05"/>
		<line class="st4" x1="115.13" y1="37.76" x2="104.98" y2="43.62"/>
	</g>
	<g>
		<path class="st1" d="M52.05,136.21c0,3.9,3.16,7.07,7.07,7.07s7.07-3.16,7.07-7.07"/>
	</g>
</g>
</svg>
