<?xml version="1.0" encoding="utf-8"?>
<!-- Generator: Adobe Illustrator 22.0.1, SVG Export Plug-In . SVG Version: 6.00 Build 0)  -->
<svg version="1.1" id="Layer_1" width="24" height="24" xmlns="http://www.w3.org/2000/svg" xmlns:xlink="http://www.w3.org/1999/xlink" x="0px" y="0px"
	 viewBox="0 0 49.8 57.5" style="enable-background:new 0 0 49.8 57.5;" xml:space="preserve">
<style type="text/css">
	.st0{fill:none;stroke:rgb(237, 59, 136); /* @strawberry */;stroke-width:0.978;stroke-linecap:round;stroke-linejoin:round;stroke-miterlimit:10;}
</style>
<g>
	<polyline class="st0" points="38.3,28.1 38.3,8.8 5.7,8.8 	"/>
	<line class="st0" x1="38.3" y1="48.7" x2="38.3" y2="44"/>
	<polyline class="st0" points="5.7,8.8 0.5,8.8 0.5,57 38.3,57 38.3,48.7 	"/>
	<polyline class="st0" points="43.5,28.7 43.5,0.5 5.7,0.5 5.7,8.8 	"/>
	<polyline class="st0" points="43.5,43.5 43.5,48.7 38.3,48.7 	"/>
	<path class="st0" d="M43.5,28.7c1.1,0.5,2,1.2,2.8,2.1"/>
	<path class="st0" d="M43.5,28.7c-1-0.5-2.2-0.7-3.3-0.7c-0.6,0-1.2,0.1-1.8,0.2"/>
	<path class="st0" d="M43.5,43.5c-1,0.5-2.2,0.7-3.3,0.7c-0.6,0-1.2-0.1-1.8-0.2"/>
	<path class="st0" d="M46.3,30.7c1.2,1.4,2,3.3,2,5.3c0,3.3-2,6.1-4.8,7.4"/>
	<path class="st0" d="M38.3,28.1C34.7,29,32,32.2,32,36.1s2.7,7.1,6.3,7.9"/>
	<line class="st0" x1="49.3" y1="26.2" x2="46.3" y2="30.7"/>
	<line class="st0" x1="43.5" y1="34.9" x2="46.3" y2="30.7"/>
	<polyline class="st0" points="43.5,34.9 40.3,39.7 38.3,37.7 	"/>
	<line class="st0" x1="36.6" y1="35.9" x2="38.3" y2="37.7"/>
</g>
</svg>
