<?xml version="1.0" encoding="utf-8"?>
<!-- Generator: Adobe Illustrator 22.0.1, SVG Export Plug-In . SVG Version: 6.00 Build 0)  -->
<svg version="1.1" id="Layer_1" xmlns="http://www.w3.org/2000/svg" xmlns:xlink="http://www.w3.org/1999/xlink" x="0px" y="0px"
	 viewBox="0 0 33 54.2" style="enable-background:new 0 0 33 54.2;" xml:space="preserve">
<style type="text/css">
	.st0{fill:none;stroke:rgb(237, 59, 136); /* @strawberry */;stroke-width:0.978;stroke-linecap:round;stroke-linejoin:round;stroke-miterlimit:10;}
</style>
<path class="st0" d="M32.5,15.9c0-8.5-7.2-15.4-16-15.4s-16,6.9-16,15.4c0,5.4,2.9,10.1,7.2,12.9v7.8c0,1.6,1.3,2.9,2.9,2.9h11.7
	c1.6,0,2.9-1.3,2.9-2.9v-7.8C29.6,26,32.5,21.3,32.5,15.9z"/>
<path class="st0" d="M23.3,39.5c1.6,0,2.9,1.3,2.9,2.9v1.2c0,1.6-1.3,2.9-2.9,2.9H9.7c-1.6,0-2.9-1.3-2.9-2.9v-1.2
	c0-1.6,1.3-2.9,2.9-2.9"/>
<path class="st0" d="M23.3,46.6c1.6,0,2.9,1.3,2.9,2.9v1.2c0,1.6-1.3,2.9-2.9,2.9H9.7c-1.6,0-2.9-1.3-2.9-2.9v-1.2
	c0-1.6,1.3-2.9,2.9-2.9"/>
<path class="st0" d="M16.4,36.6V21.4c0,0-5-2.3-5.1-4.2c-0.1-1.7,3.9,0.5,3.9,0.5s-0.7-4.9,0.7-4.9c1.5,0,1.2,2.9,1.2,4.6
	c0,0,2.8-1.4,4-0.9c1.2,0.5-1,2.4-4.7,4.9"/>
<line class="st0" x1="6.7" y1="43" x2="26.3" y2="43"/>
<line class="st0" x1="18.5" y1="50.1" x2="26.3" y2="50.1"/>
<line class="st0" x1="7.7" y1="36.6" x2="16" y2="36.6"/>
<path class="st0" d="M4,12.8c0,0,0.3-3.5,3.7-6.3"/>
</svg>
