<?xml version="1.0" encoding="utf-8"?>
<!-- Generator: Adobe Illustrator 23.0.1, SVG Export Plug-In . SVG Version: 6.00 Build 0)  -->
<svg version="1.1" id="Layer_1" xmlns="http://www.w3.org/2000/svg" xmlns:xlink="http://www.w3.org/1999/xlink" x="0px" y="0px"
	 viewBox="0 0 147.12 118.3" style="enable-background:new 0 0 147.12 118.3;" xml:space="preserve">
<style type="text/css">
	.st0{fill:#FDF6D3;}
	.st1{fill:#FFFFFF;stroke:#FCD111;stroke-width:3;stroke-miterlimit:10;}
	.st2{fill:#FCD111;}
	.st3{fill:rgb(237, 59, 136);stroke:rgb(237, 59, 136);stroke-width:0.5539;stroke-miterlimit:10;}
	.st4{fill:none;stroke:#FCD111;stroke-width:3;stroke-linecap:round;stroke-miterlimit:10;}
</style>
<g>
	<path class="st0" d="M146.92,24.77L125.9,3.11c-0.31-0.32-0.85-0.27-1.09,0.11l-8.67,13.49c0,0-3.73,8.05-17.28,7.71
		s-25.58,5.26-25.58,5.26c-14.57,7-21.95,29.09-23.73,35.13c-0.17,0.59,0.44,1.09,0.99,0.82c0.44-0.22,0.97-0.49,1.58-0.8
		L35.8,81.14c-0.27,0.27-0.27,0.72,0,0.99l31.38,31.38c0.27,0.27,0.72,0.27,0.99,0l43.99-43.99c0.27-0.27,0.27-0.72,0-0.99
		l-4.86-4.86c1.71-0.74,3.33-1.39,4.77-1.89c9.83-3.39,15.93-8.13,19.65-13.55c3.37-4.9,13.37-19.75,15.27-22.58
		C147.18,25.37,147.15,25.01,146.92,24.77z"/>
	<path class="st0" d="M133.24,23.21L112.23,1.54c-0.31-0.32-0.85-0.27-1.09,0.11l-8.67,13.49c0,0-3.73,8.05-17.28,7.71
		S59.6,28.11,59.6,28.11c-14.57,7-21.95,29.09-23.73,35.13c-0.17,0.59,0.44,1.09,0.99,0.82c0.44-0.22,0.97-0.49,1.58-0.8
		L22.13,79.58c-0.27,0.27-0.27,0.72,0,0.99l31.38,31.38c0.27,0.27,0.72,0.27,0.99,0l43.99-43.99c0.27-0.27,0.27-0.72,0-0.99
		l-4.86-4.86c1.71-0.74,3.33-1.39,4.77-1.89c9.83-3.39,15.93-8.13,19.65-13.55c3.37-4.9,13.37-19.75,15.27-22.58
		C133.51,23.81,133.48,23.45,133.24,23.21z"/>
	<path class="st1" d="M119.44,1.71l21.02,21.66c0.23,0.24,0.27,0.6,0.08,0.88c-1.9,2.83-11.91,17.68-15.27,22.58
		c-3.73,5.42-9.83,10.17-19.65,13.55C95.78,63.77,77.9,74.09,77.9,74.09s-3.26,3.26-6.18-2.19c-1.98-3.69,3.08-8.52,3.37-8.8
		c0.01-0.01,0.02-0.02,0.03-0.03l13.75-11.07c0.1-0.08,0.17-0.17,0.21-0.28c0.2-0.53,0.51-2.19-1.9-4.84
		c-0.06-0.07-0.13-0.13-0.22-0.17c-4.16-1.95-35.78,13.9-42.9,17.52c-0.55,0.28-1.16-0.23-0.99-0.82
		c1.78-6.04,9.15-28.13,23.73-35.13c0,0,12.02-5.6,25.58-5.26c13.55,0.34,17.28-7.71,17.28-7.71l8.67-13.49
		C118.59,1.44,119.13,1.39,119.44,1.71z"/>
	<path class="st1" d="M60.72,112.11L29.34,80.73c-0.27-0.27-0.27-0.72,0-0.99l43.99-43.99c0.27-0.27,0.72-0.27,0.99,0l31.38,31.38
		c0.27,0.27,0.27,0.72,0,0.99l-43.99,43.99C61.44,112.38,60.99,112.38,60.72,112.11z"/>
	<path class="st2" d="M115.31,118.3H13.81c-0.39,0-0.7-0.31-0.7-0.7V107c0-0.39,0.31-0.7,0.7-0.7h101.51c0.39,0,0.7,0.31,0.7,0.7
		v10.6C116.01,117.99,115.7,118.3,115.31,118.3z"/>
	<g>
		<path class="st3" d="M40.02,82.32c-0.24,0.12-0.45,0.1-0.63-0.09c-0.18-0.19-0.2-0.39-0.07-0.63l5.01-8.97
			c0.04-0.06,0.07-0.11,0.11-0.15c0.08-0.08,0.19-0.11,0.3-0.11c0.12,0,0.22,0.04,0.3,0.12c0.15,0.15,0.17,0.31,0.05,0.5l-4.6,8.18
			l8.33-4.38c0.17-0.1,0.33-0.08,0.47,0.06c0.19,0.2,0.2,0.39,0.02,0.58c-0.04,0.03-0.09,0.07-0.15,0.1L40.02,82.32z"/>
		<path class="st3" d="M50.8,89.28c-0.73,0.72-1.53,1.06-2.4,1.04c-0.86-0.02-1.65-0.39-2.36-1.11c-0.7-0.72-1.05-1.52-1.05-2.39
			c0-0.86,0.37-1.65,1.1-2.37l3.09-3.01c0.74-0.72,1.53-1.06,2.4-1.04c0.86,0.02,1.65,0.39,2.36,1.11c0.7,0.72,1.05,1.52,1.05,2.39
			c0,0.86-0.37,1.65-1.1,2.37L50.8,89.28z M46.62,85.08c-0.52,0.51-0.8,1.09-0.82,1.75c-0.02,0.66,0.24,1.27,0.79,1.84
			c0.56,0.57,1.16,0.84,1.82,0.84c0.66,0,1.25-0.26,1.77-0.77l3.18-3.1c0.53-0.51,0.8-1.09,0.82-1.75c0.02-0.66-0.24-1.27-0.79-1.84
			c-0.56-0.57-1.16-0.84-1.82-0.84c-0.66,0-1.25,0.26-1.77,0.77L46.62,85.08z"/>
		<path class="st3" d="M58.15,86.08l4.28,4.4c0.17,0.18,0.17,0.36-0.02,0.54c-0.18,0.17-0.36,0.17-0.53-0.01l-1.85-1.9l-6.88,6.7
			c-0.08,0.08-0.19,0.11-0.3,0.11c-0.11,0-0.21-0.05-0.29-0.13s-0.12-0.17-0.12-0.29c0-0.12,0.04-0.22,0.12-0.3l6.88-6.7l-1.84-1.89
			c-0.17-0.17-0.17-0.36,0.02-0.54C57.8,85.9,57.98,85.9,58.15,86.08z"/>
		<path class="st3" d="M61.3,97.33l-3.1,3.02l3.41,3.5c0.17,0.18,0.17,0.36-0.02,0.54c-0.18,0.17-0.36,0.17-0.53-0.01l-3.72-3.81
			c-0.19-0.2-0.19-0.38,0.01-0.58l7.08-6.9c0.2-0.19,0.38-0.19,0.58,0.01l3.62,3.72c0.17,0.18,0.17,0.36-0.02,0.54
			c-0.18,0.17-0.36,0.17-0.53-0.01l-3.32-3.41l-2.92,2.84l3.07,3.15c0.17,0.17,0.17,0.36-0.02,0.54c-0.18,0.17-0.36,0.17-0.53-0.01
			L61.3,97.33z"/>
	</g>
	<path class="st1" d="M140.85,23.78c0,0-11.86,17.62-15.59,23.04s-9.83,10.17-19.65,13.55C95.78,63.77,77.9,74.09,77.9,74.09
		s-3.26,3.26-6.18-2.19c-2.04-3.8,3.39-8.81,3.39-8.81l13.89-11.18c0,0,1.18-1.79-1.91-5.13"/>
	<g>
		<line class="st4" x1="9.14" y1="93.84" x2="15.68" y2="91.17"/>
		<line class="st4" x1="1.5" y1="76.13" x2="13.26" y2="77.74"/>
		<line class="st4" x1="14.93" y1="61.08" x2="19.57" y2="64.67"/>
	</g>
</g>
</svg>
