<?xml version="1.0" encoding="utf-8"?>
<!-- Generator: Adobe Illustrator 22.0.1, SVG Export Plug-In . SVG Version: 6.00 Build 0)  -->
<svg version="1.1" id="Layer_1" width="24" height="24" xmlns="http://www.w3.org/2000/svg" xmlns:xlink="http://www.w3.org/1999/xlink" x="0px" y="0px"
	 viewBox="0 0 33.5 56.9" style="enable-background:new 0 0 33.5 56.9;" xml:space="preserve">
<style type="text/css">
	.st0{fill:none;stroke:rgb(237, 59, 136); /* @strawberry */;stroke-width:0.978;stroke-linecap:round;stroke-linejoin:round;stroke-miterlimit:10;}
</style>
<g>
	<polyline class="st0" points="7.2,29.5 0.9,52.9 7.1,51.5 11.5,55.7 16.7,36.3 	"/>
	<polyline class="st0" points="26.3,29.5 32.6,52.9 26.4,51.5 22,55.7 16.7,36.3 	"/>
	<line class="st0" x1="15.8" y1="32.7" x2="16.7" y2="36.3"/>
	<path class="st0" d="M26.3,29.5c3.8-2.9,6.2-7.4,6.2-12.5c0-8.7-7.1-15.8-15.8-15.8S1,8.2,1,16.9c0,5.1,2.4,9.7,6.2,12.5"/>
	<path class="st0" d="M17.7,32.7c3.2-0.2,6.2-1.4,8.6-3.2"/>
	<path class="st0" d="M15.8,32.7c0.3,0,0.6,0,1,0c0.3,0,0.6,0,1,0"/>
	<path class="st0" d="M15.8,32.7c-3.2-0.2-6.2-1.4-8.6-3.2"/>
	<polygon class="st0" points="16.7,5.9 18.9,4.9 20.6,6.6 23,6.3 24,8.6 26.3,9.1 26.5,11.6 28.5,12.9 27.8,15.2 29.3,17.2 
		27.8,19.1 28.5,21.5 26.5,22.8 26.3,25.2 24,25.8 23,28 20.6,27.8 18.9,29.5 16.7,28.5 14.6,29.5 12.9,27.8 10.5,28 9.5,25.8 
		7.1,25.2 7,22.8 5,21.5 5.6,19.1 4.2,17.2 5.6,15.2 5,12.9 7,11.6 7.1,9.1 9.5,8.6 10.5,6.3 12.9,6.6 14.6,4.9 	"/>
</g>
</svg>
