<?xml version="1.0" encoding="utf-8"?>
<!-- Generator: Adobe Illustrator 22.0.1, SVG Export Plug-In . SVG Version: 6.00 Build 0)  -->
<svg version="1.1" id="Layer_1" xmlns="http://www.w3.org/2000/svg" xmlns:xlink="http://www.w3.org/1999/xlink" x="0px" y="0px"
	 viewBox="0 0 748.4 652.5" style="enable-background:new 0 0 748.4 652.5;" xml:space="preserve">
<style type="text/css">
	.st0{fill:#FFFFFF;}
	.st1{fill:none;stroke:#EDC134;stroke-width:5.7306;stroke-miterlimit:10;}
	.st2{fill:#EDC134;}
</style>
<g>
	<path class="st0" d="M375.6,304.9l-11.5-0.1c0.2-27.9,6.4-56.1,18-81.5c6.7-14.7,14.2-26,22.9-34.5c16.7-16.3,41.5-25.8,68.1-25.8
		c0.1,0,0.2,0,0.3,0c21.8,0,44.6,5.7,69.7,17.4c26.6,12.4,46.3,27.2,60.2,45.2c17,22,24.2,49.4,19.2,73.3l-11.2-2.3
		c4.3-20.6-2.1-44.5-17-63.9c-12.7-16.5-31-30.1-55.9-41.8c-23.6-11-44.8-16.4-64.9-16.4c-0.1,0-0.2,0-0.3,0
		c-23.6,0.1-45.5,8.3-60.1,22.6c-7.8,7.6-14.3,17.5-20.5,31.1C381.7,252.1,375.8,278.6,375.6,304.9z"/>
</g>
<polygon class="st0" points="739,612.6 295.4,612.6 295.4,288.3 721.8,288.3 "/>
<path class="st1" d="M104.5,210.8c-2.9-34.5-4.3-69.7,4.9-103.1s30.1-65,61.6-79.3c30.4-13.9,66.8-9.9,97,4.3
	c12.3,5.8,24.2,13.5,32.5,24.3c13.5,17.7,16,41.2,17.9,63.3c2.7,30.5,5.4,61.1,8.1,91.6"/>
<path class="st1" d="M122,219c-1-28.8-0.8-57.8,4.7-86s16.8-55.9,35.9-77.4c10.3-11.6,22.7-21.2,35.8-29.4
	c8.7-5.4,18-10.3,27.9-12.9c28.6-7.5,59.9,5.5,79.8,27.3c19.9,21.9,29.8,51.2,34,80.5c4.2,29.2,3.3,59,4.6,88.5"/>
<g>
	<path class="st0" d="M410.6,296.2c-4.3-45.8,16.5-93.4,53-121.3c14.2-10.8,28.3-16.7,41.8-17.5c10.4-0.6,20.7,1.8,29.7,3.9
		c24.1,5.6,54.1,12.6,75.2,32.3c11.9,11.1,19.9,25.3,25.6,36.4c16.5,32.3,15.8,50.9,13.8,62.1l-11.3-2c3.5-19.8-5-39.7-12.7-54.9
		c-5.2-10.3-12.6-23.3-23.2-33.2c-18.9-17.6-46.1-23.9-70-29.5c-8.7-2-17.7-4.1-26.5-3.6c-11.2,0.7-23.2,5.8-35.5,15.2
		c-33.5,25.5-52.5,69.1-48.6,111.1L410.6,296.2z"/>
</g>
<polygon class="st2" points="426.7,644.2 9.5,644.2 23.7,201.8 413.4,201.8 "/>
</svg>
