<?xml version="1.0" encoding="utf-8"?>
<!-- Generator: Adobe Illustrator 22.0.1, SVG Export Plug-In . SVG Version: 6.00 Build 0)  -->
<svg version="1.1" id="Layer_1" xmlns="http://www.w3.org/2000/svg" xmlns:xlink="http://www.w3.org/1999/xlink" x="0px" y="0px"
	 viewBox="0 0 375.1 548.6" style="enable-background:new 0 0 375.1 548.6;" xml:space="preserve">
<style type="text/css">
	.st0{fill:#EDC134;}
	.st1{fill:none;stroke:#00B3BB;stroke-width:3;stroke-miterlimit:10;}
	.st2{fill:#FFFFFF;}
</style>
<g>
	<path class="st0" d="M363.8,147.3C342,49.5,244.6-11.9,146.9,10.7C50.5,33-10.3,129.7,11.4,226.2c10.8,48.2,40,87.5,78.5,112.3
		c36,23.2,59.2,46.8,68.5,88.6l0.6,2.6c1.6,7.4,9,12.1,16.4,10.4l130.9-29.2c7.4-1.6,12.1-9,10.4-16.4l-0.2-1
		c-9.5-42.5,1.4-74.6,24.4-111.6C365,243.1,374.5,195.3,363.8,147.3z"/>
	<path class="st1" d="M247,437c-8.7-40.9-18.1-81.7-28-122.3c-2.4-9.8-4.9-19.7-10.3-28.1c-8.4-13-61.9-41-67.8-49
		c-10.1-13.7,1.3-15.9,9.5-15.4c3.7,0.2,10.8,0,17.4,0.1c7,0.2,12.6-5.7,12.2-12.6c0,0-4.1-56.6,14.6-35.2
		c6.9,7.9,16.9,36.4,23.9,37.6c12.2,2.1,21.1-15.1,33.4-13.9c9.4,1,0.4,17.4-7.3,35.5c-5.4,12.8-13.6,31.9-19.4,44.5"/>
	<path class="st2" d="M307.4,410.6l-133.1,29.7c-7.4,1.6-12.1,9-10.4,16.4l14.5,64.9c1.6,7.4,9,12.1,16.4,10.4l15.2-3.4l1.5,6.6
		c1.1,5,6.1,8.1,11,7l84.9-18.9c5-1.1,8.1-6.1,7-11l-1.5-6.6l15-3.3c7.4-1.6,12.1-9,10.4-16.4L323.8,421
		C322.2,413.7,314.8,409,307.4,410.6z"/>
</g>
</svg>
