<?xml version="1.0" encoding="utf-8"?>
<!-- Generator: Adobe Illustrator 22.0.1, SVG Export Plug-In . SVG Version: 6.00 Build 0)  -->
<svg version="1.1" id="Layer_1" xmlns="http://www.w3.org/2000/svg" xmlns:xlink="http://www.w3.org/1999/xlink" x="0px" y="0px"
	 viewBox="0 0 761.9 577.9" style="enable-background:new 0 0 761.9 577.9;" xml:space="preserve">
<style type="text/css">
	.st0{fill:#FFFFFF;}
	.st1{fill:#EDC134;}
	.st2{fill:#00B3BB;}
	.st3{fill:none;stroke:#EDC134;stroke-width:2.6511;stroke-miterlimit:10;}
	.st4{font-family:'Avenir-Black';}
	.st5{font-size:12.3719px;}
	.st6{font-family:'Avenir-Medium';}
	.st7{font-size:10.6045px;}
	.st8{fill:none;stroke:#EDC134;stroke-width:0.4419;stroke-miterlimit:10;}
</style>
<g>
	
		<rect x="42.1" y="109.7" transform="matrix(0.9499 0.3125 -0.3125 0.9499 100.5217 -105.9952)" class="st0" width="677.6" height="301.7"/>
	<path class="st1" d="M662.8,214.9c-0.6,3.2-5.4,4.6-6,7.8c-0.5,2.7,2.2,5.8,0.8,8.1c-0.7,1.1-2.1,1.7-3.2,2.5
		c-2.6,1.7-3.9,4.8-3.2,7.8c0.4,1.7,1.3,3.3,1.1,5c-0.4,3.3-4.9,5.1-5,8.5c-0.1,1.7,1,3.4,0.9,5c-0.3,2.9-4.2,4.5-4.5,7.5
		c-0.1,1.4,0.6,2.8,0.5,4.2c0,1.4-0.8,2.6-1.2,3.9s-0.2,3,1.2,3.8c1.9,1.1,4.2-0.3,6.3,0.2c2.3,0.5,3.5,3,5.6,4.1
		c2.6,1.4,5.9,0.2,8.7,1c3.6,1.1,6.1,5.2,9.8,5.2c1.7,0,3.3-1,4.9-0.6c1.1,0.3,2,1.1,2.9,1.8c5.1,4,11.8,5.7,18.2,7.2
		c3.1,0.7,6.2,1.4,9.2,2c1.1,0.2,2.4,0.4,3.2-0.2c0.5-0.3,0.7-0.9,1-1.4c0.9-2,1.7-4,2.6-6.1c0.4-1,0.8-2,0.7-3.1
		c-0.1-1-0.7-2-0.9-3.1c-0.6-3,2.4-5.4,2.9-8.3c0.3-1.6-0.2-3.4,0.6-4.8c1.1-2,4.2-2.8,4.3-5.1c0.1-1.3-0.9-2.5-1.2-3.7
		c-1-3.9,4.1-6.7,4.5-10.6c0.1-1.6-0.5-3.2-0.3-4.7c0.5-4.6,7.6-7.2,6.4-11.8c-0.3-1-0.9-1.9-0.9-2.9c0-2.6,4.3-4.2,3.2-6.8
		c-0.6-1.4-2.7-2-4.3-1.8s-3.2,0.7-4.9,0.7c-1.8-0.1-3.5-0.9-5.1-1.7c-3.9-1.9-7.9-3.4-12-4.7c-1.2-0.4-2.4-0.7-3.5-0.5
		c-0.9,0.1-1.6,0.6-2.5,0.7c-3.5,0.3-5.6-4.9-9.2-4.9c-1.4,0-2.6,0.8-4,0.5c-2.2-0.5-2.8-3.3-4.8-4.3c-2.4-1.2-5.5,0.6-7.6-0.9
		c-1.5-1.1-2-3.6-3.9-3.6c-1,0-1.6,0.8-2.5,1c-1.6,0.5-3.3-0.6-4.8-1.4C659.1,201.7,663.3,212.3,662.8,214.9z"/>
	
		<rect x="656" y="220.3" transform="matrix(0.9499 0.3125 -0.3125 0.9499 113.7468 -202.0773)" class="st2" width="62.7" height="67.1"/>
</g>
<g>
	<path class="st0" d="M318.1,540.4l-149.5,25.4c-25,4.3-49-12.7-53.2-37.8l-66-388.2c-4.3-25,12.7-49,37.8-53.2l149.5-25.4
		c25-4.3,49,12.7,53.2,37.8l66,388.2C360.1,512.2,343.1,536.1,318.1,540.4z"/>
	<polygon class="st1" points="125.8,502.3 65.3,146.8 277,110.8 337.3,466.3 	"/>
	<line class="st3" x1="147.1" y1="112.3" x2="182.8" y2="106.2"/>
	<circle class="st1" cx="240.6" cy="517.2" r="20.8"/>
	<g>
		<path class="st0" d="M287.8,302.2l-168,28.6c-6.5,1.1-12.7-3.3-13.8-9.8L95,256.6c-1.1-6.5,3.3-12.7,9.8-13.8l168-28.6
			c6.5-1.1,12.7,3.3,13.8,9.8l10.9,64.3C298.7,294.8,294.3,301.1,287.8,302.2z"/>
		<g>
			<text transform="matrix(0.9858 -0.1676 0.1676 0.9858 161.3438 252.6561)" class="st2 st4 st5">Reminder</text>
		</g>
		<g>
			<text transform="matrix(0.9858 -0.1676 0.1676 0.9858 116.3648 285.1017)" class="st2 st6 st7">CALL YOUR ELECTED OFFICIAL</text>
		</g>
		<line class="st8" x1="101.9" y1="300.1" x2="294.5" y2="267.4"/>
		<line class="st8" x1="198.2" y1="283.8" x2="204.3" y2="318.2"/>
	</g>
</g>
</svg>
