<?xml version="1.0" encoding="utf-8"?>
<!-- Generator: Adobe Illustrator 22.0.1, SVG Export Plug-In . SVG Version: 6.00 Build 0)  -->
<svg version="1.1" id="Layer_1" width="24" height="24" xmlns="http://www.w3.org/2000/svg" xmlns:xlink="http://www.w3.org/1999/xlink" x="0px" y="0px"
	 viewBox="0 0 723 561" style="enable-background:new 0 0 723 561;" xml:space="preserve">
<style type="text/css">
	.st0{fill:#EDC134;}
	.st1{fill:#EDC134;stroke:#FFFFFF;stroke-width:3;stroke-miterlimit:10;}
	.st2{fill:#FFFFFF;}
</style>
<g>
	<path class="st0" d="M312.7,34.4l-302,495C4,540.3,14.4,553.7,26.6,550l544.9-164.9c9.2-2.8,12.9-13.9,7.2-21.6L335.8,33.4
		C329.9,25.4,317.8,25.9,312.7,34.4z"/>
	
		<ellipse transform="matrix(0.8054 -0.5928 0.5928 0.8054 -28.9181 309.0656)" class="st1" cx="456.2" cy="198.6" rx="86.8" ry="222.7"/>
</g>
<path class="st2" d="M462.9,142.3c-4.1-12.8-17.7-19.8-30.5-15.8c-9.6,3.1-16,11.5-16.8,21c-6.1-7.2-16.2-10.5-25.9-7.4
	c-12.8,4.1-19.8,17.7-15.8,30.5c9.2,29,62.6,43.4,62.6,43.4S470.6,166.6,462.9,142.3z"/>
<path class="st2" d="M676.4,61.3c-7.5-11.1-22.6-13.9-33.7-6.4c-8.3,5.7-12,15.6-10.1,24.9c-8-5.2-18.6-5.4-26.9,0.3
	c-11.1,7.5-13.9,22.6-6.4,33.7c17.2,25.2,72.4,23.7,72.4,23.7S690.8,82.4,676.4,61.3z"/>
<path class="st2" d="M491.5,68.1c1.9-7,1.9-14.7-0.5-22.2c-6.6-20.6-28.6-32-49.2-25.5c-20.6,6.6-32,28.6-25.5,49.2
	s28.6,32,49.2,25.5c7.2-2.3,13.3-6.5,17.9-11.8l19.5,0L491.5,68.1z"/>
<path class="st2" d="M705.9,274.2c4.6-5.7,7.6-12.7,8.4-20.5c2.2-21.5-13.6-40.7-35.1-42.9c-21.5-2.2-40.7,13.6-42.9,35.1
	c-2.2,21.5,13.6,40.7,35.1,42.9c7.5,0.8,14.8-0.7,21.1-3.8l17.9,7.7L705.9,274.2z"/>
<g>
	<path class="st2" d="M560.7,166.1c3.1-2.5,6.4-4.7,8.9-7.8c2.9-3.8,4.2-8.6,5.4-13.2c1-4,2.7-8.8,6.8-9.4c4.1-0.6,7.3,3.7,8.4,7.7
		c2.2,7.6,1,16-3.3,22.7c-1.3,2.1-3.1,4.6-2,6.8c0.8,1.7,2.7,2.4,4.5,2.7c3.7,0.7,7.5,0.4,11.2,1.1c3.7,0.7,7.5,2.7,8.8,6.2
		c1.3,3.5-0.3,7.3-0.3,11c0,4.5,2.4,6.5,1.4,10.9c-0.7,3.2-4.1,6.2-2.8,9.2c3,7.5-2.7,11.5-3.5,13c-0.7,1.2-0.1,2.7-0.2,4.1
		c-0.1,2.3-1.8,4.4-3.9,5.4c-2.1,1.1-4.4,1.4-6.8,1.6c-13.2,1.3-26.6,1.4-39.9,0.1c-4.9-0.5-10.1-1.2-14-4.1c-1-0.8-2-1.7-3.2-2.2
		c-3-1.3-6.9,0.5-9.5-1.5c-1.8-1.4-2.1-4-2.1-6.4c-0.2-6.4,0-12.9,0.4-19.3c0.3-4,0.1-8.8,3.3-11.8c2.3-2.2,5.9-2.8,8.8-3.9
		c5.4-2,7.2-4.4,10.4-9C551.3,174.7,555.7,170.1,560.7,166.1z"/>
	<path class="st0" d="M524.9,237.4l-17.6-0.7c-4-0.2-7.2-3.6-7.1-7.6l1.6-41.3c0.2-4,3.6-7.2,7.6-7.1l17.6,0.7
		c4,0.2,7.2,3.6,7.1,7.6l-1.6,41.3C532.4,234.4,528.9,237.6,524.9,237.4z"/>
</g>
</svg>
