<?xml version="1.0" encoding="utf-8"?>
<!-- Generator: Adobe Illustrator 22.0.1, SVG Export Plug-In . SVG Version: 6.00 Build 0)  -->
<svg version="1.1" id="Layer_1" width="24" height="24" xmlns="http://www.w3.org/2000/svg" xmlns:xlink="http://www.w3.org/1999/xlink" x="0px" y="0px"
	 viewBox="0 0 666.4 348.4" style="enable-background:new 0 0 666.4 348.4;" xml:space="preserve">
<style type="text/css">
	.st0{fill:#FFFFFF;}
	.st1{fill:#EDC134;}
	.st2{fill:none;stroke:#00B3BB;stroke-width:6;stroke-miterlimit:10;}
</style>
<rect x="49.7" y="53.3" class="st0" width="606.9" height="286.8"/>
<rect x="9.8" y="8.2" class="st1" width="606.9" height="286.8"/>
<g>
	<rect x="60.3" y="238.8" class="st0" width="499.3" height="11.5"/>
</g>
<g>
	<rect x="60.3" y="56.9" class="st0" width="111.6" height="11.5"/>
</g>
<path class="st2" d="M71.4,223.2c11.1,2.2,21.5-5.5,29.8-13.1c9.6-8.9,18.7-18.4,27-28.5c4.3-5.2,8.6-10.6,14.3-14.4
	c5.6-3.7,13.1-5.5,19.3-2.8c6,2.7,9.7,9.1,10.7,15.6s-0.1,13.1-1.2,19.6c-3.6,21-7.2,42-10.8,63c-0.8,4.5-1.4,9.7,1.4,13.3
	c5,6.4,15.4,2.5,21.6-2.7c25.3-21.2,37.3-55.4,63.8-75.1c3.3-2.5,8-4.6,11.3-2.1c2.1,1.6,2.6,4.6,2.9,7.2c2.5,21.2,5.4,43,15.7,61.7
	c2.1,3.9,5.5,8.1,9.9,7.7c4.6-0.5,7-5.6,8.4-10.1c6.8-22.5,10.1-46.5,22.7-66.4c3.2-5,9.9-10.1,14.4-6.2c2,1.7,2.5,4.5,2.8,7.1
	c2.7,18.6,4.4,37.7,12.3,54.7c3.7,8,9.3,15.8,17.6,19c4.7,1.8,9.9,1.9,14.8,1.2c18-2.5,34.1-15.9,39.7-33.2
	c2.6-8.1,4.9-18.6,13.3-20c8-1.4,13.7,7,18,13.8c4.8,7.6,10.6,14.6,17.1,20.8c1.8,1.7,4,3.4,6.3,3c2.7-0.5,4-3.4,5.1-5.9
	c4.3-9.9,11.8-19.1,22-22.7c16.1-5.7,34.5,3.6,50.8-1.6"/>
</svg>
