<?xml version="1.0" encoding="utf-8"?>
<!-- Generator: Adobe Illustrator 22.0.1, SVG Export Plug-In . SVG Version: 6.00 Build 0)  -->
<svg version="1.1" id="Layer_1" xmlns="http://www.w3.org/2000/svg" xmlns:xlink="http://www.w3.org/1999/xlink" x="0px" y="0px"
	 viewBox="0 0 787.9 525.2" style="enable-background:new 0 0 787.9 525.2;" xml:space="preserve">
<style type="text/css">
	.st0{fill:#EDC134;}
	.st1{fill:#FFFFFF;}
</style>
<path class="st0" d="M706.4,251.7c0.9-12.3,0.7-25.4-5.7-35.9c-5.7-9.4-15.8-15.4-26.2-19c-10.5-3.6-22.1-5-32.7-2
	s-20.3,10.8-23.7,21.4c-5.1,15.8,4.4,33.7-1.1,49.4c-2,5.9-6,10.9-9.1,16.3c-6.3,11-9.2,24-8.1,36.6c23-0.5,46,2.8,67.9,9.9
	c19.1,6.2,31.8,3.2,30.5-18C697,291.6,705,271.2,706.4,251.7z"/>
<path class="st0" d="M298.7,398.6c-2.2-15-3.9-30-5.2-45.1c-1.2-14.1-1.7-29.3,5.7-41.5c4.1-6.7,10.3-11.9,15.4-17.8
	c5.1-6,24.7-17.2,31.1-21.9c10.3-7.5-8.9-15.6-14.1-46.9c-5.4-32.5,4.6-50.6,16.5-59.5c17.2-12.8,42.1-15.1,60.5-4.2
	c18.4,11,28.8,45.8,16.5,82.7c-5.6,16.7,0.2,23.6,1.7,27.3c2.3,5.7,10.1,6.2,16.2,6.8c22.5,2.2,37.5,28.4,40.6,42.5
	c11.1,51.5-1.9,94-4.2,108.6"/>
<path class="st0" d="M45.4,18.8c0.2-0.3,0.4-0.6,0.6-0.9c7.4-11.3,27.9-11.8,36.4-1.2c4.9,6.1,5.1,15.1,1.9,22.3
	c-3.2,7.2-9.3,12.7-15.9,16.9c-2.1,1.3-4.3,2.6-5.9,4.5c-1.7,2-2.5,4.6-3.2,7.1C50,99.1,48,115.3,47.8,148.4
	c-0.2,31.7,3,63.4,9.4,94.4c1.5,7.4,6.4,16.8,13.6,14.6c3-0.9,5-3.6,7.1-5.9c17.4-18.7,48.1-9.7,71.5,0.5
	c5.9,2.6,12.1,5.4,15.7,10.8c2.6,3.9,3.5,8.8,5.4,13.1c7.7,17,32.4,28.9,26.5,46.7c-40.1,2.6-80.2,5.3-120.4,7.9
	c-17,1.1-32.8,2.7-47.4-6C8.6,311.9,7.2,215.5,9.1,185.1c2.7-43.4,5.5-74,16.5-116C29.3,54.7,37.4,31.8,45.4,18.8z"/>
<path class="st1" d="M89.4,152.6c-14.9,13.2-24.1,32.3-26.5,52.1c-2.6,21.3,3,44.3,18.4,59.3c16.6,16.2,41,20.6,64,23.8
	c11.6,1.6,23.9,3,34.7-1.7c10.7-4.8,18.5-18.1,13.2-28.5c-2-4-5.6-6.9-8.1-10.6c-5.7-8.5-5.2-19.7-2.9-29.7s6.4-19.6,7-29.8
	C192.5,134.3,121.2,124.5,89.4,152.6z"/>
<path class="st1" d="M13.4,503.7c0-69.1,0.1-121.5,0.1-190.6c0-4.5,0.1-9.3,2.9-12.8c3-3.7,8.1-4.8,12.8-5.5
	c54.2-8.8,109.7-9.7,164.1-2.6c6.3,0.8,12.9,1.9,17.6,6.2c4.8,4.5,6.4,11.3,7.7,17.8c11.9,59.1,20.2,124.5,25,184.7"/>
<path class="st1" d="M267.3,505c1.5-57.8,9.1-98.7,22.7-154.9c1.7-6.9,3.5-13.9,7.3-20c6.6-10.4,18.1-16.5,29.6-21.1
	c19.1-7.6,39.3-12.3,59.7-14.8c29-3.5,75.3-0.6,93.2,22.5c12,15.5,13.8,36.2,15.2,55.7c3.7,51.6,7.3,86.4,11,138"/>
<path class="st1" d="M564.7,516.1c-1.4-79.1-0.9-127.6,2.5-173.3c0.8-11.3,2.2-23.3,9.2-32.1c7.7-9.7,20.6-13.5,32.7-15.6
	c27.7-4.8,81.1,1.7,109.1,2.6c6.8,0.2,13.8,0.5,20,3.4c14.5,6.8,19.2,24.7,21.9,40.4c10.4,60,16.9,104,19.2,164.9"/>
</svg>
