<?xml version="1.0" encoding="utf-8"?>
<!-- Generator: Adobe Illustrator 22.0.1, SVG Export Plug-In . SVG Version: 6.00 Build 0)  -->
<svg version="1.1" id="Layer_1" width="24" height="24" xmlns="http://www.w3.org/2000/svg" xmlns:xlink="http://www.w3.org/1999/xlink" x="0px" y="0px"
	 viewBox="0 0 546 523.9" style="enable-background:new 0 0 546 523.9;" xml:space="preserve">
<style type="text/css">
	.st0{fill:#EDC134;}
	.st1{fill:#FFFFFF;}
	.st2{fill:none;stroke:#EDC134;stroke-width:4;stroke-miterlimit:10;}
</style>
<g>
	<rect x="8.2" y="470.8" class="st0" width="529.7" height="45.8"/>
	<rect x="-29" y="505.2" class="st1" width="607" height="45.8"/>
	<line class="st2" x1="274.5" y1="115.8" x2="274.5" y2="7"/>
	<rect x="275.9" y="11.3" class="st0" width="100.2" height="60.1"/>
	<path class="st0" d="M52.6,274.6v219.1h440.9V274.6H52.6z M126.4,470.6H91.9V300.7h34.5V470.6z M208.1,470.6h-34.5V300.7h34.5
		V470.6z M289.8,470.6h-34.5V300.7h34.5V470.6z M371.6,470.6h-34.5V300.7h34.5V470.6z M453.3,470.6h-34.5V300.7h34.5V470.6z"/>
	<path class="st1" d="M28.9,301c0-106.9,109.3-196.7,244.2-196.7S517.3,191.5,517.3,301H28.9z"/>
</g>
</svg>
