<?xml version="1.0" encoding="utf-8"?>
<!-- Generator: Adobe Illustrator 22.0.1, SVG Export Plug-In . SVG Version: 6.00 Build 0)  -->
<svg version="1.1" id="Layer_1" width="24" height="24" xmlns="http://www.w3.org/2000/svg" xmlns:xlink="http://www.w3.org/1999/xlink" x="0px" y="0px"
	 viewBox="0 0 721.1 487.7" style="enable-background:new 0 0 721.1 487.7;" xml:space="preserve">
<style type="text/css">
	.st0{fill:#EDC134;}
	.st1{fill:none;stroke:#EDC134;stroke-width:12.6852;stroke-miterlimit:10;}
	.st2{fill:#FFFFFF;}
</style>
<rect x="405.5" y="15.9" transform="matrix(0.997 7.701017e-02 -7.701017e-02 0.997 12.0673 -39.0075)" class="st0" width="212.6" height="242"/>
<line class="st1" x1="346.7" y1="270.7" x2="350.7" y2="476.8"/>
<g>
	
		<rect x="473.7" y="389.2" transform="matrix(7.702227e-02 -0.997 0.997 7.702227e-02 121.3232 920.9691)" class="st2" width="168.9" height="11.5"/>
</g>
<g>
	
		<rect x="170.2" y="290.7" transform="matrix(0.9815 -0.1912 0.1912 0.9815 -70.3048 40.742)" class="st2" width="11.5" height="187.9"/>
</g>
<g>
	
		<rect x="381.3" y="367.4" transform="matrix(0.1472 -0.9891 0.9891 0.1472 43.3958 797.898)" class="st0" width="206.3" height="12.7"/>
</g>
<rect x="25" y="114.7" transform="matrix(0.99 -0.1411 0.1411 0.99 -31.5712 22.7417)" class="st2" width="239.1" height="238.6"/>
<rect x="224.2" y="66.9" class="st0" width="239.1" height="303.3"/>
<rect x="412.5" y="217" transform="matrix(0.997 7.701017e-02 -7.701017e-02 0.997 25.9895 -42.0694)" class="st2" width="292" height="197.9"/>
</svg>
