<?xml version="1.0" encoding="utf-8"?>
<!-- Generator: Adobe Illustrator 22.0.1, SVG Export Plug-In . SVG Version: 6.00 Build 0)  -->
<svg version="1.1" id="Layer_1" width="24" height="24" xmlns="http://www.w3.org/2000/svg" xmlns:xlink="http://www.w3.org/1999/xlink" x="0px" y="0px"
	 viewBox="0 0 618.7 566.9" style="enable-background:new 0 0 618.7 566.9;" xml:space="preserve">
<style type="text/css">
	.st0{fill:#EDC134;}
	.st1{fill:#FFFFFF;}
	.st2{fill:none;stroke:#EDC134;stroke-width:4;stroke-miterlimit:10;}
</style>
<path class="st0" d="M607.4,119.9c-10-8-10-10-10-34v-41c0-18.7-15.3-34-34-34h-362c-18.7,0-34,15.3-34,34v41c0,18.7,15.3,34,34,34
	h362c7.6,0,14.6-2.5,20.3-6.8C587.1,115.8,594.5,119.9,607.4,119.9z"/>
<path class="st0" d="M11.4,239.9c10-8,10-10,10-34v-41c0-18.7,15.3-34,34-34h362c18.7,0,34,15.3,34,34v41c0,18.7-15.3,34-34,34h-362
	c-7.6,0-14.6-2.5-20.3-6.8C31.6,235.8,24.2,239.9,11.4,239.9z"/>
<g>
	<path class="st0" d="M597.4,521.9v-46h-430v46c0,18.7,15.3,34,34,34h362c7.6,0,14.6-2.5,20.3-6.8c3.4,2.7,10.8,6.8,23.6,6.8
		C597.4,547.9,597.4,545.9,597.4,521.9z"/>
	<path class="st1" d="M597.4,284.9c0-18.7-15.3-34-34-34h-362c-18.7,0-34,15.3-34,34v191h430V284.9z"/>
</g>
<path class="st0" d="M297.6,381.6c0-37.3,38.2-68.7,85.3-68.7s85.3,30.4,85.3,68.7H297.6z"/>
<rect x="305.9" y="372.4" class="st0" width="154" height="76.5"/>
<rect x="290.4" y="440.9" class="st0" width="185" height="16"/>
<rect x="277.4" y="452.9" class="st0" width="212" height="16"/>
<line class="st2" x1="383.4" y1="316.9" x2="383.4" y2="278.9"/>
<rect x="383.9" y="280.4" class="st0" width="35" height="21"/>
</svg>
