<?xml version="1.0" encoding="utf-8"?>
<!-- Generator: Adobe Illustrator 22.0.1, SVG Export Plug-In . SVG Version: 6.00 Build 0)  -->
<svg version="1.1" id="Layer_1" xmlns="http://www.w3.org/2000/svg" xmlns:xlink="http://www.w3.org/1999/xlink" x="0px" y="0px"
	 viewBox="0 0 787.2 696.5" style="enable-background:new 0 0 787.2 696.5;" xml:space="preserve">
<style type="text/css">
	.st0{fill:#FFFFFF;}
	.st1{fill:#EDC134;}
</style>
<path class="st0" d="M125.3,123.5c-13.8-1.4-28-2.5-41.1,1.8c-13.6,4.5-24.7,14.4-34.8,24.7c-18,18.3-34.6,39.8-38.4,65.2
	c-5.8,39.4,20.6,76,48.5,104.3c52.7,53.4,116,95.2,181,132.7c42,24.3,84.9,47,127.9,69.5c22.3,11.7,45.5,23.6,70.7,25.1
	c6.5,0.4,13.3,0,19.1-2.9c6.3-3.1,10.8-8.8,15-14.3C552.6,425.5,598,296.2,602,165.5c0.6-21,0.2-42.4-6.2-62.5
	c-16.1-50.7-68.1-83.4-120.6-91.8c-17.9-2.9-36.7-3.3-53.5,3.6c-14.6,6.1-26.6,17.3-36.4,29.8c-22,28-34.8,62.4-41.2,97.4
	c-3.9,21.3-6.1,44.1-15.7,63.1c-2.9,5.6-10.6,6.5-14.5,1.5c-8.1-10.3-22-23.6-25.3-26.3c-15-12.5-30.6-22.8-48.5-30.7
	C204.1,133.7,164.3,127.4,125.3,123.5z"/>
<path class="st1" d="M560.4,307.7c-22.2-41.2-63.3-74.7-110.1-77.2c-13.3-0.7-27,1.1-38.9,7c-19.8,9.7-33.1,29.4-40.9,50.1
	c-13.2,35.2-12.9,74.2-6.4,111.2s19,72.7,29.7,108.7c16.4,55.4,29.2,113.4,61.7,161.1c4.1,6,8.6,12,15.1,15.3
	c7.7,4,16.9,3.6,25.5,2.6c46.6-5.6,89.5-27.5,130.5-50.6c53.9-30.3,109.4-66.5,134.7-122.9c9.1-20.4,13.9-42.7,15.4-65
	c0.9-12.6,0.7-25.5-3.4-37.5c-6.7-19.1-23.2-33.5-41.7-41.7c-47.6-21.1-82.9-1.1-121.1,25.5c-21.8,15.2-22.7,5.1-26.7-17.1
	C579.3,353.1,572.1,329.4,560.4,307.7z"/>
</svg>
