<?xml version="1.0" encoding="utf-8"?>
<!-- Generator: Adobe Illustrator 22.0.1, SVG Export Plug-In . SVG Version: 6.00 Build 0)  -->
<svg version="1.1" id="Layer_1" width="24" height="24" xmlns="http://www.w3.org/2000/svg" xmlns:xlink="http://www.w3.org/1999/xlink" x="0px" y="0px"
	 viewBox="0 0 654.4 668.3" style="enable-background:new 0 0 654.4 668.3;" xml:space="preserve">
<style type="text/css">
	.st0{fill:none;stroke:#00B3BB;stroke-width:14;stroke-miterlimit:10;}
	.st1{fill:#EDC134;}
	.st2{fill:#FFFFFF;}
	.st3{fill:none;stroke:#EDC134;stroke-width:1.0678;stroke-miterlimit:10;}
</style>
<path class="st0" d="M352.2,443.2"/>
<polyline class="st1" points="644.2,491.7 644.2,281.3 371.1,203.7 10.2,293.5 10.2,491.7 "/>
<polygon class="st2" points="10.2,293.5 288.8,408.5 644.2,281.3 644.2,522.6 283.4,660 10.2,522.6 "/>
<polygon class="st2" points="229.9,328.1 432.8,261.7 413.2,256.1 210.3,319.7 "/>
<polygon class="st2" points="400.1,273.1 242.1,323.3 242.1,58.6 400.1,8.4 "/>
<polygon class="st1" points="270.1,130.8 255.2,134.5 255.2,114.9 270.1,111.1 "/>
<polygon class="st1" points="270.1,164.4 255.2,168.2 255.2,148.5 270.1,144.8 "/>
<polygon class="st1" points="270.1,197.2 255.2,200.9 255.2,181.3 270.1,177.5 "/>
<polygon class="st1" points="270.1,231.8 255.2,235.5 255.2,215.9 270.1,212.1 "/>
<polygon class="st1" points="270.1,263.6 255.2,267.3 255.2,247.7 270.1,243.9 "/>
<line class="st3" x1="276.7" y1="118.6" x2="387" y2="81.2"/>
<line class="st3" x1="276.7" y1="152.3" x2="387" y2="114.9"/>
<line class="st3" x1="276.7" y1="185.9" x2="387" y2="148.5"/>
<line class="st3" x1="276.7" y1="219.6" x2="387" y2="182.2"/>
<line class="st3" x1="276.7" y1="253.3" x2="387" y2="215.9"/>
</svg>
