<?xml version="1.0" encoding="utf-8"?>
<!-- Generator: Adobe Illustrator 23.0.1, SVG Export Plug-In . SVG Version: 6.00 Build 0)  -->
<svg version="1.1" id="Layer_1" xmlns="http://www.w3.org/2000/svg" xmlns:xlink="http://www.w3.org/1999/xlink" x="0px" y="0px"
	 viewBox="0 0 1182.8100586 44.2200012" style="enable-background:new 0 0 1182.8100586 44.2200012;" xml:space="preserve">
<style type="text/css">
	.st0{fill:#FFFFFF;stroke:#8EC34B;stroke-width:1.6889242;stroke-miterlimit:10;}
	.st1{fill:none;stroke:#EE3583;stroke-linecap:round;stroke-miterlimit:10;stroke-dasharray:10;}
</style>
<g>
	<g>
		<path class="st0" d="M26.4690628,2.728054l36.8966866,37.1991158c0.2635918,0.2657547,0.7006721-0.0263901,0.5559196-0.3715744
			L48.1952133,2.0540478c-0.0537529-0.1281745-0.1799889-0.2108314-0.3189659-0.208846l-21.170229,0.3024317
			C26.4056149,2.1519251,26.2574921,2.5147491,26.4690628,2.728054z"/>
		<path class="st0" d="M25.9047146,2.9861312v12.6929398c0,0.1149435,0.0579758,0.2221336,0.154171,0.2850485L61.8976631,39.403717
			c0.3420677,0.2237244,0.7160873-0.2347069,0.4282532-0.5249023L26.4871368,2.7462759
			C26.2729759,2.5303597,25.9047146,2.6820185,25.9047146,2.9861312z"/>
		<path class="st0" d="M60.9192924,40.3331642l-41.3499298-9.4081841c-0.1550331-0.0352726-0.2650356-0.1731167-0.2650356-0.3321114
			v-8.2572556c0-0.2443542,0.2497025-0.409214,0.474411-0.3132133l41.3499298,17.6654396
			C61.5102882,39.8508759,61.3239365,40.4252319,60.9192924,40.3331642z"/>
		<path class="st0" d="M1.9830686,16.6957951L17.1361561,5.4825106c0.1215725-0.0899649,0.2879105-0.0889854,0.4084167,0.0024052
			l45.1561966,34.2459755c0.3137856,0.2379723,0.0405693,0.730072-0.3273315,0.5895691L2.0641541,17.2877674
			C1.812765,17.1917591,1.7667559,16.8558655,1.9830686,16.6957951z"/>
	</g>
	<path class="st1" d="M1181.3094482,31.7834473c-119.5311279-12.6418018-197.8134155,12.7326164-329.5701904,9.8200226
		C805.7200317,40.586174,703.3583374,28.913269,657.2412109,29.1210251
		c-93.7625732,0.4223976-175.0664673,20.2944145-264.7683105,11.234066
		c-56.9779968-5.7550697-89.6141663-15.9766216-149.177002-15.9766407
		c-47.6833954-0.0000153-84.6785736,3.1912193-133.1588745,8.4871235"/>
</g>
</svg>
