<?xml version="1.0" encoding="utf-8"?>
<!-- Generator: Adobe Illustrator 22.0.1, SVG Export Plug-In . SVG Version: 6.00 Build 0)  -->
<svg version="1.1" id="Layer_1" xmlns="http://www.w3.org/2000/svg" xmlns:xlink="http://www.w3.org/1999/xlink" x="0px" y="0px"
	 viewBox="0 0 103.1 103.1" style="enable-background:new 0 0 103.1 103.1;" xml:space="preserve">
<style type="text/css">
	.st0{fill:none;stroke:rgb(6, 179, 188);stroke-width:5;stroke-linecap:round;stroke-linejoin:round;stroke-miterlimit:10;}
</style>
<circle class="st0" cx="51.5" cy="51.5" r="28"/>
<polygon class="st0" points="51.5,11.5 61.3,2.5 66.8,14.6 79.3,10 79.8,23.3 93.1,23.8 88.5,36.2 100.6,41.8 91.5,51.5 100.6,61.3 
	88.5,66.8 93.1,79.3 79.8,79.8 79.3,93.1 66.8,88.5 61.3,100.6 51.5,91.5 41.8,100.6 36.2,88.5 23.8,93.1 23.3,79.8 10,79.3 
	14.6,66.8 2.5,61.3 11.5,51.5 2.5,41.8 14.6,36.2 10,23.8 23.3,23.3 23.8,10 36.2,14.6 41.8,2.5 "/>
</svg>
