<?xml version="1.0" encoding="utf-8"?>
<!-- Generator: Adobe Illustrator 22.0.1, SVG Export Plug-In . SVG Version: 6.00 Build 0)  -->
<svg version="1.1" id="Layer_1" xmlns="http://www.w3.org/2000/svg" xmlns:xlink="http://www.w3.org/1999/xlink" x="0px" y="0px"
	 viewBox="0 0 82.1 150.5" style="enable-background:new 0 0 82.1 150.5;" xml:space="preserve">
<style type="text/css">
	.st0{fill:none;stroke:rgb(6, 179, 188);stroke-width:5;stroke-linecap:round;stroke-linejoin:round;stroke-miterlimit:10;}
</style>
<path class="st0" d="M31,148c0,0-15.5-56.5,5-104c0,0,16.5,11.5,16.5,31.5c9-22,0-32,0-32s18.2-6.9,27,1c0.6,0.6-4-22-31-13
	c7-22-17-29-17-29s8,10,4,23c-11-7-13-9-33-8c19,9,22,17,22,17s-13,0-22,15c14-3,34-5,34-5"/>
</svg>
