<?xml version="1.0" encoding="utf-8"?>
<!-- Generator: Adobe Illustrator 22.0.1, SVG Export Plug-In . SVG Version: 6.00 Build 0)  -->
<svg version="1.1" id="Layer_1" xmlns="http://www.w3.org/2000/svg" xmlns:xlink="http://www.w3.org/1999/xlink" x="0px" y="0px"
	 viewBox="0 0 61.6 59.6" style="enable-background:new 0 0 61.6 59.6;" xml:space="preserve">
<style type="text/css">
	.st0{fill:none;stroke:white;stroke-width:0.978;stroke-linecap:round;stroke-linejoin:round;stroke-miterlimit:10;}
</style>
<path class="st0" d="M29.6,47.4c0,0-2.5-10.8-12.6-16.1"/>
<path class="st0" d="M14.6,52.5c0,0-1-4.7-6.3-8"/>
<circle class="st0" cx="9.3" cy="13.7" r="1.7"/>
<circle class="st0" cx="47.8" cy="16.7" r="1.7"/>
<circle class="st0" cx="37.9" cy="55.1" r="1.7"/>
<circle class="st0" cx="6.6" cy="35.2" r="1.7"/>
<circle class="st0" cx="27.2" cy="4" r="1.7"/>
<g>
	<path class="st0" d="M43.5,35.2c-5-14.3-17.7-18.5-17.7-18.5l-25.3,40L45.3,43c-0.2-1.6-0.5-3.1-0.8-4.5"/>
	<path class="st0" d="M43.5,35.2c0.2-0.1,0.5-0.2,0.7-0.2c1,0,1.7,0.8,1.7,1.7c0,0.9-0.7,1.6-1.5,1.7"/>
	<path class="st0" d="M43.5,35.2c-0.6,0.3-1,0.9-1,1.6c0,1,0.8,1.7,1.7,1.7c0.1,0,0.1,0,0.2,0"/>
</g>
<path class="st0" d="M43.5,27.1c0,0,6.7-8.6,17.6-4.5"/>
<path class="st0" d="M38.4,19.1c0,0,5.2-4.1,2.7-18.6"/>
<path class="st0" d="M30.7,16.5c0,0,1.9-3.5,0-6.9"/>
<path class="st0" d="M48.4,38.5c0,0,4.6-2.7,9.1,1"/>
<polygon class="st0" points="10.8,19.1 8.2,23.6 13.4,23.6 "/>
<polygon class="st0" points="52.1,54.9 46.9,54.5 49.1,59.1 "/>
<polygon class="st0" points="51,5.1 45.8,4.6 48,9.3 "/>
<path class="st0" d="M46.7,32.4c0,0,4.9-4.5,13.6-0.9"/>
</svg>
