<?xml version="1.0" encoding="utf-8"?>
<!-- Generator: Adobe Illustrator 23.0.1, SVG Export Plug-In . SVG Version: 6.00 Build 0)  -->
<svg version="1.1" id="Layer_1" xmlns="http://www.w3.org/2000/svg" xmlns:xlink="http://www.w3.org/1999/xlink" x="0px" y="0px"
	 viewBox="0 0 108.58 140.11" style="enable-background:new 0 0 108.58 140.11;" xml:space="preserve">
<style type="text/css">
	.st0{fill:#FDF6D3;}
	.st1{fill:none;stroke:#FCD111;stroke-width:3;stroke-linecap:round;stroke-miterlimit:10;}
	.st2{fill:#FFFFFF;stroke:#FCD111;stroke-width:3;stroke-miterlimit:10;}
	.st3{fill:none;stroke:#00B2BB;stroke-width:1.5;stroke-linecap:round;stroke-miterlimit:10;}
</style>
<g>
	<path class="st0" d="M99.77,31.24c-0.09-0.42-0.5-0.7-0.92-0.62l-4.25,0.73c-0.43-2.2-0.89-4.41-1.39-6.66
		c-0.09-0.42-0.5-0.7-0.92-0.62l-4.76,0.82c-0.36-1.75-0.74-3.52-1.15-5.3c-0.08-0.36-0.44-0.6-0.8-0.54L17.01,30.35
		c-0.43,0.07-0.69,0.5-0.55,0.91c1.91,5.55,12.71,40.22-0.55,81.16c-0.14,0.44,0.17,0.89,0.63,0.91l7.79,0.34
		c-0.47,1.71-0.97,3.4-1.54,5.04c-0.18,0.51,0.18,1.05,0.71,1.08l7.42,0.33c-0.48,1.74-0.99,3.46-1.57,5.14
		c-0.18,0.51,0.18,1.05,0.71,1.08l70.8,3.18c0.38,0.02,0.73-0.24,0.81-0.62C102.96,123.34,111.43,82.91,99.77,31.24z"/>
	<path class="st0" d="M85.06,41.81c-0.09-0.42-0.49-0.7-0.91-0.64l-4.26,0.67c-0.4-2.21-0.82-4.43-1.3-6.68
		c-0.09-0.42-0.49-0.7-0.91-0.64l-4.77,0.75c-0.34-1.76-0.69-3.53-1.07-5.32c-0.08-0.36-0.43-0.61-0.79-0.55L2.32,39.73
		c-0.43,0.06-0.7,0.49-0.56,0.9c1.83,5.58,12.13,40.39-1.72,81.14c-0.15,0.44,0.16,0.9,0.62,0.92l7.78,0.46
		c-0.49,1.7-1.02,3.38-1.61,5.02c-0.18,0.51,0.16,1.06,0.7,1.09l7.41,0.44c-0.5,1.74-1.04,3.45-1.64,5.12
		c-0.18,0.51,0.16,1.06,0.7,1.09l70.75,4.2c0.38,0.02,0.73-0.23,0.82-0.61C86.92,133.95,95.98,93.64,85.06,41.81z"/>
	<g>
		<line class="st1" x1="78.94" y1="1.87" x2="78.94" y2="8.93"/>
		<line class="st1" x1="98.23" y1="1.5" x2="92.3" y2="11.77"/>
		<line class="st1" x1="107.08" y1="19.63" x2="102" y2="22.56"/>
	</g>
	<path class="st2" d="M25.13,46.56c1.15,6.48,8.42,50.92-2.35,82.26c-0.18,0.51,0.18,1.05,0.71,1.08l70.8,3.18
		c0.38,0.02,0.73-0.24,0.81-0.62c1.28-5.56,9.75-46-1.91-97.67c-0.09-0.42-0.5-0.7-0.92-0.62l-66.5,11.47
		C25.34,45.7,25.05,46.12,25.13,46.56z"/>
	<path class="st2" d="M17.56,39.01c1.15,6.48,8.42,50.92-2.35,82.26c-0.18,0.51,0.18,1.05,0.71,1.08l70.8,3.18
		c0.38,0.02,0.73-0.24,0.81-0.62c1.28-5.56,9.75-46-1.91-97.67c-0.09-0.42-0.5-0.7-0.92-0.62l-66.5,11.47
		C17.78,38.15,17.49,38.57,17.56,39.01z"/>
	<path class="st2" d="M7.89,32.81c1.91,5.55,12.71,40.22-0.55,81.16c-0.14,0.44,0.17,0.89,0.63,0.91l71.05,3.14
		c0.34,0.01,0.63-0.21,0.71-0.53c1.21-5.14,9.85-45.16-1.91-96.36c-0.08-0.36-0.44-0.6-0.8-0.54L8.44,31.9
		C8.01,31.97,7.75,32.4,7.89,32.81z"/>
	<g>
		<path class="st3" d="M20.72,47.06c14.85-1.02,11.83-1.15,27.06-3.3"/>
		<path class="st3" d="M21.82,56.3c15.44-0.28,11.29,0.01,26.52-2.14"/>
		<path class="st3" d="M22.6,65.78c15.98,0.45,34.65-1.74,50.91-4.45"/>
		<path class="st3" d="M23.37,76.24c15.3-0.6,35.62-1.16,50.91-3.48"/>
		<path class="st3" d="M22.98,86.72c12.2,0.38,33.7-0.32,49.94-2"/>
		<path class="st3" d="M21.24,97.53c12.39,1.36,34.84-0.17,50.52,0.19"/>
		<path class="st3" d="M54.23,47.42c1.84,1.66,3.43,3.65,4.68,5.84c0.28,0.49,1.01,0.46,1.24-0.06c2.81-6.54,6.71-10.64,10.62-14.32
			"/>
	</g>
</g>
</svg>
