<?xml version="1.0" encoding="utf-8"?>
<!-- Generator: Adobe Illustrator 23.0.1, SVG Export Plug-In . SVG Version: 6.00 Build 0)  -->
<svg version="1.1" id="Layer_1" xmlns="http://www.w3.org/2000/svg" xmlns:xlink="http://www.w3.org/1999/xlink" x="0px" y="0px"
	 viewBox="0 0 114.55 136.91" style="enable-background:new 0 0 114.55 136.91;" xml:space="preserve">
<style type="text/css">
	.st0{fill:none;stroke:#FCD111;stroke-width:3;stroke-linecap:round;stroke-miterlimit:10;}
	.st1{fill:#FDF6D3;}
	.st2{fill:none;stroke:#00B2BB;stroke-width:1.5;stroke-miterlimit:10;}
	.st3{fill:#FDF6D3;stroke:#FCD111;stroke-width:3;stroke-miterlimit:10;}
</style>
<g>
	<line class="st0" x1="101.45" y1="135.41" x2="95.73" y2="131.27"/>
	<line class="st0" x1="113.05" y1="120" x2="101.25" y2="118.79"/>
	<line class="st0" x1="103.54" y1="102.2" x2="98.19" y2="104.6"/>
</g>
<g>
	<path class="st1" d="M94.45,45.57c-0.45-0.8-0.45-1.78,0-2.58l2.12-3.78c0.6-1.07,0.39-2.4-0.51-3.23l-3.18-2.94
		c-0.68-0.62-0.98-1.55-0.8-2.46l0.85-4.24c0.24-1.2-0.38-2.4-1.48-2.91l-3.93-1.81c-0.83-0.38-1.41-1.18-1.52-2.09l-0.51-4.3
		c-0.14-1.21-1.1-2.17-2.31-2.31l-4.3-0.51c-0.91-0.11-1.7-0.68-2.09-1.52l-1.81-3.93c-0.51-1.11-1.72-1.72-2.91-1.48l-4.24,0.85
		c-0.9,0.18-1.83-0.12-2.46-0.8l-2.94-3.18c-0.83-0.9-2.16-1.11-3.23-0.51l-3.78,2.12c-0.8,0.45-1.78,0.45-2.58,0l-3.78-2.12
		c-1.07-0.6-2.4-0.39-3.23,0.51l-2.94,3.18c-0.62,0.68-1.55,0.98-2.46,0.8l-4.24-0.85c-1.2-0.24-2.4,0.38-2.91,1.48l-1.81,3.93
		c-0.38,0.83-1.18,1.41-2.09,1.52l-4.3,0.51c-1.21,0.14-2.17,1.1-2.31,2.31l-0.51,4.3c-0.11,0.91-0.68,1.7-1.52,2.09l-3.93,1.81
		c-1.11,0.51-1.72,1.72-1.48,2.91l0.85,4.24c0.18,0.9-0.12,1.83-0.8,2.46l-3.18,2.94c-0.9,0.83-1.11,2.16-0.51,3.23l2.12,3.78
		c0.45,0.8,0.45,1.78,0,2.58l-2.12,3.78c-0.6,1.07-0.39,2.4,0.51,3.23l3.18,2.94c0.68,0.62,0.98,1.55,0.8,2.46l-0.85,4.24
		c-0.24,1.2,0.38,2.4,1.48,2.91l3.93,1.81c0.84,0.38,1.41,1.18,1.52,2.09l0.51,4.3c0.14,1.21,1.1,2.17,2.31,2.31l4.3,0.51
		c0.91,0.11,1.7,0.68,2.09,1.52l1.81,3.93c0.28,0.62,0.78,1.07,1.38,1.32c-4,9.18-10.72,20.72-22.04,33.59
		c-0.46,0.52,0.03,1.32,0.7,1.14l16.14-4.19c0.33-0.08,0.67,0.08,0.81,0.38l7.27,15.49c0.24,0.51,0.94,0.55,1.23,0.07
		c2.56-4.27,11.6-20.75,14.39-44.93c0.7-0.28,1.47-0.25,2.15,0.08c2.8,24.14,11.82,40.58,14.38,44.84c0.29,0.48,0.99,0.44,1.23-0.07
		l7.27-15.49c0.14-0.3,0.48-0.46,0.81-0.38l16.14,4.19c0.67,0.17,1.16-0.62,0.7-1.14c-11.35-12.9-18.07-24.47-22.07-33.66
		c0.52-0.26,0.95-0.69,1.2-1.25l1.81-3.93c0.38-0.84,1.18-1.41,2.09-1.52l4.3-0.51c1.21-0.14,2.17-1.1,2.31-2.31l0.51-4.3
		c0.11-0.91,0.68-1.7,1.52-2.09l3.93-1.81c1.11-0.51,1.72-1.72,1.48-2.91l-0.85-4.24c-0.18-0.9,0.12-1.83,0.8-2.46l3.18-2.94
		c0.9-0.83,1.11-2.16,0.51-3.23L94.45,45.57z"/>
	<path class="st1" d="M83.1,45.57c-0.45-0.8-0.45-1.78,0-2.58l2.12-3.78c0.6-1.07,0.39-2.4-0.51-3.23l-3.18-2.94
		c-0.68-0.62-0.98-1.55-0.8-2.46l0.85-4.24c0.24-1.2-0.38-2.4-1.48-2.91l-3.93-1.81c-0.83-0.38-1.41-1.18-1.52-2.09l-0.51-4.3
		c-0.14-1.21-1.1-2.17-2.31-2.31l-4.3-0.51c-0.91-0.11-1.7-0.68-2.09-1.52l-1.81-3.93c-0.51-1.11-1.72-1.72-2.91-1.48l-4.24,0.85
		c-0.9,0.18-1.83-0.12-2.46-0.8l-2.94-3.18c-0.83-0.9-2.16-1.11-3.23-0.51l-3.78,2.12c-0.8,0.45-1.78,0.45-2.58,0l-3.78-2.12
		c-1.07-0.6-2.4-0.39-3.23,0.51l-2.94,3.18c-0.62,0.68-1.55,0.98-2.46,0.8l-4.24-0.85c-1.2-0.24-2.4,0.38-2.91,1.48l-1.81,3.93
		c-0.38,0.83-1.18,1.41-2.09,1.52l-4.3,0.51c-1.21,0.14-2.17,1.1-2.31,2.31l-0.51,4.3c-0.11,0.91-0.68,1.7-1.52,2.09l-3.93,1.81
		c-1.11,0.51-1.72,1.72-1.48,2.91l0.85,4.24c0.18,0.9-0.12,1.83-0.8,2.46l-3.18,2.94c-0.9,0.83-1.11,2.16-0.51,3.23l2.12,3.78
		c0.45,0.8,0.45,1.78,0,2.58l-2.12,3.78c-0.6,1.07-0.39,2.4,0.51,3.23l3.18,2.94c0.68,0.62,0.98,1.55,0.8,2.46l-0.85,4.24
		c-0.24,1.2,0.38,2.4,1.48,2.91l3.93,1.81c0.84,0.38,1.41,1.18,1.52,2.09l0.51,4.3c0.14,1.21,1.1,2.17,2.31,2.31l4.3,0.51
		c0.91,0.11,1.7,0.68,2.09,1.52l1.81,3.93c0.28,0.62,0.78,1.07,1.38,1.32c-4,9.18-10.72,20.72-22.04,33.59
		c-0.46,0.52,0.03,1.32,0.7,1.14l16.14-4.19c0.33-0.08,0.67,0.08,0.81,0.38l7.27,15.49c0.24,0.51,0.94,0.55,1.23,0.07
		c2.56-4.27,11.6-20.75,14.39-44.93c0.7-0.28,1.47-0.25,2.15,0.08c2.8,24.14,11.82,40.58,14.38,44.84c0.29,0.48,0.99,0.44,1.23-0.07
		l7.27-15.49c0.14-0.3,0.48-0.46,0.81-0.38l16.14,4.19c0.67,0.17,1.16-0.62,0.7-1.14c-11.35-12.9-18.07-24.47-22.07-33.66
		c0.52-0.26,0.95-0.69,1.2-1.25l1.81-3.93c0.38-0.84,1.18-1.41,2.09-1.52l4.3-0.51c1.21-0.14,2.17-1.1,2.31-2.31l0.51-4.3
		c0.11-0.91,0.68-1.7,1.52-2.09l3.93-1.81c1.11-0.51,1.72-1.72,1.48-2.91l-0.85-4.24c-0.18-0.9,0.12-1.83,0.8-2.46l3.18-2.94
		c0.9-0.83,1.11-2.16,0.51-3.23L83.1,45.57z"/>
	<g>
		<path class="st2" d="M34.49,61.9c-0.3,4.48-3.04,26.35-27.89,54.6c-0.46,0.52,0.03,1.32,0.7,1.14l16.14-4.19
			c0.33-0.08,0.67,0.08,0.81,0.38l7.27,15.49c0.24,0.51,0.94,0.55,1.23,0.07c3.2-5.33,16.51-29.68,15.12-64.31
			c-0.01-0.31-0.23-0.58-0.53-0.66l-11.99-3.15C34.94,61.16,34.52,61.46,34.49,61.9z"/>
		<path class="st2" d="M61.95,61.9c0.3,4.48,3.04,26.35,27.89,54.6c0.46,0.52-0.03,1.32-0.7,1.14l-16.14-4.19
			c-0.33-0.08-0.67,0.08-0.81,0.38l-7.27,15.49c-0.24,0.51-0.94,0.55-1.23,0.07c-3.2-5.33-16.51-29.68-15.12-64.31
			c0.01-0.31,0.23-0.58,0.53-0.66l11.99-3.15C61.49,61.16,61.92,61.46,61.95,61.9z"/>
	</g>
	<path class="st3" d="M49.41,3.95l3.78-2.12c1.07-0.6,2.4-0.39,3.23,0.51l2.94,3.18c0.62,0.68,1.55,0.98,2.46,0.8l4.24-0.85
		c1.2-0.24,2.4,0.38,2.91,1.48l1.81,3.93c0.38,0.83,1.18,1.41,2.09,1.52l4.3,0.51c1.21,0.14,2.17,1.1,2.31,2.31l0.51,4.3
		c0.11,0.91,0.68,1.7,1.52,2.09l3.93,1.81c1.11,0.51,1.72,1.72,1.48,2.91l-0.85,4.24c-0.18,0.9,0.12,1.83,0.8,2.46l3.18,2.94
		c0.9,0.83,1.11,2.16,0.51,3.23l-2.12,3.78c-0.45,0.8-0.45,1.78,0,2.58l2.12,3.78c0.6,1.07,0.39,2.4-0.51,3.23l-3.18,2.94
		c-0.68,0.62-0.98,1.55-0.8,2.46l0.85,4.24c0.24,1.2-0.38,2.4-1.48,2.91l-3.93,1.81c-0.83,0.38-1.41,1.18-1.52,2.09l-0.51,4.3
		c-0.14,1.21-1.1,2.17-2.31,2.31l-4.3,0.51c-0.91,0.11-1.7,0.68-2.09,1.52l-1.81,3.93c-0.51,1.11-1.72,1.72-2.91,1.48l-4.24-0.85
		c-0.9-0.18-1.83,0.12-2.46,0.8l-2.94,3.18c-0.83,0.9-2.16,1.11-3.23,0.51l-3.78-2.12c-0.8-0.45-1.78-0.45-2.58,0l-3.78,2.12
		c-1.07,0.6-2.4,0.39-3.23-0.51l-2.94-3.18c-0.62-0.68-1.55-0.98-2.46-0.8l-4.24,0.85c-1.2,0.24-2.4-0.38-2.91-1.48l-1.81-3.93
		c-0.38-0.83-1.18-1.41-2.09-1.52l-4.3-0.51c-1.21-0.14-2.17-1.1-2.31-2.31l-0.51-4.3c-0.11-0.91-0.68-1.7-1.52-2.09l-3.93-1.81
		c-1.11-0.51-1.72-1.72-1.48-2.91l0.85-4.24c0.18-0.9-0.12-1.83-0.8-2.46l-3.18-2.94c-0.9-0.83-1.11-2.16-0.51-3.23l2.12-3.78
		c0.45-0.8,0.45-1.78,0-2.58l-2.12-3.78c-0.6-1.07-0.39-2.4,0.51-3.23l3.18-2.94c0.68-0.62,0.98-1.55,0.8-2.46l-0.85-4.24
		c-0.24-1.2,0.38-2.4,1.48-2.91l3.93-1.81c0.83-0.38,1.41-1.18,1.52-2.09l0.51-4.3c0.14-1.21,1.1-2.17,2.31-2.31l4.3-0.51
		c0.91-0.11,1.7-0.68,2.09-1.52l1.81-3.93c0.51-1.11,1.72-1.72,2.91-1.48l4.24,0.85c0.9,0.18,1.83-0.12,2.46-0.8l2.94-3.18
		c0.83-0.9,2.16-1.11,3.23-0.51l3.78,2.12C47.63,4.4,48.61,4.4,49.41,3.95z"/>
	<path class="st2" d="M48.05,57.87l13.67,7.19c0.25,0.13,0.55-0.08,0.5-0.36l-2.61-15.22c-0.02-0.11,0.02-0.23,0.1-0.3l11.06-10.78
		c0.2-0.2,0.09-0.55-0.19-0.59l-15.28-2.22c-0.11-0.02-0.21-0.09-0.26-0.19L48.2,21.55c-0.13-0.26-0.49-0.26-0.62,0L40.75,35.4
		c-0.05,0.1-0.15,0.17-0.26,0.19l-15.28,2.22c-0.28,0.04-0.39,0.39-0.19,0.59l11.06,10.78c0.08,0.08,0.12,0.19,0.1,0.3L33.56,64.7
		c-0.05,0.28,0.25,0.5,0.5,0.36l13.67-7.19C47.83,57.82,47.95,57.82,48.05,57.87z"/>
</g>
</svg>
